<?xml version="1.0" encoding="UTF-8" standalone="no"?>
<!-- This is a Stata 17.0 generated SVG file (http://www.stata.com) -->

<svg version="1.1" width="5.500in" height="4.000in" viewBox="0 0 3960 2880" xmlns="http://www.w3.org/2000/svg" xmlns:xlink="http://www.w3.org/1999/xlink">
	<desc>Stata Graph - Graph</desc>
	<rect x="0" y="0" width="3960" height="2880" style="fill:#FFFFFF;stroke:none"/>
	<rect x="0.00" y="0.00" width="3959.88" height="2880.00" style="fill:#FFFFFF"/>
	<rect x="2.88" y="2.88" width="3954.12" height="2874.24" style="fill:none;stroke:#FFFFFF;stroke-width:5.76"/>
	<rect x="393.68" y="103.74" width="3462.46" height="2382.57" style="fill:none;stroke:#000000;stroke-width:5.76"/>
	<line x1="390.80" y1="1378.74" x2="3859.02" y2="1378.74" style="stroke:#FF0000;stroke-width:8.64"/>
	<path d=" M454.04 1237.79 L621.10 1237.79 L788.29 1237.79 L955.35 1237.91 L1122.41 1238.03 L1289.47 1238.28 L1456.54 1238.65 L1623.60 1239.02 L1790.66 1239.39 L1957.85 1239.89 L2124.91 1240.51 L2291.97 1241.13 L2459.04 1241.87 L2626.10 1242.61 L2793.16 1243.48 L2960.22 1244.35 L3127.29 1245.21 L3294.47 1246.20 L3461.54 1247.19 L3628.60 1248.31 L3795.66 1249.42" stroke-linejoin="round" style="fill:none;stroke:#606060;stroke-width:8.64"/>
	<line x1="454.04" y1="2311.35" x2="502.05" y2="2279.55" style="stroke:#A0A0A0;stroke-width:8.64"/>
	<line x1="526.06" y1="2263.58" x2="574.08" y2="2231.78" style="stroke:#A0A0A0;stroke-width:8.64"/>
	<line x1="598.08" y1="2215.81" x2="621.10" y2="2200.59" style="stroke:#A0A0A0;stroke-width:8.64"/>
	<line x1="621.10" y1="2200.59" x2="646.35" y2="2184.50" style="stroke:#A0A0A0;stroke-width:8.64"/>
	<line x1="670.60" y1="2169.03" x2="719.24" y2="2138.10" style="stroke:#A0A0A0;stroke-width:8.64"/>
	<line x1="743.49" y1="2122.63" x2="788.29" y2="2094.04" style="stroke:#A0A0A0;stroke-width:8.64"/>
	<line x1="788.29" y1="2094.04" x2="792.12" y2="2091.81" style="stroke:#A0A0A0;stroke-width:8.64"/>
	<line x1="816.75" y1="2076.71" x2="866.00" y2="2046.89" style="stroke:#A0A0A0;stroke-width:8.64"/>
	<line x1="890.63" y1="2031.91" x2="939.76" y2="2001.97" style="stroke:#A0A0A0;stroke-width:8.64"/>
	<line x1="964.63" y1="1987.24" x2="1014.50" y2="1958.65" style="stroke:#A0A0A0;stroke-width:8.64"/>
	<line x1="1039.62" y1="1944.42" x2="1089.62" y2="1915.83" style="stroke:#A0A0A0;stroke-width:8.64"/>
	<line x1="1114.62" y1="1901.48" x2="1122.41" y2="1897.02" style="stroke:#A0A0A0;stroke-width:8.64"/>
	<line x1="1122.41" y1="1897.02" x2="1165.48" y2="1874.38" style="stroke:#A0A0A0;stroke-width:8.64"/>
	<line x1="1190.97" y1="1861.01" x2="1241.96" y2="1834.28" style="stroke:#A0A0A0;stroke-width:8.64"/>
	<line x1="1267.45" y1="1820.91" x2="1289.47" y2="1809.28" style="stroke:#A0A0A0;stroke-width:8.64"/>
	<line x1="1289.47" y1="1809.28" x2="1319.18" y2="1795.42" style="stroke:#A0A0A0;stroke-width:8.64"/>
	<line x1="1345.29" y1="1783.29" x2="1397.51" y2="1758.91" style="stroke:#A0A0A0;stroke-width:8.64"/>
	<line x1="1423.50" y1="1746.79" x2="1456.54" y2="1731.32" style="stroke:#A0A0A0;stroke-width:8.64"/>
	<line x1="1456.54" y1="1731.32" x2="1476.34" y2="1723.64" style="stroke:#A0A0A0;stroke-width:8.64"/>
	<line x1="1503.19" y1="1713.25" x2="1556.90" y2="1692.46" style="stroke:#A0A0A0;stroke-width:8.64"/>
	<line x1="1583.75" y1="1682.19" x2="1623.60" y2="1666.72" style="stroke:#A0A0A0;stroke-width:8.64"/>
	<line x1="1623.60" y1="1666.72" x2="1637.96" y2="1662.76" style="stroke:#A0A0A0;stroke-width:8.64"/>
	<line x1="1665.68" y1="1654.96" x2="1721.12" y2="1639.49" style="stroke:#A0A0A0;stroke-width:8.64"/>
	<line x1="1748.84" y1="1631.82" x2="1790.66" y2="1620.06" style="stroke:#A0A0A0;stroke-width:8.64"/>
	<line x1="1790.66" y1="1620.06" x2="1804.77" y2="1618.08" style="stroke:#A0A0A0;stroke-width:8.64"/>
	<line x1="1833.23" y1="1614.00" x2="1890.16" y2="1605.83" style="stroke:#A0A0A0;stroke-width:8.64"/>
	<line x1="1918.74" y1="1601.75" x2="1957.85" y2="1596.18" style="stroke:#A0A0A0;stroke-width:8.64"/>
	<line x1="1957.85" y1="1596.18" x2="1975.92" y2="1596.30" style="stroke:#A0A0A0;stroke-width:8.64"/>
	<line x1="2004.75" y1="1596.55" x2="2062.29" y2="1596.80" style="stroke:#A0A0A0;stroke-width:8.64"/>
	<line x1="2091.13" y1="1596.92" x2="2124.91" y2="1597.17" style="stroke:#A0A0A0;stroke-width:8.64"/>
	<line x1="2124.91" y1="1597.17" x2="2148.42" y2="1600.51" style="stroke:#A0A0A0;stroke-width:8.64"/>
	<line x1="2177.01" y1="1604.59" x2="2233.94" y2="1612.76" style="stroke:#A0A0A0;stroke-width:8.64"/>
	<line x1="2262.52" y1="1616.72" x2="2291.97" y2="1620.93" style="stroke:#A0A0A0;stroke-width:8.64"/>
	<line x1="2291.97" y1="1620.93" x2="2318.95" y2="1627.61" style="stroke:#A0A0A0;stroke-width:8.64"/>
	<line x1="2346.92" y1="1634.42" x2="2402.85" y2="1648.15" style="stroke:#A0A0A0;stroke-width:8.64"/>
	<line x1="2430.95" y1="1654.96" x2="2459.04" y2="1661.89" style="stroke:#A0A0A0;stroke-width:8.64"/>
	<line x1="2459.04" y1="1661.89" x2="2486.39" y2="1670.43" style="stroke:#A0A0A0;stroke-width:8.64"/>
	<line x1="2513.86" y1="1678.97" x2="2568.80" y2="1696.17" style="stroke:#A0A0A0;stroke-width:8.64"/>
	<line x1="2596.28" y1="1704.71" x2="2626.10" y2="1713.99" style="stroke:#A0A0A0;stroke-width:8.64"/>
	<line x1="2626.10" y1="1713.99" x2="2650.97" y2="1722.78" style="stroke:#A0A0A0;stroke-width:8.64"/>
	<line x1="2678.20" y1="1732.18" x2="2732.52" y2="1751.24" style="stroke:#A0A0A0;stroke-width:8.64"/>
	<line x1="2759.75" y1="1760.77" x2="2793.16" y2="1772.53" style="stroke:#A0A0A0;stroke-width:8.64"/>
	<line x1="2793.16" y1="1772.53" x2="2813.95" y2="1780.20" style="stroke:#A0A0A0;stroke-width:8.64"/>
	<line x1="2840.93" y1="1790.22" x2="2894.88" y2="1810.15" style="stroke:#A0A0A0;stroke-width:8.64"/>
	<line x1="2921.99" y1="1820.17" x2="2960.22" y2="1834.40" style="stroke:#A0A0A0;stroke-width:8.64"/>
	<line x1="2960.22" y1="1834.40" x2="2975.82" y2="1840.34" style="stroke:#A0A0A0;stroke-width:8.64"/>
	<line x1="3002.79" y1="1850.49" x2="3056.63" y2="1870.91" style="stroke:#A0A0A0;stroke-width:8.64"/>
	<line x1="3083.60" y1="1881.06" x2="3127.29" y2="1897.64" style="stroke:#A0A0A0;stroke-width:8.64"/>
	<line x1="3127.29" y1="1897.64" x2="3137.43" y2="1901.48" style="stroke:#A0A0A0;stroke-width:8.64"/>
	<line x1="3164.29" y1="1911.75" x2="3218.24" y2="1932.17" style="stroke:#A0A0A0;stroke-width:8.64"/>
	<line x1="3245.10" y1="1942.32" x2="3294.47" y2="1961.00" style="stroke:#A0A0A0;stroke-width:8.64"/>
	<line x1="3294.47" y1="1961.00" x2="3298.93" y2="1962.74" style="stroke:#A0A0A0;stroke-width:8.64"/>
	<line x1="3326.03" y1="1972.88" x2="3379.86" y2="1993.06" style="stroke:#A0A0A0;stroke-width:8.64"/>
	<line x1="3406.84" y1="2003.20" x2="3460.79" y2="2023.38" style="stroke:#A0A0A0;stroke-width:8.64"/>
	<line x1="3487.89" y1="2033.28" x2="3541.85" y2="2053.20" style="stroke:#A0A0A0;stroke-width:8.64"/>
	<line x1="3568.95" y1="2063.10" x2="3623.03" y2="2082.90" style="stroke:#A0A0A0;stroke-width:8.64"/>
	<line x1="3650.13" y1="2092.68" x2="3704.33" y2="2111.98" style="stroke:#A0A0A0;stroke-width:8.64"/>
	<line x1="3731.43" y1="2121.64" x2="3785.76" y2="2140.94" style="stroke:#A0A0A0;stroke-width:8.64"/>
	<path d="" stroke-linejoin="round" style="fill:none;stroke:#A0A0A0;stroke-width:8.64"/>
	<line x1="454.04" y1="164.22" x2="502.05" y2="196.03" style="stroke:#A0A0A0;stroke-width:8.64"/>
	<line x1="526.06" y1="211.87" x2="574.08" y2="243.67" style="stroke:#A0A0A0;stroke-width:8.64"/>
	<line x1="598.08" y1="259.64" x2="621.10" y2="274.98" style="stroke:#A0A0A0;stroke-width:8.64"/>
	<line x1="621.10" y1="274.98" x2="646.35" y2="291.07" style="stroke:#A0A0A0;stroke-width:8.64"/>
	<line x1="670.60" y1="306.54" x2="719.24" y2="337.48" style="stroke:#A0A0A0;stroke-width:8.64"/>
	<line x1="743.49" y1="352.95" x2="788.29" y2="381.53" style="stroke:#A0A0A0;stroke-width:8.64"/>
	<line x1="788.29" y1="381.53" x2="792.00" y2="383.88" style="stroke:#A0A0A0;stroke-width:8.64"/>
	<line x1="816.63" y1="398.86" x2="865.88" y2="428.68" style="stroke:#A0A0A0;stroke-width:8.64"/>
	<line x1="890.51" y1="443.78" x2="939.63" y2="473.73" style="stroke:#A0A0A0;stroke-width:8.64"/>
	<line x1="964.38" y1="488.46" x2="1014.26" y2="517.04" style="stroke:#A0A0A0;stroke-width:8.64"/>
	<line x1="1039.25" y1="531.40" x2="1089.25" y2="559.99" style="stroke:#A0A0A0;stroke-width:8.64"/>
	<line x1="1114.24" y1="574.34" x2="1122.41" y2="579.04" style="stroke:#A0A0A0;stroke-width:8.64"/>
	<line x1="1122.41" y1="579.04" x2="1164.98" y2="601.57" style="stroke:#A0A0A0;stroke-width:8.64"/>
	<line x1="1190.47" y1="614.93" x2="1241.34" y2="641.91" style="stroke:#A0A0A0;stroke-width:8.64"/>
	<line x1="1266.83" y1="655.28" x2="1289.47" y2="667.28" style="stroke:#A0A0A0;stroke-width:8.64"/>
	<line x1="1289.47" y1="667.28" x2="1318.43" y2="680.89" style="stroke:#A0A0A0;stroke-width:8.64"/>
	<line x1="1344.54" y1="693.15" x2="1396.64" y2="717.65" style="stroke:#A0A0A0;stroke-width:8.64"/>
	<line x1="1422.63" y1="729.90" x2="1456.54" y2="745.86" style="stroke:#A0A0A0;stroke-width:8.64"/>
	<line x1="1456.54" y1="745.86" x2="1475.22" y2="753.17" style="stroke:#A0A0A0;stroke-width:8.64"/>
	<line x1="1502.08" y1="763.69" x2="1555.66" y2="784.72" style="stroke:#A0A0A0;stroke-width:8.64"/>
	<line x1="1582.52" y1="795.12" x2="1623.60" y2="811.21" style="stroke:#A0A0A0;stroke-width:8.64"/>
	<line x1="1623.60" y1="811.21" x2="1636.59" y2="814.92" style="stroke:#A0A0A0;stroke-width:8.64"/>
	<line x1="1664.31" y1="822.84" x2="1719.63" y2="838.56" style="stroke:#A0A0A0;stroke-width:8.64"/>
	<line x1="1747.35" y1="846.48" x2="1790.66" y2="858.73" style="stroke:#A0A0A0;stroke-width:8.64"/>
	<line x1="1790.66" y1="858.73" x2="1803.16" y2="860.58" style="stroke:#A0A0A0;stroke-width:8.64"/>
	<line x1="1831.62" y1="864.92" x2="1888.67" y2="873.33" style="stroke:#A0A0A0;stroke-width:8.64"/>
	<line x1="1917.14" y1="877.66" x2="1957.85" y2="883.73" style="stroke:#A0A0A0;stroke-width:8.64"/>
	<line x1="1957.85" y1="883.73" x2="1974.31" y2="883.73" style="stroke:#A0A0A0;stroke-width:8.64"/>
	<line x1="2003.14" y1="883.73" x2="2060.69" y2="883.85" style="stroke:#A0A0A0;stroke-width:8.64"/>
	<line x1="2089.52" y1="883.85" x2="2124.91" y2="883.85" style="stroke:#A0A0A0;stroke-width:8.64"/>
	<line x1="2124.91" y1="883.85" x2="2146.82" y2="880.88" style="stroke:#A0A0A0;stroke-width:8.64"/>
	<line x1="2175.40" y1="877.04" x2="2232.57" y2="869.37" style="stroke:#A0A0A0;stroke-width:8.64"/>
	<line x1="2261.16" y1="865.53" x2="2291.97" y2="861.33" style="stroke:#A0A0A0;stroke-width:8.64"/>
	<line x1="2291.97" y1="861.33" x2="2317.59" y2="855.26" style="stroke:#A0A0A0;stroke-width:8.64"/>
	<line x1="2345.68" y1="848.58" x2="2401.74" y2="835.34" style="stroke:#A0A0A0;stroke-width:8.64"/>
	<line x1="2429.71" y1="828.66" x2="2459.04" y2="821.85" style="stroke:#A0A0A0;stroke-width:8.64"/>
	<line x1="2459.04" y1="821.85" x2="2485.40" y2="813.93" style="stroke:#A0A0A0;stroke-width:8.64"/>
	<line x1="2512.99" y1="805.51" x2="2568.06" y2="788.93" style="stroke:#A0A0A0;stroke-width:8.64"/>
	<line x1="2595.66" y1="780.64" x2="2626.10" y2="771.36" style="stroke:#A0A0A0;stroke-width:8.64"/>
	<line x1="2626.10" y1="771.36" x2="2650.48" y2="763.07" style="stroke:#A0A0A0;stroke-width:8.64"/>
	<line x1="2677.83" y1="753.66" x2="2732.28" y2="735.10" style="stroke:#A0A0A0;stroke-width:8.64"/>
	<line x1="2759.63" y1="725.82" x2="2793.16" y2="714.43" style="stroke:#A0A0A0;stroke-width:8.64"/>
	<line x1="2793.16" y1="714.43" x2="2813.95" y2="706.88" style="stroke:#A0A0A0;stroke-width:8.64"/>
	<line x1="2841.05" y1="697.23" x2="2895.26" y2="677.68" style="stroke:#A0A0A0;stroke-width:8.64"/>
	<line x1="2922.36" y1="667.90" x2="2960.22" y2="654.29" style="stroke:#A0A0A0;stroke-width:8.64"/>
	<line x1="2960.22" y1="654.29" x2="2976.56" y2="648.35" style="stroke:#A0A0A0;stroke-width:8.64"/>
	<line x1="3003.54" y1="638.32" x2="3057.62" y2="618.40" style="stroke:#A0A0A0;stroke-width:8.64"/>
	<line x1="3084.72" y1="608.50" x2="3127.29" y2="592.78" style="stroke:#A0A0A0;stroke-width:8.64"/>
	<line x1="3127.29" y1="592.78" x2="3138.67" y2="588.57" style="stroke:#A0A0A0;stroke-width:8.64"/>
	<line x1="3165.77" y1="578.67" x2="3219.73" y2="558.87" style="stroke:#A0A0A0;stroke-width:8.64"/>
	<line x1="3246.83" y1="548.85" x2="3294.47" y2="531.40" style="stroke:#A0A0A0;stroke-width:8.64"/>
	<line x1="3294.47" y1="531.40" x2="3300.91" y2="529.05" style="stroke:#A0A0A0;stroke-width:8.64"/>
	<line x1="3328.01" y1="519.27" x2="3382.09" y2="499.59" style="stroke:#A0A0A0;stroke-width:8.64"/>
	<line x1="3409.19" y1="489.82" x2="3461.54" y2="470.76" style="stroke:#A0A0A0;stroke-width:8.64"/>
	<line x1="3461.54" y1="470.76" x2="3463.27" y2="470.14" style="stroke:#A0A0A0;stroke-width:8.64"/>
	<line x1="3490.49" y1="460.49" x2="3544.70" y2="441.31" style="stroke:#A0A0A0;stroke-width:8.64"/>
	<line x1="3571.92" y1="431.65" x2="3626.25" y2="412.47" style="stroke:#A0A0A0;stroke-width:8.64"/>
	<line x1="3653.47" y1="403.07" x2="3707.92" y2="384.38" style="stroke:#A0A0A0;stroke-width:8.64"/>
	<line x1="3735.15" y1="374.97" x2="3789.60" y2="356.29" style="stroke:#A0A0A0;stroke-width:8.64"/>
	<path d="" stroke-linejoin="round" style="fill:none;stroke:#A0A0A0;stroke-width:8.64"/>
	<line x1="967.23" y1="1679.71" x2="967.23" y2="1021.96" style="stroke:#808080;stroke-width:8.64"/>
	<line x1="1374.12" y1="1508.06" x2="1374.12" y2="998.20" style="stroke:#808080;stroke-width:8.64"/>
	<line x1="1552.94" y1="1432.95" x2="1552.94" y2="1010.95" style="stroke:#808080;stroke-width:8.64"/>
	<line x1="1617.78" y1="1402.01" x2="1617.78" y2="976.17" style="stroke:#808080;stroke-width:8.64"/>
	<line x1="1836.70" y1="1348.79" x2="1836.70" y2="876.42" style="stroke:#808080;stroke-width:8.64"/>
	<line x1="1990.77" y1="1332.09" x2="1990.77" y2="887.19" style="stroke:#808080;stroke-width:8.64"/>
	<line x1="2155.97" y1="1343.47" x2="2155.97" y2="715.42" style="stroke:#808080;stroke-width:8.64"/>
	<line x1="2336.90" y1="1313.77" x2="2336.90" y2="678.05" style="stroke:#808080;stroke-width:8.64"/>
	<line x1="2572.76" y1="1176.16" x2="2572.76" y2="492.05" style="stroke:#808080;stroke-width:8.64"/>
	<line x1="3043.76" y1="1241.99" x2="3043.76" y2="320.89" style="stroke:#808080;stroke-width:8.64"/>
	<circle cx="967.11" cy="1350.90" r="10.38" style="fill:#404040"/>
	<circle cx="967.11" cy="1350.90" r="6.06" style="fill:none;stroke:#404040;stroke-width:8.64"/>
	<circle cx="1374.12" cy="1253.13" r="10.26" style="fill:#404040"/>
	<circle cx="1374.12" cy="1253.13" r="5.94" style="fill:none;stroke:#404040;stroke-width:8.64"/>
	<circle cx="1552.94" cy="1222.07" r="10.26" style="fill:#404040"/>
	<circle cx="1552.94" cy="1222.07" r="5.94" style="fill:none;stroke:#404040;stroke-width:8.64"/>
	<circle cx="1617.78" cy="1189.15" r="10.26" style="fill:#404040"/>
	<circle cx="1617.78" cy="1189.15" r="5.94" style="fill:none;stroke:#404040;stroke-width:8.64"/>
	<circle cx="1836.70" cy="1112.67" r="10.51" style="fill:#404040"/>
	<circle cx="1836.70" cy="1112.67" r="6.19" style="fill:none;stroke:#404040;stroke-width:8.64"/>
	<circle cx="1990.77" cy="1109.70" r="10.26" style="fill:#404040"/>
	<circle cx="1990.77" cy="1109.70" r="5.94" style="fill:none;stroke:#404040;stroke-width:8.64"/>
	<circle cx="2155.85" cy="1029.51" r="10.26" style="fill:#404040"/>
	<circle cx="2155.85" cy="1029.51" r="5.94" style="fill:none;stroke:#404040;stroke-width:8.64"/>
	<circle cx="2336.90" cy="995.97" r="10.38" style="fill:#404040"/>
	<circle cx="2336.90" cy="995.97" r="6.06" style="fill:none;stroke:#404040;stroke-width:8.64"/>
	<circle cx="2572.64" cy="834.22" r="10.26" style="fill:#404040"/>
	<circle cx="2572.64" cy="834.22" r="5.94" style="fill:none;stroke:#404040;stroke-width:8.64"/>
	<circle cx="3043.63" cy="781.51" r="10.14" style="fill:#404040"/>
	<circle cx="3043.63" cy="781.51" r="5.82" style="fill:none;stroke:#404040;stroke-width:8.64"/>
	<line x1="390.80" y1="2489.19" x2="390.80" y2="100.86" style="stroke:#000000;stroke-width:5.76"/>
	<line x1="390.80" y1="2425.82" x2="350.83" y2="2425.82" style="stroke:#000000;stroke-width:5.76"/>
	<text x="300.72" y="2425.82" style="font-family:'Helvetica';font-size:99.99px;fill:#000000" transform="rotate(-90 300.72,2425.82)" text-anchor="middle">-.0002</text>
	<line x1="390.80" y1="1902.22" x2="350.83" y2="1902.22" style="stroke:#000000;stroke-width:5.76"/>
	<text x="300.72" y="1902.22" style="font-family:'Helvetica';font-size:99.99px;fill:#000000" transform="rotate(-90 300.72,1902.22)" text-anchor="middle">-.0001</text>
	<line x1="390.80" y1="1378.74" x2="350.83" y2="1378.74" style="stroke:#000000;stroke-width:5.76"/>
	<text x="300.72" y="1378.74" style="font-family:'Helvetica';font-size:99.99px;fill:#000000" transform="rotate(-90 300.72,1378.74)" text-anchor="middle">0</text>
	<line x1="390.80" y1="855.14" x2="350.83" y2="855.14" style="stroke:#000000;stroke-width:5.76"/>
	<text x="300.72" y="855.14" style="font-family:'Helvetica';font-size:99.99px;fill:#000000" transform="rotate(-90 300.72,855.14)" text-anchor="middle">.0001</text>
	<line x1="390.80" y1="331.54" x2="350.83" y2="331.54" style="stroke:#000000;stroke-width:5.76"/>
	<text x="300.72" y="331.54" style="font-family:'Helvetica';font-size:99.99px;fill:#000000" transform="rotate(-90 300.72,331.54)" text-anchor="middle">.0002</text>
	<text x="190.71" y="1294.96" style="font-family:'Helvetica';font-size:99.99px;fill:#000000" transform="rotate(-90 190.71,1294.96)" text-anchor="middle">ME of Days to Election</text>
	<line x1="390.80" y1="2489.19" x2="3859.02" y2="2489.19" style="stroke:#000000;stroke-width:5.76"/>
	<line x1="572.96" y1="2489.19" x2="572.96" y2="2529.16" style="stroke:#000000;stroke-width:5.76"/>
	<text x="572.96" y="2619.14" style="font-family:'Helvetica';font-size:99.99px;fill:#000000" text-anchor="middle">.2</text>
	<line x1="1586.48" y1="2489.19" x2="1586.48" y2="2529.16" style="stroke:#000000;stroke-width:5.76"/>
	<text x="1586.48" y="2619.14" style="font-family:'Helvetica';font-size:99.99px;fill:#000000" text-anchor="middle">.3</text>
	<line x1="2599.86" y1="2489.19" x2="2599.86" y2="2529.16" style="stroke:#000000;stroke-width:5.76"/>
	<text x="2599.86" y="2619.14" style="font-family:'Helvetica';font-size:99.99px;fill:#000000" text-anchor="middle">.4</text>
	<line x1="3613.25" y1="2489.19" x2="3613.25" y2="2529.16" style="stroke:#000000;stroke-width:5.76"/>
	<text x="3613.25" y="2619.14" style="font-family:'Helvetica';font-size:99.99px;fill:#000000" text-anchor="middle">.5</text>
	<text x="2124.91" y="2729.16" style="font-family:'Helvetica';font-size:99.99px;fill:#000000" text-anchor="middle">Democratic Vote Share</text>
</svg>
