<?xml version="1.0" encoding="UTF-8" standalone="no"?>
<!-- This is a Stata 17.0 generated SVG file (http://www.stata.com) -->

<svg version="1.1" width="5.500in" height="4.000in" viewBox="0 0 3960 2880" xmlns="http://www.w3.org/2000/svg" xmlns:xlink="http://www.w3.org/1999/xlink">
	<desc>Stata Graph - Graph</desc>
	<rect x="0" y="0" width="3960" height="2880" style="fill:#FFFFFF;stroke:none"/>
	<rect x="0.00" y="0.00" width="3959.88" height="2880.00" style="fill:#FFFFFF"/>
	<rect x="2.88" y="2.88" width="3954.12" height="2874.24" style="fill:none;stroke:#FFFFFF;stroke-width:5.76"/>
	<rect x="393.68" y="103.74" width="3462.46" height="2382.57" style="fill:none;stroke:#000000;stroke-width:5.76"/>
	<line x1="390.80" y1="1396.19" x2="3859.02" y2="1396.19" style="stroke:#FF0000;stroke-width:8.64"/>
	<path d=" M454.04 1245.83 L621.10 1246.08 L788.29 1246.57 L955.35 1246.94 L1122.41 1247.44 L1289.47 1247.93 L1456.54 1248.43 L1623.60 1248.92 L1790.66 1249.42 L1957.85 1250.04 L2124.91 1250.29 L2291.97 1250.78 L2459.04 1251.03 L2626.10 1251.40 L2793.16 1251.52 L2960.22 1251.28 L3127.29 1251.40 L3294.47 1251.28 L3461.54 1251.15 L3628.60 1250.78 L3795.66 1250.41" stroke-linejoin="round" style="fill:none;stroke:#606060;stroke-width:8.64"/>
	<line x1="454.04" y1="2319.89" x2="501.81" y2="2287.71" style="stroke:#A0A0A0;stroke-width:8.64"/>
	<line x1="525.69" y1="2271.63" x2="573.46" y2="2239.57" style="stroke:#A0A0A0;stroke-width:8.64"/>
	<line x1="597.47" y1="2223.49" x2="621.10" y2="2207.52" style="stroke:#A0A0A0;stroke-width:8.64"/>
	<line x1="621.10" y1="2207.52" x2="646.22" y2="2193.04" style="stroke:#A0A0A0;stroke-width:8.64"/>
	<line x1="671.10" y1="2178.56" x2="720.97" y2="2149.73" style="stroke:#A0A0A0;stroke-width:8.64"/>
	<line x1="745.97" y1="2135.37" x2="788.29" y2="2110.87" style="stroke:#A0A0A0;stroke-width:8.64"/>
	<line x1="788.29" y1="2110.87" x2="795.84" y2="2106.54" style="stroke:#A0A0A0;stroke-width:8.64"/>
	<line x1="820.83" y1="2092.18" x2="870.83" y2="2063.72" style="stroke:#A0A0A0;stroke-width:8.64"/>
	<line x1="895.83" y1="2049.36" x2="945.95" y2="2020.78" style="stroke:#A0A0A0;stroke-width:8.64"/>
	<line x1="971.07" y1="2006.67" x2="1021.56" y2="1978.95" style="stroke:#A0A0A0;stroke-width:8.64"/>
	<line x1="1046.68" y1="1965.09" x2="1097.17" y2="1937.37" style="stroke:#A0A0A0;stroke-width:8.64"/>
	<line x1="1122.41" y1="1923.51" x2="1122.41" y2="1923.51" style="stroke:#A0A0A0;stroke-width:8.64"/>
	<line x1="1122.41" y1="1923.51" x2="1173.03" y2="1896.03" style="stroke:#A0A0A0;stroke-width:8.64"/>
	<line x1="1198.40" y1="1882.30" x2="1249.01" y2="1854.95" style="stroke:#A0A0A0;stroke-width:8.64"/>
	<line x1="1274.38" y1="1841.33" x2="1289.47" y2="1833.04" style="stroke:#A0A0A0;stroke-width:8.64"/>
	<line x1="1289.47" y1="1833.04" x2="1326.60" y2="1817.45" style="stroke:#A0A0A0;stroke-width:8.64"/>
	<line x1="1353.21" y1="1806.31" x2="1406.30" y2="1783.91" style="stroke:#A0A0A0;stroke-width:8.64"/>
	<line x1="1432.90" y1="1772.77" x2="1456.54" y2="1762.75" style="stroke:#A0A0A0;stroke-width:8.64"/>
	<line x1="1456.54" y1="1762.75" x2="1486.11" y2="1750.87" style="stroke:#A0A0A0;stroke-width:8.64"/>
	<line x1="1512.84" y1="1740.10" x2="1566.30" y2="1718.82" style="stroke:#A0A0A0;stroke-width:8.64"/>
	<line x1="1593.03" y1="1708.05" x2="1623.60" y2="1695.80" style="stroke:#A0A0A0;stroke-width:8.64"/>
	<line x1="1623.60" y1="1695.80" x2="1647.36" y2="1689.24" style="stroke:#A0A0A0;stroke-width:8.64"/>
	<line x1="1675.08" y1="1681.57" x2="1730.52" y2="1666.22" style="stroke:#A0A0A0;stroke-width:8.64"/>
	<line x1="1758.24" y1="1658.43" x2="1790.66" y2="1649.52" style="stroke:#A0A0A0;stroke-width:8.64"/>
	<line x1="1790.66" y1="1649.52" x2="1814.42" y2="1645.93" style="stroke:#A0A0A0;stroke-width:8.64"/>
	<line x1="1842.89" y1="1641.72" x2="1899.93" y2="1633.06" style="stroke:#A0A0A0;stroke-width:8.64"/>
	<line x1="1928.40" y1="1628.85" x2="1957.85" y2="1624.39" style="stroke:#A0A0A0;stroke-width:8.64"/>
	<line x1="1957.85" y1="1624.39" x2="1985.69" y2="1623.77" style="stroke:#A0A0A0;stroke-width:8.64"/>
	<line x1="2014.53" y1="1623.03" x2="2071.95" y2="1621.55" style="stroke:#A0A0A0;stroke-width:8.64"/>
	<line x1="2100.78" y1="1620.80" x2="2124.91" y2="1620.19" style="stroke:#A0A0A0;stroke-width:8.64"/>
	<line x1="2124.91" y1="1620.19" x2="2158.20" y2="1624.39" style="stroke:#A0A0A0;stroke-width:8.64"/>
	<line x1="2186.66" y1="1627.98" x2="2243.84" y2="1635.04" style="stroke:#A0A0A0;stroke-width:8.64"/>
	<line x1="2272.42" y1="1638.62" x2="2291.97" y2="1641.10" style="stroke:#A0A0A0;stroke-width:8.64"/>
	<line x1="2291.97" y1="1641.10" x2="2328.85" y2="1649.52" style="stroke:#A0A0A0;stroke-width:8.64"/>
	<line x1="2356.94" y1="1656.07" x2="2413.13" y2="1668.94" style="stroke:#A0A0A0;stroke-width:8.64"/>
	<line x1="2441.22" y1="1675.38" x2="2459.04" y2="1679.46" style="stroke:#A0A0A0;stroke-width:8.64"/>
	<line x1="2459.04" y1="1679.46" x2="2496.66" y2="1690.73" style="stroke:#A0A0A0;stroke-width:8.64"/>
	<line x1="2524.25" y1="1699.02" x2="2579.32" y2="1715.48" style="stroke:#A0A0A0;stroke-width:8.64"/>
	<line x1="2606.92" y1="1723.64" x2="2626.10" y2="1729.46" style="stroke:#A0A0A0;stroke-width:8.64"/>
	<line x1="2626.10" y1="1729.46" x2="2661.99" y2="1740.47" style="stroke:#A0A0A0;stroke-width:8.64"/>
	<line x1="2689.58" y1="1748.89" x2="2744.65" y2="1765.72" style="stroke:#A0A0A0;stroke-width:8.64"/>
	<line x1="2772.12" y1="1774.14" x2="2793.16" y2="1780.57" style="stroke:#A0A0A0;stroke-width:8.64"/>
	<line x1="2793.16" y1="1780.57" x2="2826.95" y2="1792.08" style="stroke:#A0A0A0;stroke-width:8.64"/>
	<line x1="2854.17" y1="1801.36" x2="2908.62" y2="1820.05" style="stroke:#A0A0A0;stroke-width:8.64"/>
	<line x1="2935.85" y1="1829.33" x2="2960.22" y2="1837.74" style="stroke:#A0A0A0;stroke-width:8.64"/>
	<line x1="2960.22" y1="1837.74" x2="2990.30" y2="1848.02" style="stroke:#A0A0A0;stroke-width:8.64"/>
	<line x1="3017.52" y1="1857.30" x2="3072.09" y2="1875.74" style="stroke:#A0A0A0;stroke-width:8.64"/>
	<line x1="3099.44" y1="1885.02" x2="3127.29" y2="1894.55" style="stroke:#A0A0A0;stroke-width:8.64"/>
	<line x1="3127.29" y1="1894.55" x2="3153.65" y2="1904.45" style="stroke:#A0A0A0;stroke-width:8.64"/>
	<line x1="3180.62" y1="1914.47" x2="3234.58" y2="1934.77" style="stroke:#A0A0A0;stroke-width:8.64"/>
	<line x1="3261.56" y1="1944.92" x2="3294.47" y2="1957.29" style="stroke:#A0A0A0;stroke-width:8.64"/>
	<line x1="3294.47" y1="1957.29" x2="3315.26" y2="1965.46" style="stroke:#A0A0A0;stroke-width:8.64"/>
	<line x1="3342.12" y1="1975.98" x2="3395.70" y2="1997.02" style="stroke:#A0A0A0;stroke-width:8.64"/>
	<line x1="3422.43" y1="2007.66" x2="3461.54" y2="2023.00" style="stroke:#A0A0A0;stroke-width:8.64"/>
	<line x1="3461.54" y1="2023.00" x2="3476.14" y2="2028.45" style="stroke:#A0A0A0;stroke-width:8.64"/>
	<line x1="3503.24" y1="2038.47" x2="3557.19" y2="2058.40" style="stroke:#A0A0A0;stroke-width:8.64"/>
	<line x1="3584.30" y1="2068.30" x2="3628.60" y2="2084.63" style="stroke:#A0A0A0;stroke-width:8.64"/>
	<line x1="3628.60" y1="2084.63" x2="3638.25" y2="2088.47" style="stroke:#A0A0A0;stroke-width:8.64"/>
	<line x1="3664.98" y1="2099.24" x2="3718.44" y2="2120.52" style="stroke:#A0A0A0;stroke-width:8.64"/>
	<line x1="3745.17" y1="2131.29" x2="3795.66" y2="2151.46" style="stroke:#A0A0A0;stroke-width:8.64"/>
	<path d="" stroke-linejoin="round" style="fill:none;stroke:#A0A0A0;stroke-width:8.64"/>
	<line x1="454.04" y1="164.22" x2="502.92" y2="194.54" style="stroke:#A0A0A0;stroke-width:8.64"/>
	<line x1="527.42" y1="209.76" x2="576.43" y2="240.08" style="stroke:#A0A0A0;stroke-width:8.64"/>
	<line x1="600.93" y1="255.18" x2="621.10" y2="267.80" style="stroke:#A0A0A0;stroke-width:8.64"/>
	<line x1="621.10" y1="267.80" x2="649.56" y2="286.00" style="stroke:#A0A0A0;stroke-width:8.64"/>
	<line x1="673.82" y1="301.46" x2="722.45" y2="332.40" style="stroke:#A0A0A0;stroke-width:8.64"/>
	<line x1="746.71" y1="348.00" x2="788.29" y2="374.48" style="stroke:#A0A0A0;stroke-width:8.64"/>
	<line x1="788.29" y1="374.48" x2="795.47" y2="378.69" style="stroke:#A0A0A0;stroke-width:8.64"/>
	<line x1="820.22" y1="393.29" x2="869.96" y2="422.50" style="stroke:#A0A0A0;stroke-width:8.64"/>
	<line x1="894.84" y1="436.97" x2="944.46" y2="466.18" style="stroke:#A0A0A0;stroke-width:8.64"/>
	<line x1="969.33" y1="480.66" x2="1019.08" y2="509.62" style="stroke:#A0A0A0;stroke-width:8.64"/>
	<line x1="1043.96" y1="523.97" x2="1093.70" y2="552.93" style="stroke:#A0A0A0;stroke-width:8.64"/>
	<line x1="1118.70" y1="567.29" x2="1122.41" y2="569.52" style="stroke:#A0A0A0;stroke-width:8.64"/>
	<line x1="1122.41" y1="569.52" x2="1169.07" y2="595.01" style="stroke:#A0A0A0;stroke-width:8.64"/>
	<line x1="1194.44" y1="608.87" x2="1244.93" y2="636.47" style="stroke:#A0A0A0;stroke-width:8.64"/>
	<line x1="1270.29" y1="650.33" x2="1289.47" y2="660.72" style="stroke:#A0A0A0;stroke-width:8.64"/>
	<line x1="1289.47" y1="660.72" x2="1322.02" y2="675.45" style="stroke:#A0A0A0;stroke-width:8.64"/>
	<line x1="1348.26" y1="687.45" x2="1400.60" y2="711.21" style="stroke:#A0A0A0;stroke-width:8.64"/>
	<line x1="1426.84" y1="723.09" x2="1456.54" y2="736.58" style="stroke:#A0A0A0;stroke-width:8.64"/>
	<line x1="1456.54" y1="736.58" x2="1479.93" y2="745.62" style="stroke:#A0A0A0;stroke-width:8.64"/>
	<line x1="1506.78" y1="756.01" x2="1560.49" y2="776.68" style="stroke:#A0A0A0;stroke-width:8.64"/>
	<line x1="1587.34" y1="787.07" x2="1623.60" y2="801.06" style="stroke:#A0A0A0;stroke-width:8.64"/>
	<line x1="1623.60" y1="801.06" x2="1641.67" y2="806.01" style="stroke:#A0A0A0;stroke-width:8.64"/>
	<line x1="1669.39" y1="813.68" x2="1724.95" y2="829.03" style="stroke:#A0A0A0;stroke-width:8.64"/>
	<line x1="1752.67" y1="836.70" x2="1790.66" y2="847.10" style="stroke:#A0A0A0;stroke-width:8.64"/>
	<line x1="1790.66" y1="847.10" x2="1808.73" y2="849.45" style="stroke:#A0A0A0;stroke-width:8.64"/>
	<line x1="1837.32" y1="853.04" x2="1894.37" y2="860.34" style="stroke:#A0A0A0;stroke-width:8.64"/>
	<line x1="1922.95" y1="864.05" x2="1957.85" y2="868.50" style="stroke:#A0A0A0;stroke-width:8.64"/>
	<line x1="1957.85" y1="868.50" x2="1980.25" y2="867.64" style="stroke:#A0A0A0;stroke-width:8.64"/>
	<line x1="2009.08" y1="866.40" x2="2066.63" y2="864.17" style="stroke:#A0A0A0;stroke-width:8.64"/>
	<line x1="2095.34" y1="862.94" x2="2124.91" y2="861.82" style="stroke:#A0A0A0;stroke-width:8.64"/>
	<line x1="2124.91" y1="861.82" x2="2152.63" y2="857.12" style="stroke:#A0A0A0;stroke-width:8.64"/>
	<line x1="2180.97" y1="852.42" x2="2237.77" y2="842.89" style="stroke:#A0A0A0;stroke-width:8.64"/>
	<line x1="2266.23" y1="838.18" x2="2291.97" y2="833.85" style="stroke:#A0A0A0;stroke-width:8.64"/>
	<line x1="2291.97" y1="833.85" x2="2322.17" y2="825.19" style="stroke:#A0A0A0;stroke-width:8.64"/>
	<line x1="2349.89" y1="817.27" x2="2405.21" y2="801.43" style="stroke:#A0A0A0;stroke-width:8.64"/>
	<line x1="2432.93" y1="793.51" x2="2459.04" y2="786.08" style="stroke:#A0A0A0;stroke-width:8.64"/>
	<line x1="2459.04" y1="786.08" x2="2487.99" y2="776.56" style="stroke:#A0A0A0;stroke-width:8.64"/>
	<line x1="2515.34" y1="767.52" x2="2570.04" y2="749.45" style="stroke:#A0A0A0;stroke-width:8.64"/>
	<line x1="2597.39" y1="740.42" x2="2626.10" y2="731.01" style="stroke:#A0A0A0;stroke-width:8.64"/>
	<line x1="2626.10" y1="731.01" x2="2651.47" y2="720.74" style="stroke:#A0A0A0;stroke-width:8.64"/>
	<line x1="2678.20" y1="709.98" x2="2731.66" y2="688.44" style="stroke:#A0A0A0;stroke-width:8.64"/>
	<line x1="2758.39" y1="677.68" x2="2793.16" y2="663.69" style="stroke:#A0A0A0;stroke-width:8.64"/>
	<line x1="2793.16" y1="663.69" x2="2811.60" y2="656.02" style="stroke:#A0A0A0;stroke-width:8.64"/>
	<line x1="2838.33" y1="645.01" x2="2891.42" y2="622.85" style="stroke:#A0A0A0;stroke-width:8.64"/>
	<line x1="2918.15" y1="611.84" x2="2960.22" y2="594.39" style="stroke:#A0A0A0;stroke-width:8.64"/>
	<line x1="2960.22" y1="594.39" x2="2971.36" y2="589.93" style="stroke:#A0A0A0;stroke-width:8.64"/>
	<line x1="2998.09" y1="579.17" x2="3051.55" y2="557.76" style="stroke:#A0A0A0;stroke-width:8.64"/>
	<line x1="3078.28" y1="547.12" x2="3127.29" y2="527.32" style="stroke:#A0A0A0;stroke-width:8.64"/>
	<line x1="3127.29" y1="527.32" x2="3131.62" y2="525.58" style="stroke:#A0A0A0;stroke-width:8.64"/>
	<line x1="3158.35" y1="514.69" x2="3211.56" y2="492.91" style="stroke:#A0A0A0;stroke-width:8.64"/>
	<line x1="3238.29" y1="482.02" x2="3291.63" y2="460.24" style="stroke:#A0A0A0;stroke-width:8.64"/>
	<line x1="3318.11" y1="448.73" x2="3370.83" y2="425.59" style="stroke:#A0A0A0;stroke-width:8.64"/>
	<line x1="3397.19" y1="414.08" x2="3449.90" y2="390.94" style="stroke:#A0A0A0;stroke-width:8.64"/>
	<line x1="3476.14" y1="379.18" x2="3528.36" y2="355.05" style="stroke:#A0A0A0;stroke-width:8.64"/>
	<line x1="3554.60" y1="343.05" x2="3606.94" y2="318.91" style="stroke:#A0A0A0;stroke-width:8.64"/>
	<line x1="3633.05" y1="306.91" x2="3685.65" y2="283.27" style="stroke:#A0A0A0;stroke-width:8.64"/>
	<line x1="3711.88" y1="271.39" x2="3764.35" y2="247.76" style="stroke:#A0A0A0;stroke-width:8.64"/>
	<line x1="3790.59" y1="235.87" x2="3795.66" y2="233.65" style="stroke:#A0A0A0;stroke-width:8.64"/>
	<path d="" stroke-linejoin="round" style="fill:none;stroke:#A0A0A0;stroke-width:8.64"/>
	<line x1="967.23" y1="1709.66" x2="967.23" y2="1046.22" style="stroke:#808080;stroke-width:8.64"/>
	<line x1="1374.12" y1="1526.50" x2="1374.12" y2="1014.53" style="stroke:#808080;stroke-width:8.64"/>
	<line x1="1552.94" y1="1454.73" x2="1552.94" y2="1026.66" style="stroke:#808080;stroke-width:8.64"/>
	<line x1="1617.78" y1="1420.57" x2="1617.78" y2="995.35" style="stroke:#808080;stroke-width:8.64"/>
	<line x1="1836.70" y1="1369.58" x2="1836.70" y2="894.49" style="stroke:#808080;stroke-width:8.64"/>
	<line x1="1990.77" y1="1354.61" x2="1990.77" y2="899.69" style="stroke:#808080;stroke-width:8.64"/>
	<line x1="2155.97" y1="1326.39" x2="2155.97" y2="758.49" style="stroke:#808080;stroke-width:8.64"/>
	<line x1="2336.90" y1="1326.39" x2="2336.90" y2="693.39" style="stroke:#808080;stroke-width:8.64"/>
	<line x1="2572.76" y1="1202.15" x2="2572.76" y2="496.38" style="stroke:#808080;stroke-width:8.64"/>
	<line x1="3043.76" y1="1281.10" x2="3043.76" y2="264.09" style="stroke:#808080;stroke-width:8.64"/>
	<circle cx="967.11" cy="1370.57" r="10.38" style="fill:#404040"/>
	<circle cx="967.11" cy="1370.57" r="6.06" style="fill:none;stroke:#404040;stroke-width:8.64"/>
	<circle cx="1374.12" cy="1271.08" r="10.26" style="fill:#404040"/>
	<circle cx="1374.12" cy="1271.08" r="5.94" style="fill:none;stroke:#404040;stroke-width:8.64"/>
	<circle cx="1552.94" cy="1241.25" r="10.26" style="fill:#404040"/>
	<circle cx="1552.94" cy="1241.25" r="5.94" style="fill:none;stroke:#404040;stroke-width:8.64"/>
	<circle cx="1617.78" cy="1208.58" r="10.26" style="fill:#404040"/>
	<circle cx="1617.78" cy="1208.58" r="5.94" style="fill:none;stroke:#404040;stroke-width:8.64"/>
	<circle cx="1836.70" cy="1133.34" r="10.51" style="fill:#404040"/>
	<circle cx="1836.70" cy="1133.34" r="6.19" style="fill:none;stroke:#404040;stroke-width:8.64"/>
	<circle cx="1990.77" cy="1130.12" r="10.26" style="fill:#404040"/>
	<circle cx="1990.77" cy="1130.12" r="5.94" style="fill:none;stroke:#404040;stroke-width:8.64"/>
	<circle cx="2155.85" cy="1050.67" r="10.26" style="fill:#404040"/>
	<circle cx="2155.85" cy="1050.67" r="5.94" style="fill:none;stroke:#404040;stroke-width:8.64"/>
	<circle cx="2336.90" cy="1019.61" r="10.38" style="fill:#404040"/>
	<circle cx="2336.90" cy="1019.61" r="6.06" style="fill:none;stroke:#404040;stroke-width:8.64"/>
	<circle cx="2572.64" cy="858.85" r="10.26" style="fill:#404040"/>
	<circle cx="2572.64" cy="858.85" r="5.94" style="fill:none;stroke:#404040;stroke-width:8.64"/>
	<circle cx="3043.63" cy="802.92" r="10.14" style="fill:#404040"/>
	<circle cx="3043.63" cy="802.92" r="5.82" style="fill:none;stroke:#404040;stroke-width:8.64"/>
	<line x1="390.80" y1="2489.19" x2="390.80" y2="100.86" style="stroke:#000000;stroke-width:5.76"/>
	<line x1="390.80" y1="2425.82" x2="350.83" y2="2425.82" style="stroke:#000000;stroke-width:5.76"/>
	<text x="300.72" y="2425.82" style="font-family:'Helvetica';font-size:99.99px;fill:#000000" transform="rotate(-90 300.72,2425.82)" text-anchor="middle">-.0002</text>
	<line x1="390.80" y1="1911.01" x2="350.83" y2="1911.01" style="stroke:#000000;stroke-width:5.76"/>
	<text x="300.72" y="1911.01" style="font-family:'Helvetica';font-size:99.99px;fill:#000000" transform="rotate(-90 300.72,1911.01)" text-anchor="middle">-.0001</text>
	<line x1="390.80" y1="1396.19" x2="350.83" y2="1396.19" style="stroke:#000000;stroke-width:5.76"/>
	<text x="300.72" y="1396.19" style="font-family:'Helvetica';font-size:99.99px;fill:#000000" transform="rotate(-90 300.72,1396.19)" text-anchor="middle">0</text>
	<line x1="390.80" y1="881.50" x2="350.83" y2="881.50" style="stroke:#000000;stroke-width:5.76"/>
	<text x="300.72" y="881.50" style="font-family:'Helvetica';font-size:99.99px;fill:#000000" transform="rotate(-90 300.72,881.50)" text-anchor="middle">.0001</text>
	<line x1="390.80" y1="366.68" x2="350.83" y2="366.68" style="stroke:#000000;stroke-width:5.76"/>
	<text x="300.72" y="366.68" style="font-family:'Helvetica';font-size:99.99px;fill:#000000" transform="rotate(-90 300.72,366.68)" text-anchor="middle">.0002</text>
	<text x="190.71" y="1294.96" style="font-family:'Helvetica';font-size:99.99px;fill:#000000" transform="rotate(-90 190.71,1294.96)" text-anchor="middle">DAME/MEM of Days to Election</text>
	<line x1="390.80" y1="2489.19" x2="3859.02" y2="2489.19" style="stroke:#000000;stroke-width:5.76"/>
	<line x1="572.96" y1="2489.19" x2="572.96" y2="2529.16" style="stroke:#000000;stroke-width:5.76"/>
	<text x="572.96" y="2619.14" style="font-family:'Helvetica';font-size:99.99px;fill:#000000" text-anchor="middle">.2</text>
	<line x1="1586.48" y1="2489.19" x2="1586.48" y2="2529.16" style="stroke:#000000;stroke-width:5.76"/>
	<text x="1586.48" y="2619.14" style="font-family:'Helvetica';font-size:99.99px;fill:#000000" text-anchor="middle">.3</text>
	<line x1="2599.86" y1="2489.19" x2="2599.86" y2="2529.16" style="stroke:#000000;stroke-width:5.76"/>
	<text x="2599.86" y="2619.14" style="font-family:'Helvetica';font-size:99.99px;fill:#000000" text-anchor="middle">.4</text>
	<line x1="3613.25" y1="2489.19" x2="3613.25" y2="2529.16" style="stroke:#000000;stroke-width:5.76"/>
	<text x="3613.25" y="2619.14" style="font-family:'Helvetica';font-size:99.99px;fill:#000000" text-anchor="middle">.5</text>
	<text x="2124.91" y="2729.16" style="font-family:'Helvetica';font-size:99.99px;fill:#000000" text-anchor="middle">Democratic Vote Share</text>
</svg>
