<?xml version="1.0" encoding="UTF-8" standalone="no"?>
<!-- This is a Stata 17.0 generated SVG file (http://www.stata.com) -->

<svg version="1.1" width="5.500in" height="4.000in" viewBox="0 0 3960 2880" xmlns="http://www.w3.org/2000/svg" xmlns:xlink="http://www.w3.org/1999/xlink">
	<desc>Stata Graph - Graph</desc>
	<rect x="0" y="0" width="3960" height="2880" style="fill:#FFFFFF;stroke:none"/>
	<rect x="0.00" y="0.00" width="3959.88" height="2880.00" style="fill:#FFFFFF"/>
	<rect x="2.88" y="2.88" width="3954.12" height="2874.24" style="fill:none;stroke:#FFFFFF;stroke-width:5.76"/>
	<rect x="393.68" y="103.74" width="3462.46" height="2382.57" style="fill:none;stroke:#000000;stroke-width:5.76"/>
	<line x1="390.80" y1="1973.50" x2="3859.02" y2="1973.50" style="stroke:#FF0000;stroke-width:8.64"/>
	<path d=" M512.57 2023.38 L655.88 2010.26 L799.05 1994.54 L942.36 1976.10 L1085.66 1954.69 L1228.96 1930.31 L1372.14 1902.59 L1515.44 1871.53 L1658.75 1836.88 L1802.05 1798.64 L1945.23 1756.69 L2088.53 1710.90 L2231.83 1661.27 L2375.01 1607.81 L2518.31 1550.64 L2661.62 1489.63 L2804.92 1425.03 L2948.10 1356.96 L3091.40 1285.68 L3234.70 1211.30 L3378.00 1134.08" stroke-linejoin="round" style="fill:none;stroke:#606060;stroke-width:8.64"/>
	<line x1="512.57" y1="2207.52" x2="569.99" y2="2203.07" style="stroke:#A0A0A0;stroke-width:8.64"/>
	<line x1="598.70" y1="2200.96" x2="655.88" y2="2196.63" style="stroke:#A0A0A0;stroke-width:8.64"/>
	<line x1="655.88" y1="2196.63" x2="656.12" y2="2196.63" style="stroke:#A0A0A0;stroke-width:8.64"/>
	<line x1="684.83" y1="2193.91" x2="742.13" y2="2188.59" style="stroke:#A0A0A0;stroke-width:8.64"/>
	<line x1="770.84" y1="2185.86" x2="799.05" y2="2183.27" style="stroke:#A0A0A0;stroke-width:8.64"/>
	<line x1="799.05" y1="2183.27" x2="828.01" y2="2180.05" style="stroke:#A0A0A0;stroke-width:8.64"/>
	<line x1="856.72" y1="2176.95" x2="914.02" y2="2170.64" style="stroke:#A0A0A0;stroke-width:8.64"/>
	<line x1="942.60" y1="2167.55" x2="999.78" y2="2160.37" style="stroke:#A0A0A0;stroke-width:8.64"/>
	<line x1="1028.36" y1="2156.78" x2="1085.41" y2="2149.60" style="stroke:#A0A0A0;stroke-width:8.64"/>
	<line x1="1114.00" y1="2145.77" x2="1171.05" y2="2137.85" style="stroke:#A0A0A0;stroke-width:8.64"/>
	<line x1="1199.63" y1="2134.01" x2="1228.96" y2="2129.93" style="stroke:#A0A0A0;stroke-width:8.64"/>
	<line x1="1228.96" y1="2129.93" x2="1256.56" y2="2125.97" style="stroke:#A0A0A0;stroke-width:8.64"/>
	<line x1="1285.14" y1="2121.76" x2="1342.07" y2="2113.34" style="stroke:#A0A0A0;stroke-width:8.64"/>
	<line x1="1370.53" y1="2109.26" x2="1372.14" y2="2109.01" style="stroke:#A0A0A0;stroke-width:8.64"/>
	<line x1="1372.14" y1="2109.01" x2="1427.58" y2="2100.72" style="stroke:#A0A0A0;stroke-width:8.64"/>
	<line x1="1456.04" y1="2096.39" x2="1512.97" y2="2087.85" style="stroke:#A0A0A0;stroke-width:8.64"/>
	<line x1="1541.43" y1="2083.52" x2="1598.36" y2="2074.98" style="stroke:#A0A0A0;stroke-width:8.64"/>
	<line x1="1626.94" y1="2070.65" x2="1658.75" y2="2065.82" style="stroke:#A0A0A0;stroke-width:8.64"/>
	<line x1="1658.75" y1="2065.82" x2="1683.74" y2="2062.11" style="stroke:#A0A0A0;stroke-width:8.64"/>
	<line x1="1712.33" y1="2057.90" x2="1769.25" y2="2049.36" style="stroke:#A0A0A0;stroke-width:8.64"/>
	<line x1="1797.84" y1="2045.16" x2="1802.05" y2="2044.54" style="stroke:#A0A0A0;stroke-width:8.64"/>
	<line x1="1802.05" y1="2044.54" x2="1854.77" y2="2036.99" style="stroke:#A0A0A0;stroke-width:8.64"/>
	<line x1="1883.35" y1="2033.03" x2="1940.40" y2="2024.86" style="stroke:#A0A0A0;stroke-width:8.64"/>
	<line x1="1968.86" y1="2021.02" x2="2025.91" y2="2013.48" style="stroke:#A0A0A0;stroke-width:8.64"/>
	<line x1="2054.50" y1="2009.64" x2="2088.53" y2="2005.06" style="stroke:#A0A0A0;stroke-width:8.64"/>
	<line x1="2088.53" y1="2005.06" x2="2111.55" y2="2002.21" style="stroke:#A0A0A0;stroke-width:8.64"/>
	<line x1="2140.13" y1="1998.62" x2="2197.30" y2="1991.45" style="stroke:#A0A0A0;stroke-width:8.64"/>
	<line x1="2225.89" y1="1987.86" x2="2231.83" y2="1987.12" style="stroke:#A0A0A0;stroke-width:8.64"/>
	<line x1="2231.83" y1="1987.12" x2="2283.06" y2="1981.18" style="stroke:#A0A0A0;stroke-width:8.64"/>
	<line x1="2311.77" y1="1977.96" x2="2368.95" y2="1971.40" style="stroke:#A0A0A0;stroke-width:8.64"/>
	<line x1="2397.53" y1="1968.18" x2="2454.83" y2="1961.99" style="stroke:#A0A0A0;stroke-width:8.64"/>
	<line x1="2483.42" y1="1959.02" x2="2518.31" y2="1955.31" style="stroke:#A0A0A0;stroke-width:8.64"/>
	<line x1="2518.31" y1="1955.31" x2="2540.71" y2="1953.08" style="stroke:#A0A0A0;stroke-width:8.64"/>
	<line x1="2569.42" y1="1950.24" x2="2626.72" y2="1944.67" style="stroke:#A0A0A0;stroke-width:8.64"/>
	<line x1="2655.43" y1="1941.82" x2="2661.62" y2="1941.20" style="stroke:#A0A0A0;stroke-width:8.64"/>
	<line x1="2661.62" y1="1941.20" x2="2712.85" y2="1936.62" style="stroke:#A0A0A0;stroke-width:8.64"/>
	<line x1="2741.56" y1="1934.03" x2="2798.85" y2="1928.95" style="stroke:#A0A0A0;stroke-width:8.64"/>
	<line x1="2827.56" y1="1926.48" x2="2884.98" y2="1921.65" style="stroke:#A0A0A0;stroke-width:8.64"/>
	<line x1="2913.69" y1="1919.17" x2="2948.10" y2="1916.33" style="stroke:#A0A0A0;stroke-width:8.64"/>
	<line x1="2948.10" y1="1916.33" x2="2971.11" y2="1914.60" style="stroke:#A0A0A0;stroke-width:8.64"/>
	<line x1="2999.82" y1="1912.37" x2="3057.24" y2="1907.91" style="stroke:#A0A0A0;stroke-width:8.64"/>
	<line x1="3085.95" y1="1905.81" x2="3091.40" y2="1905.31" style="stroke:#A0A0A0;stroke-width:8.64"/>
	<line x1="3091.40" y1="1905.31" x2="3143.37" y2="1901.60" style="stroke:#A0A0A0;stroke-width:8.64"/>
	<line x1="3172.08" y1="1899.50" x2="3229.50" y2="1895.41" style="stroke:#A0A0A0;stroke-width:8.64"/>
	<line x1="3258.34" y1="1893.43" x2="3315.76" y2="1889.72" style="stroke:#A0A0A0;stroke-width:8.64"/>
	<line x1="3344.47" y1="1887.74" x2="3378.00" y2="1885.51" style="stroke:#A0A0A0;stroke-width:8.64"/>
	<path d="" stroke-linejoin="round" style="fill:none;stroke:#A0A0A0;stroke-width:8.64"/>
	<line x1="512.57" y1="1839.35" x2="569.75" y2="1833.17" style="stroke:#A0A0A0;stroke-width:8.64"/>
	<line x1="598.33" y1="1830.07" x2="655.63" y2="1823.76" style="stroke:#A0A0A0;stroke-width:8.64"/>
	<line x1="684.21" y1="1820.17" x2="741.26" y2="1812.99" style="stroke:#A0A0A0;stroke-width:8.64"/>
	<line x1="769.85" y1="1809.41" x2="799.05" y2="1805.69" style="stroke:#A0A0A0;stroke-width:8.64"/>
	<line x1="799.05" y1="1805.69" x2="826.90" y2="1801.61" style="stroke:#A0A0A0;stroke-width:8.64"/>
	<line x1="855.36" y1="1797.40" x2="912.41" y2="1788.99" style="stroke:#A0A0A0;stroke-width:8.64"/>
	<line x1="940.87" y1="1784.78" x2="942.36" y2="1784.65" style="stroke:#A0A0A0;stroke-width:8.64"/>
	<line x1="942.36" y1="1784.65" x2="997.67" y2="1775.13" style="stroke:#A0A0A0;stroke-width:8.64"/>
	<line x1="1026.01" y1="1770.18" x2="1082.69" y2="1760.28" style="stroke:#A0A0A0;stroke-width:8.64"/>
	<line x1="1111.03" y1="1754.58" x2="1167.46" y2="1743.20" style="stroke:#A0A0A0;stroke-width:8.64"/>
	<line x1="1195.67" y1="1737.38" x2="1228.96" y2="1730.57" style="stroke:#A0A0A0;stroke-width:8.64"/>
	<line x1="1228.96" y1="1730.57" x2="1251.86" y2="1725.13" style="stroke:#A0A0A0;stroke-width:8.64"/>
	<line x1="1279.82" y1="1718.32" x2="1335.88" y2="1704.83" style="stroke:#A0A0A0;stroke-width:8.64"/>
	<line x1="1363.85" y1="1698.15" x2="1372.14" y2="1696.17" style="stroke:#A0A0A0;stroke-width:8.64"/>
	<line x1="1372.14" y1="1696.17" x2="1419.41" y2="1682.81" style="stroke:#A0A0A0;stroke-width:8.64"/>
	<line x1="1447.13" y1="1675.01" x2="1502.45" y2="1659.29" style="stroke:#A0A0A0;stroke-width:8.64"/>
	<line x1="1530.05" y1="1650.75" x2="1584.62" y2="1632.56" style="stroke:#A0A0A0;stroke-width:8.64"/>
	<line x1="1611.97" y1="1623.53" x2="1658.75" y2="1608.06" style="stroke:#A0A0A0;stroke-width:8.64"/>
	<line x1="1658.75" y1="1608.06" x2="1666.54" y2="1605.09" style="stroke:#A0A0A0;stroke-width:8.64"/>
	<line x1="1693.40" y1="1594.69" x2="1747.10" y2="1574.03" style="stroke:#A0A0A0;stroke-width:8.64"/>
	<line x1="1774.08" y1="1563.63" x2="1802.05" y2="1552.86" style="stroke:#A0A0A0;stroke-width:8.64"/>
	<line x1="1802.05" y1="1552.86" x2="1827.17" y2="1541.60" style="stroke:#A0A0A0;stroke-width:8.64"/>
	<line x1="1853.53" y1="1529.97" x2="1906.12" y2="1506.58" style="stroke:#A0A0A0;stroke-width:8.64"/>
	<line x1="1932.48" y1="1494.82" x2="1945.23" y2="1489.13" style="stroke:#A0A0A0;stroke-width:8.64"/>
	<line x1="1945.23" y1="1489.13" x2="1984.08" y2="1469.58" style="stroke:#A0A0A0;stroke-width:8.64"/>
	<line x1="2009.82" y1="1456.58" x2="2061.30" y2="1430.59" style="stroke:#A0A0A0;stroke-width:8.64"/>
	<line x1="2086.92" y1="1417.72" x2="2088.53" y2="1416.86" style="stroke:#A0A0A0;stroke-width:8.64"/>
	<line x1="2088.53" y1="1416.86" x2="2137.04" y2="1389.26" style="stroke:#A0A0A0;stroke-width:8.64"/>
	<line x1="2162.16" y1="1375.03" x2="2212.16" y2="1346.69" style="stroke:#A0A0A0;stroke-width:8.64"/>
	<line x1="2237.03" y1="1332.09" x2="2285.66" y2="1301.40" style="stroke:#A0A0A0;stroke-width:8.64"/>
	<line x1="2310.04" y1="1286.05" x2="2358.80" y2="1255.36" style="stroke:#A0A0A0;stroke-width:8.64"/>
	<line x1="2382.93" y1="1239.64" x2="2430.20" y2="1206.85" style="stroke:#A0A0A0;stroke-width:8.64"/>
	<line x1="2453.96" y1="1190.51" x2="2501.24" y2="1157.72" style="stroke:#A0A0A0;stroke-width:8.64"/>
	<line x1="2524.75" y1="1141.13" x2="2570.78" y2="1106.48" style="stroke:#A0A0A0;stroke-width:8.64"/>
	<line x1="2593.80" y1="1089.16" x2="2639.84" y2="1054.51" style="stroke:#A0A0A0;stroke-width:8.64"/>
	<line x1="2662.73" y1="1037.06" x2="2707.53" y2="1000.80" style="stroke:#A0A0A0;stroke-width:8.64"/>
	<line x1="2729.93" y1="982.73" x2="2774.60" y2="946.47" style="stroke:#A0A0A0;stroke-width:8.64"/>
	<line x1="2797.00" y1="928.28" x2="2804.92" y2="921.84" style="stroke:#A0A0A0;stroke-width:8.64"/>
	<line x1="2804.92" y1="921.84" x2="2840.68" y2="890.78" style="stroke:#A0A0A0;stroke-width:8.64"/>
	<line x1="2862.46" y1="871.97" x2="2906.02" y2="834.22" style="stroke:#A0A0A0;stroke-width:8.64"/>
	<line x1="2927.80" y1="815.29" x2="2948.10" y2="797.72" style="stroke:#A0A0A0;stroke-width:8.64"/>
	<line x1="2948.10" y1="797.72" x2="2970.62" y2="776.93" style="stroke:#A0A0A0;stroke-width:8.64"/>
	<line x1="2991.90" y1="757.37" x2="3034.23" y2="718.51" style="stroke:#A0A0A0;stroke-width:8.64"/>
	<line x1="3055.51" y1="698.96" x2="3091.40" y2="666.04" style="stroke:#A0A0A0;stroke-width:8.64"/>
	<line x1="3091.40" y1="666.04" x2="3097.71" y2="659.86" style="stroke:#A0A0A0;stroke-width:8.64"/>
	<line x1="3118.50" y1="639.81" x2="3159.96" y2="599.83" style="stroke:#A0A0A0;stroke-width:8.64"/>
	<line x1="3180.62" y1="579.79" x2="3221.96" y2="539.81" style="stroke:#A0A0A0;stroke-width:8.64"/>
	<line x1="3242.62" y1="519.64" x2="3282.96" y2="478.68" style="stroke:#A0A0A0;stroke-width:8.64"/>
	<line x1="3303.26" y1="458.26" x2="3343.73" y2="417.30" style="stroke:#A0A0A0;stroke-width:8.64"/>
	<line x1="3364.02" y1="396.88" x2="3378.00" y2="382.65" style="stroke:#A0A0A0;stroke-width:8.64"/>
	<path d="" stroke-linejoin="round" style="fill:none;stroke:#A0A0A0;stroke-width:8.64"/>
	<line x1="621.23" y1="2162.72" x2="621.23" y2="1854.82" style="stroke:#808080;stroke-width:8.64"/>
	<line x1="671.34" y1="2122.01" x2="671.34" y2="1872.77" style="stroke:#808080;stroke-width:8.64"/>
	<line x1="855.11" y1="2163.34" x2="855.11" y2="1815.35" style="stroke:#808080;stroke-width:8.64"/>
	<line x1="921.94" y1="2161.98" x2="921.94" y2="1798.76" style="stroke:#808080;stroke-width:8.64"/>
	<line x1="947.06" y1="2135.87" x2="947.06" y2="1802.48" style="stroke:#808080;stroke-width:8.64"/>
	<line x1="1197.65" y1="2080.92" x2="1197.65" y2="1803.09" style="stroke:#808080;stroke-width:8.64"/>
	<line x1="3378.00" y1="1939.47" x2="3378.00" y2="1249.17" style="stroke:#808080;stroke-width:8.64"/>
	<circle cx="621.10" cy="2008.77" r="21.89" style="fill:#404040"/>
	<circle cx="621.10" cy="2008.77" r="17.57" style="fill:none;stroke:#404040;stroke-width:8.64"/>
	<circle cx="671.22" cy="1997.51" r="10.14" style="fill:#404040"/>
	<circle cx="671.22" cy="1997.51" r="5.82" style="fill:none;stroke:#404040;stroke-width:8.64"/>
	<circle cx="855.11" cy="1989.34" r="18.18" style="fill:#404040"/>
	<circle cx="855.11" cy="1989.34" r="13.86" style="fill:none;stroke:#404040;stroke-width:8.64"/>
	<circle cx="921.94" cy="1980.43" r="16.20" style="fill:#404040"/>
	<circle cx="921.94" cy="1980.43" r="11.88" style="fill:none;stroke:#404040;stroke-width:8.64"/>
	<circle cx="946.94" cy="1969.17" r="12.73" style="fill:#404040"/>
	<circle cx="946.94" cy="1969.17" r="8.41" style="fill:none;stroke:#404040;stroke-width:8.64"/>
	<circle cx="1197.53" cy="1942.07" r="15.21" style="fill:#404040"/>
	<circle cx="1197.53" cy="1942.07" r="10.89" style="fill:none;stroke:#404040;stroke-width:8.64"/>
	<circle cx="3378.00" cy="1594.44" r="18.55" style="fill:#404040"/>
	<circle cx="3378.00" cy="1594.44" r="14.23" style="fill:none;stroke:#404040;stroke-width:8.64"/>
	<line x1="390.80" y1="2489.19" x2="390.80" y2="100.86" style="stroke:#000000;stroke-width:5.76"/>
	<line x1="390.80" y1="2425.82" x2="350.83" y2="2425.82" style="stroke:#000000;stroke-width:5.76"/>
	<text x="300.72" y="2425.82" style="font-family:'Helvetica';font-size:99.99px;fill:#000000" transform="rotate(-90 300.72,2425.82)" text-anchor="middle">-.002</text>
	<line x1="390.80" y1="1973.50" x2="350.83" y2="1973.50" style="stroke:#000000;stroke-width:5.76"/>
	<text x="300.72" y="1973.50" style="font-family:'Helvetica';font-size:99.99px;fill:#000000" transform="rotate(-90 300.72,1973.50)" text-anchor="middle">0</text>
	<line x1="390.80" y1="1521.18" x2="350.83" y2="1521.18" style="stroke:#000000;stroke-width:5.76"/>
	<text x="300.72" y="1521.18" style="font-family:'Helvetica';font-size:99.99px;fill:#000000" transform="rotate(-90 300.72,1521.18)" text-anchor="middle">.002</text>
	<line x1="390.80" y1="1068.86" x2="350.83" y2="1068.86" style="stroke:#000000;stroke-width:5.76"/>
	<text x="300.72" y="1068.86" style="font-family:'Helvetica';font-size:99.99px;fill:#000000" transform="rotate(-90 300.72,1068.86)" text-anchor="middle">.004</text>
	<line x1="390.80" y1="616.54" x2="350.83" y2="616.54" style="stroke:#000000;stroke-width:5.76"/>
	<text x="300.72" y="616.54" style="font-family:'Helvetica';font-size:99.99px;fill:#000000" transform="rotate(-90 300.72,616.54)" text-anchor="middle">.006</text>
	<line x1="390.80" y1="164.22" x2="350.83" y2="164.22" style="stroke:#000000;stroke-width:5.76"/>
	<text x="300.72" y="164.22" style="font-family:'Helvetica';font-size:99.99px;fill:#000000" transform="rotate(-90 300.72,164.22)" text-anchor="middle">.008</text>
	<text x="190.71" y="1294.96" style="font-family:'Helvetica';font-size:99.99px;fill:#000000" transform="rotate(-90 190.71,1294.96)" text-anchor="middle">ME of polarization</text>
	<line x1="390.80" y1="2489.19" x2="3859.02" y2="2489.19" style="stroke:#000000;stroke-width:5.76"/>
	<line x1="454.16" y1="2489.19" x2="454.16" y2="2529.16" style="stroke:#000000;stroke-width:5.76"/>
	<text x="454.16" y="2619.14" style="font-family:'Helvetica';font-size:99.99px;fill:#000000" text-anchor="middle">0</text>
	<line x1="1289.47" y1="2489.19" x2="1289.47" y2="2529.16" style="stroke:#000000;stroke-width:5.76"/>
	<text x="1289.47" y="2619.14" style="font-family:'Helvetica';font-size:99.99px;fill:#000000" text-anchor="middle">10</text>
	<line x1="2124.91" y1="2489.19" x2="2124.91" y2="2529.16" style="stroke:#000000;stroke-width:5.76"/>
	<text x="2124.91" y="2619.14" style="font-family:'Helvetica';font-size:99.99px;fill:#000000" text-anchor="middle">20</text>
	<line x1="2960.35" y1="2489.19" x2="2960.35" y2="2529.16" style="stroke:#000000;stroke-width:5.76"/>
	<text x="2960.35" y="2619.14" style="font-family:'Helvetica';font-size:99.99px;fill:#000000" text-anchor="middle">30</text>
	<line x1="3795.66" y1="2489.19" x2="3795.66" y2="2529.16" style="stroke:#000000;stroke-width:5.76"/>
	<text x="3795.66" y="2619.14" style="font-family:'Helvetica';font-size:99.99px;fill:#000000" text-anchor="middle">40</text>
	<text x="2124.91" y="2729.16" style="font-family:'Helvetica';font-size:99.99px;fill:#000000" text-anchor="middle">Effective Electoral Threshold</text>
</svg>
