<?xml version="1.0" encoding="UTF-8" standalone="no"?>
<!-- This is a Stata 17.0 generated SVG file (http://www.stata.com) -->

<svg version="1.1" width="5.500in" height="4.000in" viewBox="0 0 3960 2880" xmlns="http://www.w3.org/2000/svg" xmlns:xlink="http://www.w3.org/1999/xlink">
	<desc>Stata Graph - Graph</desc>
	<rect x="0" y="0" width="3960" height="2880" style="fill:#FFFFFF;stroke:none"/>
	<rect x="0.00" y="0.00" width="3959.88" height="2880.00" style="fill:#FFFFFF"/>
	<rect x="2.88" y="2.88" width="3954.12" height="2874.24" style="fill:none;stroke:#FFFFFF;stroke-width:5.76"/>
	<rect x="393.68" y="103.74" width="3462.46" height="2382.57" style="fill:none;stroke:#000000;stroke-width:5.76"/>
	<line x1="390.80" y1="682.50" x2="3859.02" y2="682.50" style="stroke:#FF0000;stroke-width:8.64"/>
	<path d=" M871.82 1107.10 L1289.47 1611.77 L1707.13 2005.18 L2124.91 2196.14 L2542.57 2133.27 L2960.22 1846.66 L3378.00 1449.53 L3795.66 1082.60" stroke-linejoin="round" style="fill:none;stroke:#606060;stroke-width:8.64"/>
	<line x1="871.82" y1="1996.15" x2="924.04" y2="2020.41" style="stroke:#A0A0A0;stroke-width:8.64"/>
	<line x1="950.15" y1="2032.53" x2="1002.38" y2="2056.79" style="stroke:#A0A0A0;stroke-width:8.64"/>
	<line x1="1028.49" y1="2068.92" x2="1080.71" y2="2093.17" style="stroke:#A0A0A0;stroke-width:8.64"/>
	<line x1="1106.82" y1="2105.30" x2="1159.04" y2="2129.56" style="stroke:#A0A0A0;stroke-width:8.64"/>
	<line x1="1185.15" y1="2141.68" x2="1237.38" y2="2165.94" style="stroke:#A0A0A0;stroke-width:8.64"/>
	<line x1="1263.49" y1="2178.07" x2="1289.47" y2="2190.07" style="stroke:#A0A0A0;stroke-width:8.64"/>
	<line x1="1289.47" y1="2190.07" x2="1316.45" y2="2200.47" style="stroke:#A0A0A0;stroke-width:8.64"/>
	<line x1="1343.43" y1="2210.74" x2="1397.14" y2="2231.41" style="stroke:#A0A0A0;stroke-width:8.64"/>
	<line x1="1424.12" y1="2241.68" x2="1477.82" y2="2262.34" style="stroke:#A0A0A0;stroke-width:8.64"/>
	<line x1="1504.80" y1="2272.62" x2="1558.51" y2="2293.28" style="stroke:#A0A0A0;stroke-width:8.64"/>
	<line x1="1585.36" y1="2303.55" x2="1639.19" y2="2324.22" style="stroke:#A0A0A0;stroke-width:8.64"/>
	<line x1="1666.05" y1="2334.49" x2="1707.13" y2="2350.33" style="stroke:#A0A0A0;stroke-width:8.64"/>
	<line x1="1707.13" y1="2350.33" x2="1720.50" y2="2352.81" style="stroke:#A0A0A0;stroke-width:8.64"/>
	<line x1="1748.84" y1="2357.88" x2="1805.51" y2="2368.15" style="stroke:#A0A0A0;stroke-width:8.64"/>
	<line x1="1833.73" y1="2373.23" x2="1890.41" y2="2383.50" style="stroke:#A0A0A0;stroke-width:8.64"/>
	<line x1="1918.74" y1="2388.57" x2="1975.42" y2="2398.84" style="stroke:#A0A0A0;stroke-width:8.64"/>
	<line x1="2003.76" y1="2403.92" x2="2060.44" y2="2414.19" style="stroke:#A0A0A0;stroke-width:8.64"/>
	<line x1="2088.78" y1="2419.39" x2="2124.91" y2="2425.95" style="stroke:#A0A0A0;stroke-width:8.64"/>
	<line x1="2124.91" y1="2425.95" x2="2145.08" y2="2420.38" style="stroke:#A0A0A0;stroke-width:8.64"/>
	<line x1="2172.80" y1="2412.71" x2="2228.37" y2="2397.48" style="stroke:#A0A0A0;stroke-width:8.64"/>
	<line x1="2256.09" y1="2389.93" x2="2311.65" y2="2374.71" style="stroke:#A0A0A0;stroke-width:8.64"/>
	<line x1="2339.37" y1="2367.04" x2="2394.93" y2="2351.82" style="stroke:#A0A0A0;stroke-width:8.64"/>
	<line x1="2422.65" y1="2344.15" x2="2478.22" y2="2328.92" style="stroke:#A0A0A0;stroke-width:8.64"/>
	<line x1="2505.94" y1="2321.25" x2="2542.57" y2="2311.23" style="stroke:#A0A0A0;stroke-width:8.64"/>
	<line x1="2542.57" y1="2311.23" x2="2558.16" y2="2299.35" style="stroke:#A0A0A0;stroke-width:8.64"/>
	<line x1="2581.05" y1="2281.90" x2="2626.84" y2="2246.88" style="stroke:#A0A0A0;stroke-width:8.64"/>
	<line x1="2649.74" y1="2229.43" x2="2695.52" y2="2194.53" style="stroke:#A0A0A0;stroke-width:8.64"/>
	<line x1="2718.42" y1="2177.08" x2="2764.08" y2="2142.18" style="stroke:#A0A0A0;stroke-width:8.64"/>
	<line x1="2787.10" y1="2124.61" x2="2832.76" y2="2089.71" style="stroke:#A0A0A0;stroke-width:8.64"/>
	<line x1="2855.66" y1="2072.26" x2="2901.44" y2="2037.36" style="stroke:#A0A0A0;stroke-width:8.64"/>
	<line x1="2924.34" y1="2019.91" x2="2960.22" y2="1992.44" style="stroke:#A0A0A0;stroke-width:8.64"/>
	<line x1="2960.22" y1="1992.44" x2="2969.51" y2="1984.15" style="stroke:#A0A0A0;stroke-width:8.64"/>
	<line x1="2990.79" y1="1964.72" x2="3033.36" y2="1925.98" style="stroke:#A0A0A0;stroke-width:8.64"/>
	<line x1="3054.65" y1="1906.55" x2="3097.22" y2="1867.82" style="stroke:#A0A0A0;stroke-width:8.64"/>
	<line x1="3118.62" y1="1848.51" x2="3161.19" y2="1809.78" style="stroke:#A0A0A0;stroke-width:8.64"/>
	<line x1="3182.48" y1="1790.35" x2="3225.05" y2="1751.49" style="stroke:#A0A0A0;stroke-width:8.64"/>
	<line x1="3246.46" y1="1732.06" x2="3289.03" y2="1693.32" style="stroke:#A0A0A0;stroke-width:8.64"/>
	<line x1="3310.31" y1="1673.89" x2="3352.88" y2="1635.04" style="stroke:#A0A0A0;stroke-width:8.64"/>
	<line x1="3374.17" y1="1615.61" x2="3378.00" y2="1612.14" style="stroke:#A0A0A0;stroke-width:8.64"/>
	<line x1="3378.00" y1="1612.14" x2="3418.10" y2="1578.36" style="stroke:#A0A0A0;stroke-width:8.64"/>
	<line x1="3440.13" y1="1559.79" x2="3484.18" y2="1522.67" style="stroke:#A0A0A0;stroke-width:8.64"/>
	<line x1="3506.21" y1="1504.10" x2="3550.26" y2="1466.98" style="stroke:#A0A0A0;stroke-width:8.64"/>
	<line x1="3572.29" y1="1448.42" x2="3616.35" y2="1411.29" style="stroke:#A0A0A0;stroke-width:8.64"/>
	<line x1="3638.50" y1="1392.73" x2="3682.55" y2="1355.60" style="stroke:#A0A0A0;stroke-width:8.64"/>
	<line x1="3704.58" y1="1337.04" x2="3748.64" y2="1299.91" style="stroke:#A0A0A0;stroke-width:8.64"/>
	<line x1="3770.66" y1="1281.35" x2="3795.66" y2="1260.31" style="stroke:#A0A0A0;stroke-width:8.64"/>
	<path d="" stroke-linejoin="round" style="fill:none;stroke:#A0A0A0;stroke-width:8.64"/>
	<line x1="871.82" y1="218.18" x2="898.05" y2="269.41" style="stroke:#A0A0A0;stroke-width:8.64"/>
	<line x1="911.17" y1="295.03" x2="937.53" y2="346.26" style="stroke:#A0A0A0;stroke-width:8.64"/>
	<line x1="950.65" y1="372.00" x2="976.88" y2="423.24" style="stroke:#A0A0A0;stroke-width:8.64"/>
	<line x1="990.00" y1="448.86" x2="1016.36" y2="500.09" style="stroke:#A0A0A0;stroke-width:8.64"/>
	<line x1="1029.48" y1="525.71" x2="1055.71" y2="576.94" style="stroke:#A0A0A0;stroke-width:8.64"/>
	<line x1="1068.95" y1="602.68" x2="1095.19" y2="653.92" style="stroke:#A0A0A0;stroke-width:8.64"/>
	<line x1="1108.31" y1="679.53" x2="1134.54" y2="730.77" style="stroke:#A0A0A0;stroke-width:8.64"/>
	<line x1="1147.66" y1="756.38" x2="1173.89" y2="807.62" style="stroke:#A0A0A0;stroke-width:8.64"/>
	<line x1="1187.01" y1="833.23" x2="1213.24" y2="884.47" style="stroke:#A0A0A0;stroke-width:8.64"/>
	<line x1="1226.36" y1="910.21" x2="1252.60" y2="961.44" style="stroke:#A0A0A0;stroke-width:8.64"/>
	<line x1="1265.71" y1="987.06" x2="1289.47" y2="1033.47" style="stroke:#A0A0A0;stroke-width:8.64"/>
	<line x1="1289.47" y1="1033.47" x2="1292.45" y2="1038.05" style="stroke:#A0A0A0;stroke-width:8.64"/>
	<line x1="1308.41" y1="1062.06" x2="1340.34" y2="1109.82" style="stroke:#A0A0A0;stroke-width:8.64"/>
	<line x1="1356.30" y1="1133.83" x2="1388.23" y2="1181.73" style="stroke:#A0A0A0;stroke-width:8.64"/>
	<line x1="1404.19" y1="1205.73" x2="1436.12" y2="1253.63" style="stroke:#A0A0A0;stroke-width:8.64"/>
	<line x1="1452.08" y1="1277.63" x2="1484.01" y2="1325.53" style="stroke:#A0A0A0;stroke-width:8.64"/>
	<line x1="1499.97" y1="1349.54" x2="1531.90" y2="1397.43" style="stroke:#A0A0A0;stroke-width:8.64"/>
	<line x1="1547.87" y1="1421.44" x2="1579.79" y2="1469.33" style="stroke:#A0A0A0;stroke-width:8.64"/>
	<line x1="1595.88" y1="1493.34" x2="1627.68" y2="1541.23" style="stroke:#A0A0A0;stroke-width:8.64"/>
	<line x1="1643.65" y1="1565.12" x2="1675.70" y2="1613.01" style="stroke:#A0A0A0;stroke-width:8.64"/>
	<line x1="1691.66" y1="1637.02" x2="1707.13" y2="1660.16" style="stroke:#A0A0A0;stroke-width:8.64"/>
	<line x1="1707.13" y1="1660.16" x2="1731.14" y2="1677.73" style="stroke:#A0A0A0;stroke-width:8.64"/>
	<line x1="1754.40" y1="1694.81" x2="1800.81" y2="1728.84" style="stroke:#A0A0A0;stroke-width:8.64"/>
	<line x1="1824.08" y1="1745.92" x2="1870.48" y2="1779.83" style="stroke:#A0A0A0;stroke-width:8.64"/>
	<line x1="1893.75" y1="1796.91" x2="1940.28" y2="1830.94" style="stroke:#A0A0A0;stroke-width:8.64"/>
	<line x1="1963.54" y1="1848.02" x2="2009.95" y2="1882.05" style="stroke:#A0A0A0;stroke-width:8.64"/>
	<line x1="2033.21" y1="1899.13" x2="2079.62" y2="1933.16" style="stroke:#A0A0A0;stroke-width:8.64"/>
	<line x1="2102.88" y1="1950.11" x2="2124.91" y2="1966.33" style="stroke:#A0A0A0;stroke-width:8.64"/>
	<line x1="2124.91" y1="1966.33" x2="2155.11" y2="1965.46" style="stroke:#A0A0A0;stroke-width:8.64"/>
	<line x1="2183.94" y1="1964.84" x2="2241.48" y2="1963.23" style="stroke:#A0A0A0;stroke-width:8.64"/>
	<line x1="2270.32" y1="1962.49" x2="2327.99" y2="1961.00" style="stroke:#A0A0A0;stroke-width:8.64"/>
	<line x1="2356.70" y1="1960.26" x2="2414.36" y2="1958.65" style="stroke:#A0A0A0;stroke-width:8.64"/>
	<line x1="2443.20" y1="1957.91" x2="2500.62" y2="1956.42" style="stroke:#A0A0A0;stroke-width:8.64"/>
	<line x1="2529.45" y1="1955.68" x2="2542.57" y2="1955.31" style="stroke:#A0A0A0;stroke-width:8.64"/>
	<line x1="2542.57" y1="1955.31" x2="2580.56" y2="1932.17" style="stroke:#A0A0A0;stroke-width:8.64"/>
	<line x1="2605.19" y1="1917.19" x2="2654.31" y2="1887.25" style="stroke:#A0A0A0;stroke-width:8.64"/>
	<line x1="2678.94" y1="1872.27" x2="2728.19" y2="1842.32" style="stroke:#A0A0A0;stroke-width:8.64"/>
	<line x1="2752.70" y1="1827.35" x2="2801.95" y2="1797.40" style="stroke:#A0A0A0;stroke-width:8.64"/>
	<line x1="2826.57" y1="1782.43" x2="2875.70" y2="1752.48" style="stroke:#A0A0A0;stroke-width:8.64"/>
	<line x1="2900.33" y1="1737.50" x2="2949.46" y2="1707.56" style="stroke:#A0A0A0;stroke-width:8.64"/>
	<line x1="2971.73" y1="1689.61" x2="3012.69" y2="1649.02" style="stroke:#A0A0A0;stroke-width:8.64"/>
	<line x1="3033.11" y1="1628.72" x2="3073.95" y2="1588.26" style="stroke:#A0A0A0;stroke-width:8.64"/>
	<line x1="3094.49" y1="1567.96" x2="3135.33" y2="1527.49" style="stroke:#A0A0A0;stroke-width:8.64"/>
	<line x1="3155.87" y1="1507.20" x2="3196.71" y2="1466.61" style="stroke:#A0A0A0;stroke-width:8.64"/>
	<line x1="3217.13" y1="1446.31" x2="3258.09" y2="1405.84" style="stroke:#A0A0A0;stroke-width:8.64"/>
	<line x1="3278.51" y1="1385.55" x2="3319.35" y2="1344.96" style="stroke:#A0A0A0;stroke-width:8.64"/>
	<line x1="3339.89" y1="1324.66" x2="3378.00" y2="1286.79" style="stroke:#A0A0A0;stroke-width:8.64"/>
	<line x1="3378.00" y1="1286.79" x2="3380.85" y2="1284.19" style="stroke:#A0A0A0;stroke-width:8.64"/>
	<line x1="3402.01" y1="1264.76" x2="3444.58" y2="1225.91" style="stroke:#A0A0A0;stroke-width:8.64"/>
	<line x1="3465.74" y1="1206.48" x2="3508.31" y2="1167.62" style="stroke:#A0A0A0;stroke-width:8.64"/>
	<line x1="3529.47" y1="1148.19" x2="3571.92" y2="1109.33" style="stroke:#A0A0A0;stroke-width:8.64"/>
	<line x1="3593.21" y1="1089.90" x2="3635.78" y2="1050.92" style="stroke:#A0A0A0;stroke-width:8.64"/>
	<line x1="3657.06" y1="1031.49" x2="3699.51" y2="992.63" style="stroke:#A0A0A0;stroke-width:8.64"/>
	<line x1="3720.79" y1="973.20" x2="3763.24" y2="934.34" style="stroke:#A0A0A0;stroke-width:8.64"/>
	<line x1="3784.52" y1="914.91" x2="3795.66" y2="904.76" style="stroke:#A0A0A0;stroke-width:8.64"/>
	<path d="" stroke-linejoin="round" style="fill:none;stroke:#A0A0A0;stroke-width:8.64"/>
	<line x1="871.82" y1="2023.75" x2="871.82" y2="209.39" style="stroke:#808080;stroke-width:8.64"/>
	<line x1="1289.47" y1="2184.87" x2="1289.47" y2="1034.46" style="stroke:#808080;stroke-width:8.64"/>
	<line x1="1707.26" y1="2266.80" x2="1707.26" y2="1614.86" style="stroke:#808080;stroke-width:8.64"/>
	<line x1="2124.91" y1="2316.92" x2="2124.91" y2="1887.12" style="stroke:#808080;stroke-width:8.64"/>
	<line x1="2542.57" y1="2341.30" x2="2542.57" y2="1980.93" style="stroke:#808080;stroke-width:8.64"/>
	<line x1="2960.35" y1="2247.62" x2="2960.35" y2="1901.23" style="stroke:#808080;stroke-width:8.64"/>
	<line x1="3378.00" y1="1910.39" x2="3378.00" y2="1480.34" style="stroke:#808080;stroke-width:8.64"/>
	<line x1="3795.66" y1="1461.53" x2="3795.66" y2="979.02" style="stroke:#808080;stroke-width:8.64"/>
	<circle cx="871.82" cy="1116.63" r="10.14" style="fill:#404040"/>
	<circle cx="871.82" cy="1116.63" r="5.82" style="fill:none;stroke:#404040;stroke-width:8.64"/>
	<circle cx="1289.47" cy="1609.67" r="12.49" style="fill:#404040"/>
	<circle cx="1289.47" cy="1609.67" r="8.17" style="fill:none;stroke:#404040;stroke-width:8.64"/>
	<circle cx="1707.13" cy="1940.96" r="15.33" style="fill:#404040"/>
	<circle cx="1707.13" cy="1940.96" r="11.01" style="fill:none;stroke:#404040;stroke-width:8.64"/>
	<circle cx="2124.91" cy="2102.08" r="20.53" style="fill:#404040"/>
	<circle cx="2124.91" cy="2102.08" r="16.21" style="fill:none;stroke:#404040;stroke-width:8.64"/>
	<circle cx="2542.57" cy="2161.24" r="33.40" style="fill:#404040"/>
	<circle cx="2542.57" cy="2161.24" r="29.08" style="fill:none;stroke:#404040;stroke-width:8.64"/>
	<circle cx="2960.22" cy="2074.49" r="25.73" style="fill:#404040"/>
	<circle cx="2960.22" cy="2074.49" r="21.41" style="fill:none;stroke:#404040;stroke-width:8.64"/>
	<circle cx="3378.00" cy="1695.43" r="19.66" style="fill:#404040"/>
	<circle cx="3378.00" cy="1695.43" r="15.35" style="fill:none;stroke:#404040;stroke-width:8.64"/>
	<circle cx="3795.66" cy="1220.34" r="17.44" style="fill:#404040"/>
	<circle cx="3795.66" cy="1220.34" r="13.12" style="fill:none;stroke:#404040;stroke-width:8.64"/>
	<line x1="390.80" y1="2489.19" x2="390.80" y2="100.86" style="stroke:#000000;stroke-width:5.76"/>
	<line x1="390.80" y1="2237.59" x2="350.83" y2="2237.59" style="stroke:#000000;stroke-width:5.76"/>
	<text x="300.72" y="2237.59" style="font-family:'Helvetica';font-size:99.99px;fill:#000000" transform="rotate(-90 300.72,2237.59)" text-anchor="middle">-.003</text>
	<line x1="390.80" y1="1719.19" x2="350.83" y2="1719.19" style="stroke:#000000;stroke-width:5.76"/>
	<text x="300.72" y="1719.19" style="font-family:'Helvetica';font-size:99.99px;fill:#000000" transform="rotate(-90 300.72,1719.19)" text-anchor="middle">-.002</text>
	<line x1="390.80" y1="1200.91" x2="350.83" y2="1200.91" style="stroke:#000000;stroke-width:5.76"/>
	<text x="300.72" y="1200.91" style="font-family:'Helvetica';font-size:99.99px;fill:#000000" transform="rotate(-90 300.72,1200.91)" text-anchor="middle">-.001</text>
	<line x1="390.80" y1="682.50" x2="350.83" y2="682.50" style="stroke:#000000;stroke-width:5.76"/>
	<text x="300.72" y="682.50" style="font-family:'Helvetica';font-size:99.99px;fill:#000000" transform="rotate(-90 300.72,682.50)" text-anchor="middle">0</text>
	<line x1="390.80" y1="164.22" x2="350.83" y2="164.22" style="stroke:#000000;stroke-width:5.76"/>
	<text x="300.72" y="164.22" style="font-family:'Helvetica';font-size:99.99px;fill:#000000" transform="rotate(-90 300.72,164.22)" text-anchor="middle">.001</text>
	<text x="190.71" y="1294.96" style="font-family:'Helvetica';font-size:99.99px;fill:#000000" transform="rotate(-90 190.71,1294.96)" text-anchor="middle">ME of Closing Date</text>
	<line x1="390.80" y1="2489.19" x2="3859.02" y2="2489.19" style="stroke:#000000;stroke-width:5.76"/>
	<line x1="454.16" y1="2489.19" x2="454.16" y2="2529.16" style="stroke:#000000;stroke-width:5.76"/>
	<text x="454.16" y="2619.14" style="font-family:'Helvetica';font-size:99.99px;fill:#000000" text-anchor="middle">0</text>
	<line x1="1289.47" y1="2489.19" x2="1289.47" y2="2529.16" style="stroke:#000000;stroke-width:5.76"/>
	<text x="1289.47" y="2619.14" style="font-family:'Helvetica';font-size:99.99px;fill:#000000" text-anchor="middle">2</text>
	<line x1="2124.91" y1="2489.19" x2="2124.91" y2="2529.16" style="stroke:#000000;stroke-width:5.76"/>
	<text x="2124.91" y="2619.14" style="font-family:'Helvetica';font-size:99.99px;fill:#000000" text-anchor="middle">4</text>
	<line x1="2960.35" y1="2489.19" x2="2960.35" y2="2529.16" style="stroke:#000000;stroke-width:5.76"/>
	<text x="2960.35" y="2619.14" style="font-family:'Helvetica';font-size:99.99px;fill:#000000" text-anchor="middle">6</text>
	<line x1="3795.66" y1="2489.19" x2="3795.66" y2="2529.16" style="stroke:#000000;stroke-width:5.76"/>
	<text x="3795.66" y="2619.14" style="font-family:'Helvetica';font-size:99.99px;fill:#000000" text-anchor="middle">8</text>
	<text x="2124.91" y="2729.16" style="font-family:'Helvetica';font-size:99.99px;fill:#000000" text-anchor="middle">Education</text>
</svg>
