<?xml version="1.0" encoding="UTF-8" standalone="no"?>
<!-- This is a Stata 17.0 generated SVG file (http://www.stata.com) -->

<svg version="1.1" width="5.500in" height="4.000in" viewBox="0 0 3960 2880" xmlns="http://www.w3.org/2000/svg" xmlns:xlink="http://www.w3.org/1999/xlink">
	<desc>Stata Graph - Graph</desc>
	<rect x="0" y="0" width="3960" height="2880" style="fill:#FFFFFF;stroke:none"/>
	<rect x="0.00" y="0.00" width="3959.88" height="2880.00" style="fill:#FFFFFF"/>
	<rect x="2.88" y="2.88" width="3954.12" height="2874.24" style="fill:none;stroke:#FFFFFF;stroke-width:5.76"/>
	<rect x="393.68" y="103.74" width="3462.46" height="2382.57" style="fill:none;stroke:#000000;stroke-width:5.76"/>
	<line x1="390.80" y1="681.64" x2="3859.02" y2="681.64" style="stroke:#FF0000;stroke-width:8.64"/>
	<path d=" M871.82 1102.40 L1017.97 1285.06 L1164.12 1461.78 L1310.39 1628.72 L1456.54 1781.68 L1602.69 1916.45 L1748.96 2029.07 L1895.11 2115.70 L2041.38 2173.37 L2187.53 2199.97 L2333.68 2194.65 L2479.95 2157.77 L2626.10 2091.32 L2772.25 1998.75 L2918.52 1884.52 L3064.67 1754.58 L3210.94 1614.99 L3357.09 1472.42 L3503.24 1333.08 L3649.51 1202.39 L3795.66 1084.46" stroke-linejoin="round" style="fill:none;stroke:#606060;stroke-width:8.64"/>
	<line x1="871.82" y1="1993.18" x2="924.04" y2="2017.31" style="stroke:#A0A0A0;stroke-width:8.64"/>
	<line x1="950.28" y1="2029.32" x2="1002.50" y2="2053.45" style="stroke:#A0A0A0;stroke-width:8.64"/>
	<line x1="1028.61" y1="2065.82" x2="1080.21" y2="2091.44" style="stroke:#A0A0A0;stroke-width:8.64"/>
	<line x1="1105.95" y1="2104.19" x2="1157.56" y2="2129.80" style="stroke:#A0A0A0;stroke-width:8.64"/>
	<line x1="1183.79" y1="2141.93" x2="1236.14" y2="2165.82" style="stroke:#A0A0A0;stroke-width:8.64"/>
	<line x1="1262.37" y1="2177.70" x2="1310.39" y2="2199.60" style="stroke:#A0A0A0;stroke-width:8.64"/>
	<line x1="1310.39" y1="2199.60" x2="1314.84" y2="2201.46" style="stroke:#A0A0A0;stroke-width:8.64"/>
	<line x1="1341.45" y1="2212.72" x2="1394.42" y2="2235.12" style="stroke:#A0A0A0;stroke-width:8.64"/>
	<line x1="1420.90" y1="2246.38" x2="1456.54" y2="2261.48" style="stroke:#A0A0A0;stroke-width:8.64"/>
	<line x1="1456.54" y1="2261.48" x2="1473.99" y2="2268.53" style="stroke:#A0A0A0;stroke-width:8.64"/>
	<line x1="1500.84" y1="2279.30" x2="1554.18" y2="2300.83" style="stroke:#A0A0A0;stroke-width:8.64"/>
	<line x1="1580.91" y1="2311.60" x2="1602.69" y2="2320.39" style="stroke:#A0A0A0;stroke-width:8.64"/>
	<line x1="1602.69" y1="2320.39" x2="1635.11" y2="2330.90" style="stroke:#A0A0A0;stroke-width:8.64"/>
	<line x1="1662.46" y1="2339.94" x2="1717.16" y2="2357.76" style="stroke:#A0A0A0;stroke-width:8.64"/>
	<line x1="1744.63" y1="2366.67" x2="1748.96" y2="2368.15" style="stroke:#A0A0A0;stroke-width:8.64"/>
	<line x1="1748.96" y1="2368.15" x2="1800.32" y2="2381.02" style="stroke:#A0A0A0;stroke-width:8.64"/>
	<line x1="1828.28" y1="2388.08" x2="1884.22" y2="2402.06" style="stroke:#A0A0A0;stroke-width:8.64"/>
	<line x1="1912.56" y1="2407.14" x2="1969.61" y2="2414.69" style="stroke:#A0A0A0;stroke-width:8.64"/>
	<line x1="1998.19" y1="2418.40" x2="2041.38" y2="2424.09" style="stroke:#A0A0A0;stroke-width:8.64"/>
	<line x1="2041.38" y1="2424.09" x2="2055.36" y2="2424.34" style="stroke:#A0A0A0;stroke-width:8.64"/>
	<line x1="2084.20" y1="2424.59" x2="2141.74" y2="2425.33" style="stroke:#A0A0A0;stroke-width:8.64"/>
	<line x1="2170.57" y1="2425.70" x2="2187.53" y2="2425.95" style="stroke:#A0A0A0;stroke-width:8.64"/>
	<line x1="2187.53" y1="2425.95" x2="2227.62" y2="2419.26" style="stroke:#A0A0A0;stroke-width:8.64"/>
	<line x1="2256.09" y1="2414.44" x2="2312.76" y2="2405.03" style="stroke:#A0A0A0;stroke-width:8.64"/>
	<line x1="2340.86" y1="2398.84" x2="2394.69" y2="2378.30" style="stroke:#A0A0A0;stroke-width:8.64"/>
	<line x1="2421.54" y1="2368.03" x2="2475.37" y2="2347.49" style="stroke:#A0A0A0;stroke-width:8.64"/>
	<line x1="2500.74" y1="2333.75" x2="2550.61" y2="2305.16" style="stroke:#A0A0A0;stroke-width:8.64"/>
	<line x1="2575.61" y1="2290.81" x2="2625.48" y2="2262.22" style="stroke:#A0A0A0;stroke-width:8.64"/>
	<line x1="2648.99" y1="2245.27" x2="2695.52" y2="2211.36" style="stroke:#A0A0A0;stroke-width:8.64"/>
	<line x1="2718.79" y1="2194.53" x2="2765.44" y2="2160.62" style="stroke:#A0A0A0;stroke-width:8.64"/>
	<line x1="2787.84" y1="2142.55" x2="2831.77" y2="2105.30" style="stroke:#A0A0A0;stroke-width:8.64"/>
	<line x1="2853.80" y1="2086.74" x2="2897.73" y2="2049.61" style="stroke:#A0A0A0;stroke-width:8.64"/>
	<line x1="2919.76" y1="2030.92" x2="2962.70" y2="1992.56" style="stroke:#A0A0A0;stroke-width:8.64"/>
	<line x1="2984.23" y1="1973.38" x2="3027.05" y2="1935.02" style="stroke:#A0A0A0;stroke-width:8.64"/>
	<line x1="3048.58" y1="1915.83" x2="3064.67" y2="1901.35" style="stroke:#A0A0A0;stroke-width:8.64"/>
	<line x1="3064.67" y1="1901.35" x2="3090.90" y2="1876.85" style="stroke:#A0A0A0;stroke-width:8.64"/>
	<line x1="3111.94" y1="1857.17" x2="3154.02" y2="1817.82" style="stroke:#A0A0A0;stroke-width:8.64"/>
	<line x1="3175.05" y1="1798.14" x2="3210.94" y2="1764.61" style="stroke:#A0A0A0;stroke-width:8.64"/>
	<line x1="3210.94" y1="1764.61" x2="3217.13" y2="1758.91" style="stroke:#A0A0A0;stroke-width:8.64"/>
	<line x1="3238.41" y1="1739.48" x2="3280.74" y2="1700.50" style="stroke:#A0A0A0;stroke-width:8.64"/>
	<line x1="3302.02" y1="1680.95" x2="3344.34" y2="1642.09" style="stroke:#A0A0A0;stroke-width:8.64"/>
	<line x1="3365.75" y1="1622.78" x2="3408.94" y2="1584.67" style="stroke:#A0A0A0;stroke-width:8.64"/>
	<line x1="3430.60" y1="1565.61" x2="3473.79" y2="1527.49" style="stroke:#A0A0A0;stroke-width:8.64"/>
	<line x1="3495.44" y1="1508.44" x2="3503.24" y2="1501.51" style="stroke:#A0A0A0;stroke-width:8.64"/>
	<line x1="3503.24" y1="1501.51" x2="3539.00" y2="1470.81" style="stroke:#A0A0A0;stroke-width:8.64"/>
	<line x1="3560.91" y1="1452.13" x2="3604.59" y2="1414.63" style="stroke:#A0A0A0;stroke-width:8.64"/>
	<line x1="3626.49" y1="1395.82" x2="3649.51" y2="1376.14" style="stroke:#A0A0A0;stroke-width:8.64"/>
	<line x1="3649.51" y1="1376.14" x2="3670.80" y2="1359.19" style="stroke:#A0A0A0;stroke-width:8.64"/>
	<line x1="3693.32" y1="1341.12" x2="3738.24" y2="1305.23" style="stroke:#A0A0A0;stroke-width:8.64"/>
	<line x1="3760.76" y1="1287.29" x2="3795.66" y2="1259.32" style="stroke:#A0A0A0;stroke-width:8.64"/>
	<path d="" stroke-linejoin="round" style="fill:none;stroke:#A0A0A0;stroke-width:8.64"/>
	<line x1="871.82" y1="209.39" x2="897.44" y2="261.00" style="stroke:#A0A0A0;stroke-width:8.64"/>
	<line x1="910.31" y1="286.74" x2="935.92" y2="338.22" style="stroke:#A0A0A0;stroke-width:8.64"/>
	<line x1="948.79" y1="364.08" x2="974.41" y2="415.69" style="stroke:#A0A0A0;stroke-width:8.64"/>
	<line x1="987.15" y1="441.43" x2="1012.89" y2="493.04" style="stroke:#A0A0A0;stroke-width:8.64"/>
	<line x1="1025.64" y1="518.78" x2="1051.50" y2="570.26" style="stroke:#A0A0A0;stroke-width:8.64"/>
	<line x1="1064.37" y1="596.00" x2="1090.11" y2="647.48" style="stroke:#A0A0A0;stroke-width:8.64"/>
	<line x1="1102.98" y1="673.34" x2="1128.72" y2="724.83" style="stroke:#A0A0A0;stroke-width:8.64"/>
	<line x1="1141.59" y1="750.57" x2="1164.12" y2="795.49" style="stroke:#A0A0A0;stroke-width:8.64"/>
	<line x1="1164.12" y1="795.49" x2="1167.58" y2="801.93" style="stroke:#A0A0A0;stroke-width:8.64"/>
	<line x1="1181.19" y1="827.42" x2="1208.42" y2="878.16" style="stroke:#A0A0A0;stroke-width:8.64"/>
	<line x1="1222.16" y1="903.53" x2="1249.26" y2="954.27" style="stroke:#A0A0A0;stroke-width:8.64"/>
	<line x1="1262.99" y1="979.64" x2="1290.09" y2="1030.50" style="stroke:#A0A0A0;stroke-width:8.64"/>
	<line x1="1303.71" y1="1055.87" x2="1310.39" y2="1068.24" style="stroke:#A0A0A0;stroke-width:8.64"/>
	<line x1="1310.39" y1="1068.24" x2="1332.66" y2="1105.74" style="stroke:#A0A0A0;stroke-width:8.64"/>
	<line x1="1347.27" y1="1130.49" x2="1376.72" y2="1179.99" style="stroke:#A0A0A0;stroke-width:8.64"/>
	<line x1="1391.32" y1="1204.87" x2="1420.77" y2="1254.37" style="stroke:#A0A0A0;stroke-width:8.64"/>
	<line x1="1435.50" y1="1279.12" x2="1456.54" y2="1314.64" style="stroke:#A0A0A0;stroke-width:8.64"/>
	<line x1="1456.54" y1="1314.64" x2="1465.70" y2="1328.13" style="stroke:#A0A0A0;stroke-width:8.64"/>
	<line x1="1482.03" y1="1351.89" x2="1514.45" y2="1399.53" style="stroke:#A0A0A0;stroke-width:8.64"/>
	<line x1="1530.66" y1="1423.29" x2="1563.21" y2="1470.94" style="stroke:#A0A0A0;stroke-width:8.64"/>
	<line x1="1579.42" y1="1494.70" x2="1602.69" y2="1528.86" style="stroke:#A0A0A0;stroke-width:8.64"/>
	<line x1="1602.69" y1="1528.86" x2="1613.21" y2="1541.35" style="stroke:#A0A0A0;stroke-width:8.64"/>
	<line x1="1631.64" y1="1563.38" x2="1668.77" y2="1607.56" style="stroke:#A0A0A0;stroke-width:8.64"/>
	<line x1="1687.21" y1="1629.59" x2="1724.21" y2="1673.65" style="stroke:#A0A0A0;stroke-width:8.64"/>
	<line x1="1742.77" y1="1695.80" x2="1748.96" y2="1703.10" style="stroke:#A0A0A0;stroke-width:8.64"/>
	<line x1="1748.96" y1="1703.10" x2="1784.60" y2="1735.28" style="stroke:#A0A0A0;stroke-width:8.64"/>
	<line x1="1805.88" y1="1754.58" x2="1848.70" y2="1793.07" style="stroke:#A0A0A0;stroke-width:8.64"/>
	<line x1="1870.11" y1="1812.38" x2="1895.11" y2="1835.02" style="stroke:#A0A0A0;stroke-width:8.64"/>
	<line x1="1895.11" y1="1835.02" x2="1915.28" y2="1847.65" style="stroke:#A0A0A0;stroke-width:8.64"/>
	<line x1="1939.66" y1="1862.99" x2="1988.42" y2="1893.68" style="stroke:#A0A0A0;stroke-width:8.64"/>
	<line x1="2012.79" y1="1909.03" x2="2041.38" y2="1926.97" style="stroke:#A0A0A0;stroke-width:8.64"/>
	<line x1="2041.38" y1="1926.97" x2="2063.90" y2="1934.64" style="stroke:#A0A0A0;stroke-width:8.64"/>
	<line x1="2091.25" y1="1943.93" x2="2145.82" y2="1962.37" style="stroke:#A0A0A0;stroke-width:8.64"/>
	<line x1="2173.05" y1="1971.65" x2="2187.53" y2="1976.60" style="stroke:#A0A0A0;stroke-width:8.64"/>
	<line x1="2187.53" y1="1976.60" x2="2229.60" y2="1980.31" style="stroke:#A0A0A0;stroke-width:8.64"/>
	<line x1="2258.31" y1="1982.91" x2="2315.73" y2="1987.98" style="stroke:#A0A0A0;stroke-width:8.64"/>
	<line x1="2344.32" y1="1988.23" x2="2401.37" y2="1980.56" style="stroke:#A0A0A0;stroke-width:8.64"/>
	<line x1="2429.96" y1="1976.72" x2="2479.95" y2="1970.04" style="stroke:#A0A0A0;stroke-width:8.64"/>
	<line x1="2479.95" y1="1970.04" x2="2486.76" y2="1967.69" style="stroke:#A0A0A0;stroke-width:8.64"/>
	<line x1="2513.86" y1="1958.03" x2="2568.18" y2="1938.98" style="stroke:#A0A0A0;stroke-width:8.64"/>
	<line x1="2595.41" y1="1929.45" x2="2626.10" y2="1918.68" style="stroke:#A0A0A0;stroke-width:8.64"/>
	<line x1="2626.10" y1="1918.68" x2="2648.25" y2="1907.05" style="stroke:#A0A0A0;stroke-width:8.64"/>
	<line x1="2673.74" y1="1893.68" x2="2724.73" y2="1866.83" style="stroke:#A0A0A0;stroke-width:8.64"/>
	<line x1="2750.22" y1="1853.46" x2="2772.25" y2="1841.83" style="stroke:#A0A0A0;stroke-width:8.64"/>
	<line x1="2772.25" y1="1841.83" x2="2798.85" y2="1822.89" style="stroke:#A0A0A0;stroke-width:8.64"/>
	<line x1="2822.37" y1="1806.19" x2="2869.27" y2="1772.77" style="stroke:#A0A0A0;stroke-width:8.64"/>
	<line x1="2892.66" y1="1756.07" x2="2918.52" y2="1737.63" style="stroke:#A0A0A0;stroke-width:8.64"/>
	<line x1="2918.52" y1="1737.63" x2="2937.95" y2="1720.67" style="stroke:#A0A0A0;stroke-width:8.64"/>
	<line x1="2959.61" y1="1701.62" x2="3002.92" y2="1663.75" style="stroke:#A0A0A0;stroke-width:8.64"/>
	<line x1="3024.70" y1="1644.69" x2="3064.67" y2="1609.67" style="stroke:#A0A0A0;stroke-width:8.64"/>
	<line x1="3064.67" y1="1609.67" x2="3067.76" y2="1606.57" style="stroke:#A0A0A0;stroke-width:8.64"/>
	<line x1="3088.31" y1="1586.28" x2="3129.14" y2="1545.69" style="stroke:#A0A0A0;stroke-width:8.64"/>
	<line x1="3149.56" y1="1525.51" x2="3190.52" y2="1484.92" style="stroke:#A0A0A0;stroke-width:8.64"/>
	<line x1="3210.94" y1="1464.63" x2="3210.94" y2="1464.63" style="stroke:#A0A0A0;stroke-width:8.64"/>
	<line x1="3210.94" y1="1464.63" x2="3251.04" y2="1423.17" style="stroke:#A0A0A0;stroke-width:8.64"/>
	<line x1="3270.96" y1="1402.50" x2="3310.93" y2="1361.05" style="stroke:#A0A0A0;stroke-width:8.64"/>
	<line x1="3330.98" y1="1340.38" x2="3357.09" y2="1313.40" style="stroke:#A0A0A0;stroke-width:8.64"/>
	<line x1="3357.09" y1="1313.40" x2="3371.20" y2="1299.04" style="stroke:#A0A0A0;stroke-width:8.64"/>
	<line x1="3391.37" y1="1278.50" x2="3431.71" y2="1237.41" style="stroke:#A0A0A0;stroke-width:8.64"/>
	<line x1="3452.01" y1="1216.87" x2="3492.35" y2="1175.79" style="stroke:#A0A0A0;stroke-width:8.64"/>
	<line x1="3512.89" y1="1155.61" x2="3554.97" y2="1116.26" style="stroke:#A0A0A0;stroke-width:8.64"/>
	<line x1="3575.88" y1="1096.58" x2="3617.96" y2="1057.23" style="stroke:#A0A0A0;stroke-width:8.64"/>
	<line x1="3639.12" y1="1037.55" x2="3649.51" y2="1027.78" style="stroke:#A0A0A0;stroke-width:8.64"/>
	<line x1="3649.51" y1="1027.78" x2="3682.92" y2="1000.43" style="stroke:#A0A0A0;stroke-width:8.64"/>
	<line x1="3705.20" y1="982.11" x2="3749.75" y2="945.60" style="stroke:#A0A0A0;stroke-width:8.64"/>
	<line x1="3772.02" y1="927.41" x2="3795.66" y2="907.98" style="stroke:#A0A0A0;stroke-width:8.64"/>
	<path d="" stroke-linejoin="round" style="fill:none;stroke:#A0A0A0;stroke-width:8.64"/>
	<line x1="871.82" y1="2015.08" x2="871.82" y2="196.03" style="stroke:#808080;stroke-width:8.64"/>
	<line x1="1289.47" y1="2187.35" x2="1289.47" y2="1030.75" style="stroke:#808080;stroke-width:8.64"/>
	<line x1="1707.26" y1="2273.36" x2="1707.26" y2="1611.15" style="stroke:#808080;stroke-width:8.64"/>
	<line x1="2124.91" y1="2318.53" x2="2124.91" y2="1881.68" style="stroke:#808080;stroke-width:8.64"/>
	<line x1="2542.57" y1="2341.18" x2="2542.57" y2="1976.23" style="stroke:#808080;stroke-width:8.64"/>
	<line x1="2960.35" y1="2246.50" x2="2960.35" y2="1902.34" style="stroke:#808080;stroke-width:8.64"/>
	<line x1="3378.00" y1="1909.77" x2="3378.00" y2="1485.05" style="stroke:#808080;stroke-width:8.64"/>
	<line x1="3795.66" y1="1461.90" x2="3795.66" y2="984.59" style="stroke:#808080;stroke-width:8.64"/>
	<circle cx="871.82" cy="1110.94" r="10.14" style="fill:#404040"/>
	<circle cx="871.82" cy="1110.94" r="5.82" style="fill:none;stroke:#404040;stroke-width:8.64"/>
	<circle cx="1289.47" cy="1603.48" r="12.49" style="fill:#404040"/>
	<circle cx="1289.47" cy="1603.48" r="8.17" style="fill:none;stroke:#404040;stroke-width:8.64"/>
	<circle cx="1707.13" cy="1935.76" r="15.33" style="fill:#404040"/>
	<circle cx="1707.13" cy="1935.76" r="11.01" style="fill:none;stroke:#404040;stroke-width:8.64"/>
	<circle cx="2124.91" cy="2097.88" r="20.53" style="fill:#404040"/>
	<circle cx="2124.91" cy="2097.88" r="16.21" style="fill:none;stroke:#404040;stroke-width:8.64"/>
	<circle cx="2542.57" cy="2159.13" r="33.40" style="fill:#404040"/>
	<circle cx="2542.57" cy="2159.13" r="29.08" style="fill:none;stroke:#404040;stroke-width:8.64"/>
	<circle cx="2960.22" cy="2074.61" r="25.73" style="fill:#404040"/>
	<circle cx="2960.22" cy="2074.61" r="21.41" style="fill:none;stroke:#404040;stroke-width:8.64"/>
	<circle cx="3378.00" cy="1697.78" r="19.66" style="fill:#404040"/>
	<circle cx="3378.00" cy="1697.78" r="15.35" style="fill:none;stroke:#404040;stroke-width:8.64"/>
	<circle cx="3795.66" cy="1222.81" r="17.44" style="fill:#404040"/>
	<circle cx="3795.66" cy="1222.81" r="13.12" style="fill:none;stroke:#404040;stroke-width:8.64"/>
	<line x1="390.80" y1="2489.19" x2="390.80" y2="100.86" style="stroke:#000000;stroke-width:5.76"/>
	<line x1="390.80" y1="2234.00" x2="350.83" y2="2234.00" style="stroke:#000000;stroke-width:5.76"/>
	<text x="300.72" y="2234.00" style="font-family:'Helvetica';font-size:99.99px;fill:#000000" transform="rotate(-90 300.72,2234.00)" text-anchor="middle">-.003</text>
	<line x1="390.80" y1="1716.47" x2="350.83" y2="1716.47" style="stroke:#000000;stroke-width:5.76"/>
	<text x="300.72" y="1716.47" style="font-family:'Helvetica';font-size:99.99px;fill:#000000" transform="rotate(-90 300.72,1716.47)" text-anchor="middle">-.002</text>
	<line x1="390.80" y1="1199.05" x2="350.83" y2="1199.05" style="stroke:#000000;stroke-width:5.76"/>
	<text x="300.72" y="1199.05" style="font-family:'Helvetica';font-size:99.99px;fill:#000000" transform="rotate(-90 300.72,1199.05)" text-anchor="middle">-.001</text>
	<line x1="390.80" y1="681.64" x2="350.83" y2="681.64" style="stroke:#000000;stroke-width:5.76"/>
	<text x="300.72" y="681.64" style="font-family:'Helvetica';font-size:99.99px;fill:#000000" transform="rotate(-90 300.72,681.64)" text-anchor="middle">0</text>
	<line x1="390.80" y1="164.22" x2="350.83" y2="164.22" style="stroke:#000000;stroke-width:5.76"/>
	<text x="300.72" y="164.22" style="font-family:'Helvetica';font-size:99.99px;fill:#000000" transform="rotate(-90 300.72,164.22)" text-anchor="middle">.001</text>
	<text x="190.71" y="1294.96" style="font-family:'Helvetica';font-size:99.99px;fill:#000000" transform="rotate(-90 190.71,1294.96)" text-anchor="middle">DAME/MEM of Closing date</text>
	<line x1="390.80" y1="2489.19" x2="3859.02" y2="2489.19" style="stroke:#000000;stroke-width:5.76"/>
	<line x1="454.16" y1="2489.19" x2="454.16" y2="2529.16" style="stroke:#000000;stroke-width:5.76"/>
	<text x="454.16" y="2619.14" style="font-family:'Helvetica';font-size:99.99px;fill:#000000" text-anchor="middle">0</text>
	<line x1="1289.47" y1="2489.19" x2="1289.47" y2="2529.16" style="stroke:#000000;stroke-width:5.76"/>
	<text x="1289.47" y="2619.14" style="font-family:'Helvetica';font-size:99.99px;fill:#000000" text-anchor="middle">2</text>
	<line x1="2124.91" y1="2489.19" x2="2124.91" y2="2529.16" style="stroke:#000000;stroke-width:5.76"/>
	<text x="2124.91" y="2619.14" style="font-family:'Helvetica';font-size:99.99px;fill:#000000" text-anchor="middle">4</text>
	<line x1="2960.35" y1="2489.19" x2="2960.35" y2="2529.16" style="stroke:#000000;stroke-width:5.76"/>
	<text x="2960.35" y="2619.14" style="font-family:'Helvetica';font-size:99.99px;fill:#000000" text-anchor="middle">6</text>
	<line x1="3795.66" y1="2489.19" x2="3795.66" y2="2529.16" style="stroke:#000000;stroke-width:5.76"/>
	<text x="3795.66" y="2619.14" style="font-family:'Helvetica';font-size:99.99px;fill:#000000" text-anchor="middle">8</text>
	<text x="2124.91" y="2729.16" style="font-family:'Helvetica';font-size:99.99px;fill:#000000" text-anchor="middle">Education</text>
</svg>
