<?xml version="1.0" encoding="UTF-8" standalone="no"?>
<!-- This is a Stata 17.0 generated SVG file (http://www.stata.com) -->

<svg version="1.1" width="5.500in" height="4.000in" viewBox="0 0 3960 2880" xmlns="http://www.w3.org/2000/svg" xmlns:xlink="http://www.w3.org/1999/xlink">
	<desc>Stata Graph - Graph</desc>
	<rect x="0" y="0" width="3960" height="2880" style="fill:#FFFFFF;stroke:none"/>
	<rect x="0.00" y="0.00" width="3959.88" height="2880.00" style="fill:#FFFFFF"/>
	<rect x="2.88" y="2.88" width="3954.12" height="2874.24" style="fill:none;stroke:#FFFFFF;stroke-width:5.76"/>
	<rect x="393.68" y="103.74" width="3462.46" height="2382.57" style="fill:none;stroke:#000000;stroke-width:5.76"/>
	<line x1="390.80" y1="-2083.89" x2="3859.02" y2="-2083.89" style="stroke:#FF0000;stroke-width:8.64"/>
	<path d=" M454.04 2145.27 L621.10 2060.87 L788.29 1976.47 L955.35 1892.07 L1122.41 1807.67 L1289.47 1723.52 L1456.54 1639.61 L1623.60 1555.96 L1790.66 1472.67 L1957.85 1390.00 L2124.91 1307.83 L2291.97 1226.15 L2459.04 1145.34 L2626.10 1065.40 L2793.16 986.19 L2960.22 907.98 L3127.29 830.88 L3294.47 755.02 L3461.54 680.28 L3628.60 606.89 L3795.66 534.74" stroke-linejoin="round" style="fill:none;stroke:#606060;stroke-width:8.64"/>
	<line x1="454.04" y1="2424.59" x2="503.17" y2="2394.64" style="stroke:#A0A0A0;stroke-width:8.64"/>
	<line x1="527.79" y1="2379.54" x2="576.92" y2="2349.59" style="stroke:#A0A0A0;stroke-width:8.64"/>
	<line x1="601.55" y1="2334.49" x2="621.10" y2="2322.61" style="stroke:#A0A0A0;stroke-width:8.64"/>
	<line x1="621.10" y1="2322.61" x2="650.55" y2="2304.42" style="stroke:#A0A0A0;stroke-width:8.64"/>
	<line x1="675.06" y1="2289.20" x2="723.94" y2="2258.88" style="stroke:#A0A0A0;stroke-width:8.64"/>
	<line x1="748.44" y1="2243.66" x2="788.29" y2="2218.91" style="stroke:#A0A0A0;stroke-width:8.64"/>
	<line x1="788.29" y1="2218.91" x2="797.32" y2="2213.21" style="stroke:#A0A0A0;stroke-width:8.64"/>
	<line x1="821.70" y1="2197.99" x2="870.58" y2="2167.55" style="stroke:#A0A0A0;stroke-width:8.64"/>
	<line x1="894.96" y1="2152.33" x2="943.84" y2="2121.88" style="stroke:#A0A0A0;stroke-width:8.64"/>
	<line x1="968.47" y1="2106.66" x2="1017.47" y2="2076.47" style="stroke:#A0A0A0;stroke-width:8.64"/>
	<line x1="1041.97" y1="2061.37" x2="1090.98" y2="2031.17" style="stroke:#A0A0A0;stroke-width:8.64"/>
	<line x1="1115.48" y1="2016.07" x2="1122.41" y2="2011.74" style="stroke:#A0A0A0;stroke-width:8.64"/>
	<line x1="1122.41" y1="2011.74" x2="1164.49" y2="1985.88" style="stroke:#A0A0A0;stroke-width:8.64"/>
	<line x1="1189.11" y1="1970.90" x2="1238.24" y2="1940.83" style="stroke:#A0A0A0;stroke-width:8.64"/>
	<line x1="1262.74" y1="1925.61" x2="1289.47" y2="1909.27" style="stroke:#A0A0A0;stroke-width:8.64"/>
	<line x1="1289.47" y1="1909.27" x2="1311.87" y2="1895.66" style="stroke:#A0A0A0;stroke-width:8.64"/>
	<line x1="1336.50" y1="1880.69" x2="1385.63" y2="1850.62" style="stroke:#A0A0A0;stroke-width:8.64"/>
	<line x1="1410.13" y1="1835.64" x2="1456.54" y2="1807.30" style="stroke:#A0A0A0;stroke-width:8.64"/>
	<line x1="1456.54" y1="1807.30" x2="1459.38" y2="1805.69" style="stroke:#A0A0A0;stroke-width:8.64"/>
	<line x1="1484.13" y1="1790.97" x2="1533.63" y2="1761.64" style="stroke:#A0A0A0;stroke-width:8.64"/>
	<line x1="1558.51" y1="1746.91" x2="1608.01" y2="1717.46" style="stroke:#A0A0A0;stroke-width:8.64"/>
	<line x1="1632.76" y1="1702.85" x2="1682.51" y2="1673.77" style="stroke:#A0A0A0;stroke-width:8.64"/>
	<line x1="1707.38" y1="1659.29" x2="1757.13" y2="1630.33" style="stroke:#A0A0A0;stroke-width:8.64"/>
	<line x1="1782.00" y1="1615.85" x2="1790.66" y2="1610.78" style="stroke:#A0A0A0;stroke-width:8.64"/>
	<line x1="1790.66" y1="1610.78" x2="1832.61" y2="1588.26" style="stroke:#A0A0A0;stroke-width:8.64"/>
	<line x1="1857.86" y1="1574.52" x2="1908.60" y2="1547.29" style="stroke:#A0A0A0;stroke-width:8.64"/>
	<line x1="1933.97" y1="1533.56" x2="1957.85" y2="1520.81" style="stroke:#A0A0A0;stroke-width:8.64"/>
	<line x1="1957.85" y1="1520.81" x2="1985.07" y2="1507.07" style="stroke:#A0A0A0;stroke-width:8.64"/>
	<line x1="2010.81" y1="1493.96" x2="2062.17" y2="1467.97" style="stroke:#A0A0A0;stroke-width:8.64"/>
	<line x1="2087.79" y1="1454.97" x2="2124.91" y2="1436.29" style="stroke:#A0A0A0;stroke-width:8.64"/>
	<line x1="2124.91" y1="1436.29" x2="2139.39" y2="1429.36" style="stroke:#A0A0A0;stroke-width:8.64"/>
	<line x1="2165.50" y1="1416.98" x2="2217.48" y2="1392.35" style="stroke:#A0A0A0;stroke-width:8.64"/>
	<line x1="2243.46" y1="1379.98" x2="2291.97" y2="1356.96" style="stroke:#A0A0A0;stroke-width:8.64"/>
	<line x1="2291.97" y1="1356.96" x2="2295.56" y2="1355.35" style="stroke:#A0A0A0;stroke-width:8.64"/>
	<line x1="2322.17" y1="1344.34" x2="2375.26" y2="1322.06" style="stroke:#A0A0A0;stroke-width:8.64"/>
	<line x1="2401.86" y1="1310.92" x2="2454.95" y2="1288.77" style="stroke:#A0A0A0;stroke-width:8.64"/>
	<line x1="2481.81" y1="1278.38" x2="2535.51" y2="1257.71" style="stroke:#A0A0A0;stroke-width:8.64"/>
	<line x1="2562.37" y1="1247.44" x2="2616.20" y2="1226.77" style="stroke:#A0A0A0;stroke-width:8.64"/>
	<line x1="2643.30" y1="1216.87" x2="2697.63" y2="1197.94" style="stroke:#A0A0A0;stroke-width:8.64"/>
	<line x1="2724.85" y1="1188.41" x2="2779.30" y2="1169.35" style="stroke:#A0A0A0;stroke-width:8.64"/>
	<line x1="2806.65" y1="1160.44" x2="2861.60" y2="1143.36" style="stroke:#A0A0A0;stroke-width:8.64"/>
	<line x1="2889.19" y1="1134.82" x2="2944.14" y2="1117.87" style="stroke:#A0A0A0;stroke-width:8.64"/>
	<line x1="2971.86" y1="1109.82" x2="3027.30" y2="1094.48" style="stroke:#A0A0A0;stroke-width:8.64"/>
	<line x1="3055.14" y1="1086.81" x2="3110.58" y2="1071.46" style="stroke:#A0A0A0;stroke-width:8.64"/>
	<line x1="3138.42" y1="1063.91" x2="3194.11" y2="1048.94" style="stroke:#A0A0A0;stroke-width:8.64"/>
	<line x1="3221.96" y1="1041.51" x2="3277.52" y2="1026.66" style="stroke:#A0A0A0;stroke-width:8.64"/>
	<line x1="3305.36" y1="1019.36" x2="3361.17" y2="1005.38" style="stroke:#A0A0A0;stroke-width:8.64"/>
	<line x1="3389.14" y1="998.32" x2="3444.95" y2="984.21" style="stroke:#A0A0A0;stroke-width:8.64"/>
	<line x1="3472.92" y1="977.28" x2="3528.73" y2="963.18" style="stroke:#A0A0A0;stroke-width:8.64"/>
	<line x1="3556.70" y1="956.12" x2="3612.51" y2="942.01" style="stroke:#A0A0A0;stroke-width:8.64"/>
	<line x1="3640.48" y1="935.21" x2="3696.66" y2="922.46" style="stroke:#A0A0A0;stroke-width:8.64"/>
	<line x1="3724.75" y1="916.03" x2="3780.81" y2="903.28" style="stroke:#A0A0A0;stroke-width:8.64"/>
	<path d="" stroke-linejoin="round" style="fill:none;stroke:#A0A0A0;stroke-width:8.64"/>
	<line x1="454.04" y1="1862.74" x2="507.50" y2="1841.33" style="stroke:#A0A0A0;stroke-width:8.64"/>
	<line x1="534.23" y1="1830.57" x2="587.69" y2="1809.28" style="stroke:#A0A0A0;stroke-width:8.64"/>
	<line x1="614.42" y1="1798.64" x2="621.10" y2="1795.92" style="stroke:#A0A0A0;stroke-width:8.64"/>
	<line x1="621.10" y1="1795.92" x2="668.00" y2="1777.35" style="stroke:#A0A0A0;stroke-width:8.64"/>
	<line x1="694.73" y1="1766.83" x2="748.32" y2="1745.55" style="stroke:#A0A0A0;stroke-width:8.64"/>
	<line x1="775.17" y1="1735.03" x2="788.29" y2="1729.71" style="stroke:#A0A0A0;stroke-width:8.64"/>
	<line x1="788.29" y1="1729.71" x2="828.75" y2="1714.11" style="stroke:#A0A0A0;stroke-width:8.64"/>
	<line x1="855.73" y1="1703.84" x2="909.44" y2="1683.18" style="stroke:#A0A0A0;stroke-width:8.64"/>
	<line x1="936.29" y1="1672.78" x2="955.35" y2="1665.48" style="stroke:#A0A0A0;stroke-width:8.64"/>
	<line x1="955.35" y1="1665.48" x2="990.12" y2="1652.11" style="stroke:#A0A0A0;stroke-width:8.64"/>
	<line x1="1017.10" y1="1641.84" x2="1070.81" y2="1621.18" style="stroke:#A0A0A0;stroke-width:8.64"/>
	<line x1="1097.79" y1="1610.90" x2="1122.41" y2="1601.50" style="stroke:#A0A0A0;stroke-width:8.64"/>
	<line x1="1122.41" y1="1601.50" x2="1151.37" y2="1589.99" style="stroke:#A0A0A0;stroke-width:8.64"/>
	<line x1="1178.22" y1="1579.47" x2="1231.68" y2="1558.31" style="stroke:#A0A0A0;stroke-width:8.64"/>
	<line x1="1258.54" y1="1547.67" x2="1289.47" y2="1535.54" style="stroke:#A0A0A0;stroke-width:8.64"/>
	<line x1="1289.47" y1="1535.54" x2="1312.12" y2="1526.50" style="stroke:#A0A0A0;stroke-width:8.64"/>
	<line x1="1338.85" y1="1515.98" x2="1392.44" y2="1494.70" style="stroke:#A0A0A0;stroke-width:8.64"/>
	<line x1="1419.17" y1="1484.06" x2="1456.54" y2="1469.21" style="stroke:#A0A0A0;stroke-width:8.64"/>
	<line x1="1456.54" y1="1469.21" x2="1472.75" y2="1462.77" style="stroke:#A0A0A0;stroke-width:8.64"/>
	<line x1="1499.48" y1="1452.13" x2="1552.94" y2="1430.72" style="stroke:#A0A0A0;stroke-width:8.64"/>
	<line x1="1579.67" y1="1420.08" x2="1623.60" y2="1402.50" style="stroke:#A0A0A0;stroke-width:8.64"/>
	<line x1="1623.60" y1="1402.50" x2="1633.13" y2="1398.54" style="stroke:#A0A0A0;stroke-width:8.64"/>
	<line x1="1659.74" y1="1387.40" x2="1712.82" y2="1365.25" style="stroke:#A0A0A0;stroke-width:8.64"/>
	<line x1="1739.43" y1="1354.24" x2="1790.66" y2="1332.83" style="stroke:#A0A0A0;stroke-width:8.64"/>
	<line x1="1790.66" y1="1332.83" x2="1792.52" y2="1331.96" style="stroke:#A0A0A0;stroke-width:8.64"/>
	<line x1="1818.88" y1="1320.45" x2="1871.72" y2="1297.31" style="stroke:#A0A0A0;stroke-width:8.64"/>
	<line x1="1898.08" y1="1285.80" x2="1950.80" y2="1262.78" style="stroke:#A0A0A0;stroke-width:8.64"/>
	<line x1="1977.03" y1="1250.66" x2="2029.13" y2="1226.03" style="stroke:#A0A0A0;stroke-width:8.64"/>
	<line x1="2055.24" y1="1213.65" x2="2107.22" y2="1189.03" style="stroke:#A0A0A0;stroke-width:8.64"/>
	<line x1="2133.20" y1="1176.53" x2="2184.44" y2="1150.29" style="stroke:#A0A0A0;stroke-width:8.64"/>
	<line x1="2210.05" y1="1137.30" x2="2261.41" y2="1111.06" style="stroke:#A0A0A0;stroke-width:8.64"/>
	<line x1="2287.02" y1="1097.94" x2="2291.97" y2="1095.47" style="stroke:#A0A0A0;stroke-width:8.64"/>
	<line x1="2291.97" y1="1095.47" x2="2337.51" y2="1070.22" style="stroke:#A0A0A0;stroke-width:8.64"/>
	<line x1="2362.76" y1="1056.36" x2="2413.25" y2="1028.52" style="stroke:#A0A0A0;stroke-width:8.64"/>
	<line x1="2438.49" y1="1014.66" x2="2459.04" y2="1003.27" style="stroke:#A0A0A0;stroke-width:8.64"/>
	<line x1="2459.04" y1="1003.27" x2="2488.49" y2="986.19" style="stroke:#A0A0A0;stroke-width:8.64"/>
	<line x1="2513.49" y1="971.72" x2="2563.23" y2="942.88" style="stroke:#A0A0A0;stroke-width:8.64"/>
	<line x1="2588.23" y1="928.40" x2="2626.10" y2="906.50" style="stroke:#A0A0A0;stroke-width:8.64"/>
	<line x1="2626.10" y1="906.50" x2="2637.86" y2="899.44" style="stroke:#A0A0A0;stroke-width:8.64"/>
	<line x1="2662.48" y1="884.35" x2="2711.61" y2="854.52" style="stroke:#A0A0A0;stroke-width:8.64"/>
	<line x1="2736.24" y1="839.55" x2="2785.49" y2="809.60" style="stroke:#A0A0A0;stroke-width:8.64"/>
	<line x1="2809.99" y1="794.50" x2="2858.87" y2="764.18" style="stroke:#A0A0A0;stroke-width:8.64"/>
	<line x1="2883.38" y1="748.96" x2="2932.26" y2="718.51" style="stroke:#A0A0A0;stroke-width:8.64"/>
	<line x1="2956.76" y1="703.29" x2="2960.22" y2="701.19" style="stroke:#A0A0A0;stroke-width:8.64"/>
	<line x1="2960.22" y1="701.19" x2="3005.64" y2="672.97" style="stroke:#A0A0A0;stroke-width:8.64"/>
	<line x1="3030.14" y1="657.75" x2="3079.15" y2="627.31" style="stroke:#A0A0A0;stroke-width:8.64"/>
	<line x1="3103.53" y1="612.09" x2="3127.29" y2="597.36" style="stroke:#A0A0A0;stroke-width:8.64"/>
	<line x1="3127.29" y1="597.36" x2="3152.28" y2="581.52" style="stroke:#A0A0A0;stroke-width:8.64"/>
	<line x1="3176.54" y1="566.05" x2="3225.17" y2="535.11" style="stroke:#A0A0A0;stroke-width:8.64"/>
	<line x1="3249.43" y1="519.64" x2="3294.47" y2="491.06" style="stroke:#A0A0A0;stroke-width:8.64"/>
	<line x1="3294.47" y1="491.06" x2="3298.06" y2="488.70" style="stroke:#A0A0A0;stroke-width:8.64"/>
	<line x1="3322.32" y1="473.11" x2="3370.70" y2="441.93" style="stroke:#A0A0A0;stroke-width:8.64"/>
	<line x1="3394.96" y1="426.33" x2="3443.34" y2="395.15" style="stroke:#A0A0A0;stroke-width:8.64"/>
	<line x1="3467.48" y1="379.55" x2="3515.61" y2="347.87" style="stroke:#A0A0A0;stroke-width:8.64"/>
	<line x1="3539.62" y1="332.03" x2="3587.76" y2="300.35" style="stroke:#A0A0A0;stroke-width:8.64"/>
	<line x1="3611.77" y1="284.51" x2="3628.60" y2="273.37" style="stroke:#A0A0A0;stroke-width:8.64"/>
	<line x1="3628.60" y1="273.37" x2="3659.91" y2="252.95" style="stroke:#A0A0A0;stroke-width:8.64"/>
	<line x1="3684.04" y1="237.11" x2="3732.18" y2="205.68" style="stroke:#A0A0A0;stroke-width:8.64"/>
	<line x1="3756.31" y1="189.84" x2="3795.66" y2="164.22" style="stroke:#A0A0A0;stroke-width:8.64"/>
	<path d="" stroke-linejoin="round" style="fill:none;stroke:#A0A0A0;stroke-width:8.64"/>
	<line x1="454.16" y1="1999.12" x2="454.16" y2="1542.10" style="stroke:#808080;stroke-width:8.64"/>
	<line x1="788.29" y1="1993.06" x2="788.29" y2="1578.60" style="stroke:#808080;stroke-width:8.64"/>
	<line x1="1122.41" y1="1560.29" x2="1122.41" y2="1236.67" style="stroke:#808080;stroke-width:8.64"/>
	<line x1="1456.66" y1="1522.17" x2="1456.66" y2="1248.06" style="stroke:#808080;stroke-width:8.64"/>
	<line x1="1590.31" y1="1611.28" x2="1590.31" y2="1364.76" style="stroke:#808080;stroke-width:8.64"/>
	<line x1="1657.14" y1="1545.81" x2="1657.14" y2="1301.40" style="stroke:#808080;stroke-width:8.64"/>
	<line x1="1790.79" y1="1470.20" x2="1790.79" y2="1268.48" style="stroke:#808080;stroke-width:8.64"/>
	<line x1="1857.61" y1="1618.82" x2="1857.61" y2="1427.25" style="stroke:#808080;stroke-width:8.64"/>
	<line x1="2058.09" y1="1024.68" x2="2058.09" y2="822.22" style="stroke:#808080;stroke-width:8.64"/>
	<line x1="2325.39" y1="1319.34" x2="2325.39" y2="1126.28" style="stroke:#808080;stroke-width:8.64"/>
	<line x1="2392.21" y1="1381.59" x2="2392.21" y2="1186.43" style="stroke:#808080;stroke-width:8.64"/>
	<line x1="2459.04" y1="1173.93" x2="2459.04" y2="968.87" style="stroke:#808080;stroke-width:8.64"/>
	<line x1="2525.86" y1="1107.23" x2="2525.86" y2="881.75" style="stroke:#808080;stroke-width:8.64"/>
	<line x1="2592.81" y1="1304.61" x2="2592.81" y2="1078.27" style="stroke:#808080;stroke-width:8.64"/>
	<line x1="3261.06" y1="1213.78" x2="3261.06" y2="868.26" style="stroke:#808080;stroke-width:8.64"/>
	<line x1="3795.66" y1="1122.57" x2="3795.66" y2="577.19" style="stroke:#808080;stroke-width:8.64"/>
	<circle cx="454.04" cy="1766.34" r="19.79" style="fill:#404040"/>
	<circle cx="454.04" cy="1766.34" r="15.47" style="fill:none;stroke:#404040;stroke-width:8.64"/>
	<circle cx="788.29" cy="1783.91" r="11.13" style="fill:#404040"/>
	<circle cx="788.29" cy="1783.91" r="6.81" style="fill:none;stroke:#404040;stroke-width:8.64"/>
	<circle cx="1122.41" cy="1396.56" r="21.77" style="fill:#404040"/>
	<circle cx="1122.41" cy="1396.56" r="17.45" style="fill:none;stroke:#404040;stroke-width:8.64"/>
	<circle cx="1456.54" cy="1384.06" r="11.62" style="fill:#404040"/>
	<circle cx="1456.54" cy="1384.06" r="7.30" style="fill:none;stroke:#404040;stroke-width:8.64"/>
	<circle cx="1590.19" cy="1487.40" r="9.89" style="fill:#404040"/>
	<circle cx="1590.19" cy="1487.40" r="5.57" style="fill:none;stroke:#404040;stroke-width:8.64"/>
	<circle cx="1657.01" cy="1422.92" r="10.01" style="fill:#404040"/>
	<circle cx="1657.01" cy="1422.92" r="5.69" style="fill:none;stroke:#404040;stroke-width:8.64"/>
	<circle cx="1790.66" cy="1368.84" r="13.35" style="fill:#404040"/>
	<circle cx="1790.66" cy="1368.84" r="9.03" style="fill:none;stroke:#404040;stroke-width:8.64"/>
	<circle cx="1857.49" cy="1522.30" r="10.75" style="fill:#404040"/>
	<circle cx="1857.49" cy="1522.30" r="6.43" style="fill:none;stroke:#404040;stroke-width:8.64"/>
	<circle cx="2058.09" cy="922.96" r="11.13" style="fill:#404040"/>
	<circle cx="2058.09" cy="922.96" r="6.81" style="fill:none;stroke:#404040;stroke-width:8.64"/>
	<circle cx="2325.39" cy="1222.94" r="21.03" style="fill:#404040"/>
	<circle cx="2325.39" cy="1222.94" r="16.71" style="fill:none;stroke:#404040;stroke-width:8.64"/>
	<circle cx="2392.21" cy="1283.70" r="25.98" style="fill:#404040"/>
	<circle cx="2392.21" cy="1283.70" r="21.66" style="fill:none;stroke:#404040;stroke-width:8.64"/>
	<circle cx="2459.04" cy="1072.08" r="42.81" style="fill:#404040"/>
	<circle cx="2459.04" cy="1072.08" r="38.49" style="fill:none;stroke:#404040;stroke-width:8.64"/>
	<circle cx="2525.86" cy="994.98" r="11.74" style="fill:#404040"/>
	<circle cx="2525.86" cy="994.98" r="7.43" style="fill:none;stroke:#404040;stroke-width:8.64"/>
	<circle cx="2592.69" cy="1191.50" r="11.25" style="fill:#404040"/>
	<circle cx="2592.69" cy="1191.50" r="6.93" style="fill:none;stroke:#404040;stroke-width:8.64"/>
	<circle cx="3261.06" cy="1039.90" r="10.75" style="fill:#404040"/>
	<circle cx="3261.06" cy="1039.90" r="6.43" style="fill:none;stroke:#404040;stroke-width:8.64"/>
	<circle cx="3795.66" cy="847.59" r="10.75" style="fill:#404040"/>
	<circle cx="3795.66" cy="847.59" r="6.43" style="fill:none;stroke:#404040;stroke-width:8.64"/>
	<line x1="390.80" y1="2489.19" x2="390.80" y2="100.86" style="stroke:#000000;stroke-width:5.76"/>
	<line x1="390.80" y1="2425.82" x2="350.83" y2="2425.82" style="stroke:#000000;stroke-width:5.76"/>
	<text x="300.72" y="2425.82" style="font-family:'Helvetica';font-size:99.99px;fill:#000000" transform="rotate(-90 300.72,2425.82)" text-anchor="middle">.07</text>
	<line x1="390.80" y1="1911.50" x2="350.83" y2="1911.50" style="stroke:#000000;stroke-width:5.76"/>
	<text x="300.72" y="1911.50" style="font-family:'Helvetica';font-size:99.99px;fill:#000000" transform="rotate(-90 300.72,1911.50)" text-anchor="middle">.08</text>
	<line x1="390.80" y1="1397.18" x2="350.83" y2="1397.18" style="stroke:#000000;stroke-width:5.76"/>
	<text x="300.72" y="1397.18" style="font-family:'Helvetica';font-size:99.99px;fill:#000000" transform="rotate(-90 300.72,1397.18)" text-anchor="middle">.09</text>
	<line x1="390.80" y1="882.74" x2="350.83" y2="882.74" style="stroke:#000000;stroke-width:5.76"/>
	<text x="300.72" y="882.74" style="font-family:'Helvetica';font-size:99.99px;fill:#000000" transform="rotate(-90 300.72,882.74)" text-anchor="middle">.1</text>
	<line x1="390.80" y1="368.42" x2="350.83" y2="368.42" style="stroke:#000000;stroke-width:5.76"/>
	<text x="300.72" y="368.42" style="font-family:'Helvetica';font-size:99.99px;fill:#000000" transform="rotate(-90 300.72,368.42)" text-anchor="middle">.11</text>
	<text x="190.71" y="1294.96" style="font-family:'Helvetica';font-size:99.99px;fill:#000000" transform="rotate(-90 190.71,1294.96)" text-anchor="middle">DAME/MEM of Education</text>
	<line x1="390.80" y1="2489.19" x2="3859.02" y2="2489.19" style="stroke:#000000;stroke-width:5.76"/>
	<line x1="454.16" y1="2489.19" x2="454.16" y2="2529.16" style="stroke:#000000;stroke-width:5.76"/>
	<text x="454.16" y="2619.14" style="font-family:'Helvetica';font-size:99.99px;fill:#000000" text-anchor="middle">0</text>
	<line x1="1122.41" y1="2489.19" x2="1122.41" y2="2529.16" style="stroke:#000000;stroke-width:5.76"/>
	<text x="1122.41" y="2619.14" style="font-family:'Helvetica';font-size:99.99px;fill:#000000" text-anchor="middle">10</text>
	<line x1="1790.79" y1="2489.19" x2="1790.79" y2="2529.16" style="stroke:#000000;stroke-width:5.76"/>
	<text x="1790.79" y="2619.14" style="font-family:'Helvetica';font-size:99.99px;fill:#000000" text-anchor="middle">20</text>
	<line x1="2459.04" y1="2489.19" x2="2459.04" y2="2529.16" style="stroke:#000000;stroke-width:5.76"/>
	<text x="2459.04" y="2619.14" style="font-family:'Helvetica';font-size:99.99px;fill:#000000" text-anchor="middle">30</text>
	<line x1="3127.41" y1="2489.19" x2="3127.41" y2="2529.16" style="stroke:#000000;stroke-width:5.76"/>
	<text x="3127.41" y="2619.14" style="font-family:'Helvetica';font-size:99.99px;fill:#000000" text-anchor="middle">40</text>
	<line x1="3795.66" y1="2489.19" x2="3795.66" y2="2529.16" style="stroke:#000000;stroke-width:5.76"/>
	<text x="3795.66" y="2619.14" style="font-family:'Helvetica';font-size:99.99px;fill:#000000" text-anchor="middle">50</text>
	<text x="2124.91" y="2729.16" style="font-family:'Helvetica';font-size:99.99px;fill:#000000" text-anchor="middle">Closing Date</text>
</svg>
