<?xml version="1.0" encoding="UTF-8" standalone="no"?>
<!-- This is a Stata 17.0 generated SVG file (http://www.stata.com) -->

<svg version="1.1" width="5.500in" height="4.000in" viewBox="0 0 3960 2880" xmlns="http://www.w3.org/2000/svg" xmlns:xlink="http://www.w3.org/1999/xlink">
	<desc>Stata Graph - Graph</desc>
	<rect x="0" y="0" width="3960" height="2880" style="fill:#FFFFFF;stroke:none"/>
	<rect x="0.00" y="0.00" width="3959.88" height="2880.00" style="fill:#FFFFFF"/>
	<rect x="2.88" y="2.88" width="3954.12" height="2874.24" style="fill:none;stroke:#FFFFFF;stroke-width:5.76"/>
	<rect x="393.68" y="103.74" width="3462.46" height="2382.57" style="fill:none;stroke:#000000;stroke-width:5.76"/>
	<line x1="390.80" y1="2283.63" x2="3859.02" y2="2283.63" style="stroke:#FF0000;stroke-width:8.64"/>
	<path d=" M454.04 2221.38 L621.10 2215.94 L788.29 2210.12 L955.35 2204.06 L1122.41 2197.62 L1289.47 2190.94 L1456.54 2183.88 L1623.60 2176.71 L1790.66 2169.53 L1957.85 2162.23 L2124.91 2155.30 L2291.97 2148.74 L2459.04 2143.05 L2626.10 2138.47 L2793.16 2135.37 L2960.22 2134.75 L3127.29 2136.98 L3294.47 2143.29 L3461.54 2154.80 L3628.60 2173.12 L3795.66 2200.10" stroke-linejoin="round" style="fill:none;stroke:#606060;stroke-width:8.64"/>
	<line x1="454.04" y1="2258.26" x2="511.58" y2="2257.15" style="stroke:#A0A0A0;stroke-width:8.64"/>
	<line x1="540.42" y1="2256.65" x2="597.96" y2="2255.41" style="stroke:#A0A0A0;stroke-width:8.64"/>
	<line x1="626.79" y1="2254.92" x2="684.46" y2="2253.81" style="stroke:#A0A0A0;stroke-width:8.64"/>
	<line x1="713.17" y1="2253.19" x2="770.84" y2="2252.07" style="stroke:#A0A0A0;stroke-width:8.64"/>
	<line x1="799.67" y1="2251.33" x2="857.22" y2="2249.97" style="stroke:#A0A0A0;stroke-width:8.64"/>
	<line x1="886.05" y1="2249.35" x2="943.59" y2="2247.87" style="stroke:#A0A0A0;stroke-width:8.64"/>
	<line x1="972.43" y1="2247.12" x2="1029.97" y2="2245.76" style="stroke:#A0A0A0;stroke-width:8.64"/>
	<line x1="1058.81" y1="2245.02" x2="1116.35" y2="2243.66" style="stroke:#A0A0A0;stroke-width:8.64"/>
	<line x1="1145.18" y1="2242.92" x2="1202.73" y2="2241.43" style="stroke:#A0A0A0;stroke-width:8.64"/>
	<line x1="1231.56" y1="2240.69" x2="1289.10" y2="2239.20" style="stroke:#A0A0A0;stroke-width:8.64"/>
	<line x1="1317.94" y1="2238.46" x2="1375.48" y2="2236.97" style="stroke:#A0A0A0;stroke-width:8.64"/>
	<line x1="1404.32" y1="2236.23" x2="1456.54" y2="2234.87" style="stroke:#A0A0A0;stroke-width:8.64"/>
	<line x1="1456.54" y1="2234.87" x2="1461.86" y2="2234.75" style="stroke:#A0A0A0;stroke-width:8.64"/>
	<line x1="1490.69" y1="2234.00" x2="1548.36" y2="2232.52" style="stroke:#A0A0A0;stroke-width:8.64"/>
	<line x1="1577.07" y1="2231.78" x2="1623.60" y2="2230.54" style="stroke:#A0A0A0;stroke-width:8.64"/>
	<line x1="1623.60" y1="2230.54" x2="1634.74" y2="2230.29" style="stroke:#A0A0A0;stroke-width:8.64"/>
	<line x1="1663.45" y1="2229.55" x2="1721.12" y2="2228.06" style="stroke:#A0A0A0;stroke-width:8.64"/>
	<line x1="1749.95" y1="2227.32" x2="1790.66" y2="2226.33" style="stroke:#A0A0A0;stroke-width:8.64"/>
	<line x1="1790.66" y1="2226.33" x2="1807.49" y2="2225.96" style="stroke:#A0A0A0;stroke-width:8.64"/>
	<line x1="1836.33" y1="2225.34" x2="1893.87" y2="2224.10" style="stroke:#A0A0A0;stroke-width:8.64"/>
	<line x1="1922.70" y1="2223.49" x2="1957.85" y2="2222.74" style="stroke:#A0A0A0;stroke-width:8.64"/>
	<line x1="1957.85" y1="2222.74" x2="1980.25" y2="2222.37" style="stroke:#A0A0A0;stroke-width:8.64"/>
	<line x1="2009.08" y1="2221.75" x2="2066.63" y2="2220.64" style="stroke:#A0A0A0;stroke-width:8.64"/>
	<line x1="2095.46" y1="2220.14" x2="2124.91" y2="2219.53" style="stroke:#A0A0A0;stroke-width:8.64"/>
	<line x1="2124.91" y1="2219.53" x2="2153.00" y2="2219.15" style="stroke:#A0A0A0;stroke-width:8.64"/>
	<line x1="2181.84" y1="2218.78" x2="2239.38" y2="2218.04" style="stroke:#A0A0A0;stroke-width:8.64"/>
	<line x1="2268.21" y1="2217.67" x2="2291.97" y2="2217.30" style="stroke:#A0A0A0;stroke-width:8.64"/>
	<line x1="2291.97" y1="2217.30" x2="2325.76" y2="2217.17" style="stroke:#A0A0A0;stroke-width:8.64"/>
	<line x1="2354.59" y1="2216.93" x2="2412.14" y2="2216.56" style="stroke:#A0A0A0;stroke-width:8.64"/>
	<line x1="2440.97" y1="2216.43" x2="2459.04" y2="2216.31" style="stroke:#A0A0A0;stroke-width:8.64"/>
	<line x1="2459.04" y1="2216.31" x2="2498.64" y2="2216.31" style="stroke:#A0A0A0;stroke-width:8.64"/>
	<line x1="2527.35" y1="2216.43" x2="2585.01" y2="2216.56" style="stroke:#A0A0A0;stroke-width:8.64"/>
	<line x1="2613.72" y1="2216.56" x2="2626.10" y2="2216.68" style="stroke:#A0A0A0;stroke-width:8.64"/>
	<line x1="2626.10" y1="2216.68" x2="2671.39" y2="2217.55" style="stroke:#A0A0A0;stroke-width:8.64"/>
	<line x1="2700.23" y1="2218.16" x2="2757.77" y2="2219.40" style="stroke:#A0A0A0;stroke-width:8.64"/>
	<line x1="2786.60" y1="2220.02" x2="2793.16" y2="2220.14" style="stroke:#A0A0A0;stroke-width:8.64"/>
	<line x1="2793.16" y1="2220.14" x2="2844.02" y2="2222.62" style="stroke:#A0A0A0;stroke-width:8.64"/>
	<line x1="2872.86" y1="2224.10" x2="2930.40" y2="2226.95" style="stroke:#A0A0A0;stroke-width:8.64"/>
	<line x1="2959.11" y1="2228.31" x2="2960.22" y2="2228.44" style="stroke:#A0A0A0;stroke-width:8.64"/>
	<line x1="2960.22" y1="2228.44" x2="3016.65" y2="2232.52" style="stroke:#A0A0A0;stroke-width:8.64"/>
	<line x1="3045.36" y1="2234.62" x2="3102.78" y2="2238.83" style="stroke:#A0A0A0;stroke-width:8.64"/>
	<line x1="3131.49" y1="2241.18" x2="3188.54" y2="2248.48" style="stroke:#A0A0A0;stroke-width:8.64"/>
	<line x1="3217.13" y1="2252.20" x2="3274.18" y2="2259.62" style="stroke:#A0A0A0;stroke-width:8.64"/>
	<line x1="3302.64" y1="2263.95" x2="3358.95" y2="2275.59" style="stroke:#A0A0A0;stroke-width:8.64"/>
	<line x1="3387.16" y1="2281.40" x2="3443.59" y2="2293.04" style="stroke:#A0A0A0;stroke-width:8.64"/>
	<line x1="3471.56" y1="2299.97" x2="3526.38" y2="2317.41" style="stroke:#A0A0A0;stroke-width:8.64"/>
	<line x1="3553.85" y1="2326.08" x2="3608.67" y2="2343.65" style="stroke:#A0A0A0;stroke-width:8.64"/>
	<line x1="3635.78" y1="2353.30" x2="3688.12" y2="2377.06" style="stroke:#A0A0A0;stroke-width:8.64"/>
	<line x1="3714.48" y1="2388.94" x2="3766.83" y2="2412.83" style="stroke:#A0A0A0;stroke-width:8.64"/>
	<line x1="3793.06" y1="2424.71" x2="3795.66" y2="2425.95" style="stroke:#A0A0A0;stroke-width:8.64"/>
	<path d="" stroke-linejoin="round" style="fill:none;stroke:#A0A0A0;stroke-width:8.64"/>
	<line x1="454.04" y1="2151.58" x2="511.58" y2="2149.11" style="stroke:#A0A0A0;stroke-width:8.64"/>
	<line x1="540.29" y1="2147.87" x2="597.84" y2="2145.40" style="stroke:#A0A0A0;stroke-width:8.64"/>
	<line x1="626.67" y1="2144.16" x2="684.21" y2="2141.56" style="stroke:#A0A0A0;stroke-width:8.64"/>
	<line x1="712.92" y1="2140.20" x2="770.47" y2="2137.60" style="stroke:#A0A0A0;stroke-width:8.64"/>
	<line x1="799.30" y1="2136.24" x2="856.72" y2="2133.39" style="stroke:#A0A0A0;stroke-width:8.64"/>
	<line x1="885.56" y1="2131.91" x2="942.98" y2="2129.06" style="stroke:#A0A0A0;stroke-width:8.64"/>
	<line x1="971.81" y1="2127.58" x2="1029.35" y2="2124.36" style="stroke:#A0A0A0;stroke-width:8.64"/>
	<line x1="1058.06" y1="2122.75" x2="1115.48" y2="2119.53" style="stroke:#A0A0A0;stroke-width:8.64"/>
	<line x1="1144.32" y1="2118.17" x2="1201.86" y2="2115.45" style="stroke:#A0A0A0;stroke-width:8.64"/>
	<line x1="1230.57" y1="2114.09" x2="1288.11" y2="2111.36" style="stroke:#A0A0A0;stroke-width:8.64"/>
	<line x1="1316.82" y1="2109.63" x2="1374.24" y2="2106.04" style="stroke:#A0A0A0;stroke-width:8.64"/>
	<line x1="1403.08" y1="2104.31" x2="1456.54" y2="2101.09" style="stroke:#A0A0A0;stroke-width:8.64"/>
	<line x1="1456.54" y1="2101.09" x2="1460.50" y2="2100.85" style="stroke:#A0A0A0;stroke-width:8.64"/>
	<line x1="1489.21" y1="2099.11" x2="1546.75" y2="2095.52" style="stroke:#A0A0A0;stroke-width:8.64"/>
	<line x1="1575.46" y1="2093.67" x2="1623.60" y2="2090.70" style="stroke:#A0A0A0;stroke-width:8.64"/>
	<line x1="1623.60" y1="2090.70" x2="1632.88" y2="2090.20" style="stroke:#A0A0A0;stroke-width:8.64"/>
	<line x1="1661.72" y1="2088.35" x2="1719.14" y2="2084.88" style="stroke:#A0A0A0;stroke-width:8.64"/>
	<line x1="1747.85" y1="2083.15" x2="1790.66" y2="2080.55" style="stroke:#A0A0A0;stroke-width:8.64"/>
	<line x1="1790.66" y1="2080.55" x2="1805.39" y2="2079.56" style="stroke:#A0A0A0;stroke-width:8.64"/>
	<line x1="1834.10" y1="2077.70" x2="1891.52" y2="2073.87" style="stroke:#A0A0A0;stroke-width:8.64"/>
	<line x1="1920.35" y1="2071.89" x2="1957.85" y2="2069.41" style="stroke:#A0A0A0;stroke-width:8.64"/>
	<line x1="1957.85" y1="2069.41" x2="1977.77" y2="2067.93" style="stroke:#A0A0A0;stroke-width:8.64"/>
	<line x1="2006.48" y1="2065.82" x2="2063.90" y2="2061.62" style="stroke:#A0A0A0;stroke-width:8.64"/>
	<line x1="2092.74" y1="2059.51" x2="2124.91" y2="2057.16" style="stroke:#A0A0A0;stroke-width:8.64"/>
	<line x1="2124.91" y1="2057.16" x2="2150.16" y2="2055.43" style="stroke:#A0A0A0;stroke-width:8.64"/>
	<line x1="2178.87" y1="2053.32" x2="2236.29" y2="2049.24" style="stroke:#A0A0A0;stroke-width:8.64"/>
	<line x1="2265.12" y1="2047.14" x2="2291.97" y2="2045.28" style="stroke:#A0A0A0;stroke-width:8.64"/>
	<line x1="2291.97" y1="2045.28" x2="2322.54" y2="2042.93" style="stroke:#A0A0A0;stroke-width:8.64"/>
	<line x1="2351.25" y1="2040.58" x2="2408.67" y2="2036.12" style="stroke:#A0A0A0;stroke-width:8.64"/>
	<line x1="2437.38" y1="2033.89" x2="2459.04" y2="2032.16" style="stroke:#A0A0A0;stroke-width:8.64"/>
	<line x1="2459.04" y1="2032.16" x2="2494.80" y2="2029.93" style="stroke:#A0A0A0;stroke-width:8.64"/>
	<line x1="2523.51" y1="2028.20" x2="2581.05" y2="2024.74" style="stroke:#A0A0A0;stroke-width:8.64"/>
	<line x1="2609.76" y1="2023.00" x2="2626.10" y2="2022.01" style="stroke:#A0A0A0;stroke-width:8.64"/>
	<line x1="2626.10" y1="2022.01" x2="2667.31" y2="2019.42" style="stroke:#A0A0A0;stroke-width:8.64"/>
	<line x1="2696.02" y1="2017.56" x2="2753.44" y2="2013.85" style="stroke:#A0A0A0;stroke-width:8.64"/>
	<line x1="2782.27" y1="2012.11" x2="2793.16" y2="2011.37" style="stroke:#A0A0A0;stroke-width:8.64"/>
	<line x1="2793.16" y1="2011.37" x2="2839.69" y2="2008.90" style="stroke:#A0A0A0;stroke-width:8.64"/>
	<line x1="2868.53" y1="2007.41" x2="2926.07" y2="2004.32" style="stroke:#A0A0A0;stroke-width:8.64"/>
	<line x1="2954.78" y1="2002.71" x2="2960.22" y2="2002.46" style="stroke:#A0A0A0;stroke-width:8.64"/>
	<line x1="2960.22" y1="2002.46" x2="3012.32" y2="2000.36" style="stroke:#A0A0A0;stroke-width:8.64"/>
	<line x1="3041.03" y1="1999.12" x2="3098.58" y2="1996.89" style="stroke:#A0A0A0;stroke-width:8.64"/>
	<line x1="3127.41" y1="1995.65" x2="3184.95" y2="1993.80" style="stroke:#A0A0A0;stroke-width:8.64"/>
	<line x1="3213.79" y1="1992.93" x2="3271.21" y2="1991.20" style="stroke:#A0A0A0;stroke-width:8.64"/>
	<line x1="3300.04" y1="1990.21" x2="3357.71" y2="1988.60" style="stroke:#A0A0A0;stroke-width:8.64"/>
	<line x1="3386.42" y1="1987.73" x2="3444.09" y2="1986.13" style="stroke:#A0A0A0;stroke-width:8.64"/>
	<line x1="3472.92" y1="1985.51" x2="3530.46" y2="1985.14" style="stroke:#A0A0A0;stroke-width:8.64"/>
	<line x1="3559.30" y1="1984.89" x2="3616.84" y2="1984.52" style="stroke:#A0A0A0;stroke-width:8.64"/>
	<line x1="3645.68" y1="1984.64" x2="3703.22" y2="1985.51" style="stroke:#A0A0A0;stroke-width:8.64"/>
	<line x1="3732.05" y1="1986.00" x2="3789.60" y2="1986.87" style="stroke:#A0A0A0;stroke-width:8.64"/>
	<path d="" stroke-linejoin="round" style="fill:none;stroke:#A0A0A0;stroke-width:8.64"/>
	<line x1="955.35" y1="2132.53" x2="955.35" y2="164.22" style="stroke:#808080;stroke-width:8.64"/>
	<line x1="1456.66" y1="2120.03" x2="1456.66" y2="1060.20" style="stroke:#808080;stroke-width:8.64"/>
	<line x1="3127.41" y1="2164.21" x2="3127.41" y2="1637.51" style="stroke:#808080;stroke-width:8.64"/>
	<line x1="3628.60" y1="2381.64" x2="3628.60" y2="1495.07" style="stroke:#808080;stroke-width:8.64"/>
	<circle cx="955.35" cy="1583.80" r="11.00" style="fill:#404040"/>
	<circle cx="955.35" cy="1583.80" r="6.68" style="fill:none;stroke:#404040;stroke-width:8.64"/>
	<circle cx="1456.54" cy="1817.33" r="10.14" style="fill:#404040"/>
	<circle cx="1456.54" cy="1817.33" r="5.82" style="fill:none;stroke:#404040;stroke-width:8.64"/>
	<circle cx="3127.29" cy="1938.36" r="10.38" style="fill:#404040"/>
	<circle cx="3127.29" cy="1938.36" r="6.06" style="fill:none;stroke:#404040;stroke-width:8.64"/>
	<circle cx="3628.60" cy="1980.31" r="10.51" style="fill:#404040"/>
	<circle cx="3628.60" cy="1980.31" r="6.19" style="fill:none;stroke:#404040;stroke-width:8.64"/>
	<line x1="390.80" y1="2489.19" x2="390.80" y2="100.86" style="stroke:#000000;stroke-width:5.76"/>
	<line x1="390.80" y1="2283.63" x2="350.83" y2="2283.63" style="stroke:#000000;stroke-width:5.76"/>
	<text x="300.72" y="2283.63" style="font-family:'Helvetica';font-size:99.99px;fill:#000000" transform="rotate(-90 300.72,2283.63)" text-anchor="middle">0</text>
	<line x1="390.80" y1="1590.86" x2="350.83" y2="1590.86" style="stroke:#000000;stroke-width:5.76"/>
	<text x="300.72" y="1590.86" style="font-family:'Helvetica';font-size:99.99px;fill:#000000" transform="rotate(-90 300.72,1590.86)" text-anchor="middle">.2</text>
	<line x1="390.80" y1="897.96" x2="350.83" y2="897.96" style="stroke:#000000;stroke-width:5.76"/>
	<text x="300.72" y="897.96" style="font-family:'Helvetica';font-size:99.99px;fill:#000000" transform="rotate(-90 300.72,897.96)" text-anchor="middle">.4</text>
	<line x1="390.80" y1="205.06" x2="350.83" y2="205.06" style="stroke:#000000;stroke-width:5.76"/>
	<text x="300.72" y="205.06" style="font-family:'Helvetica';font-size:99.99px;fill:#000000" transform="rotate(-90 300.72,205.06)" text-anchor="middle">.6</text>
	<text x="190.71" y="1294.96" style="font-family:'Helvetica';font-size:99.99px;fill:#000000" transform="rotate(-90 190.71,1294.96)" text-anchor="middle">DAME/MEM of ln(FDI flows)</text>
	<line x1="390.80" y1="2489.19" x2="3859.02" y2="2489.19" style="stroke:#000000;stroke-width:5.76"/>
	<line x1="454.16" y1="2489.19" x2="454.16" y2="2529.16" style="stroke:#000000;stroke-width:5.76"/>
	<text x="454.16" y="2619.14" style="font-family:'Helvetica';font-size:99.99px;fill:#000000" text-anchor="middle">-10</text>
	<line x1="1289.47" y1="2489.19" x2="1289.47" y2="2529.16" style="stroke:#000000;stroke-width:5.76"/>
	<text x="1289.47" y="2619.14" style="font-family:'Helvetica';font-size:99.99px;fill:#000000" text-anchor="middle">-5</text>
	<line x1="2124.91" y1="2489.19" x2="2124.91" y2="2529.16" style="stroke:#000000;stroke-width:5.76"/>
	<text x="2124.91" y="2619.14" style="font-family:'Helvetica';font-size:99.99px;fill:#000000" text-anchor="middle">0</text>
	<line x1="2960.35" y1="2489.19" x2="2960.35" y2="2529.16" style="stroke:#000000;stroke-width:5.76"/>
	<text x="2960.35" y="2619.14" style="font-family:'Helvetica';font-size:99.99px;fill:#000000" text-anchor="middle">5</text>
	<line x1="3795.66" y1="2489.19" x2="3795.66" y2="2529.16" style="stroke:#000000;stroke-width:5.76"/>
	<text x="3795.66" y="2619.14" style="font-family:'Helvetica';font-size:99.99px;fill:#000000" text-anchor="middle">10</text>
	<text x="2124.91" y="2729.16" style="font-family:'Helvetica';font-size:99.99px;fill:#000000" text-anchor="middle">Polity score</text>
</svg>
