<?xml version="1.0" encoding="UTF-8" standalone="no"?>
<!-- This is a Stata 17.0 generated SVG file (http://www.stata.com) -->

<svg version="1.1" width="5.500in" height="4.000in" viewBox="0 0 3960 2880" xmlns="http://www.w3.org/2000/svg" xmlns:xlink="http://www.w3.org/1999/xlink">
	<desc>Stata Graph - Graph</desc>
	<rect x="0" y="0" width="3960" height="2880" style="fill:#FFFFFF;stroke:none"/>
	<rect x="0.00" y="0.00" width="3959.88" height="2880.00" style="fill:#FFFFFF"/>
	<rect x="2.88" y="2.88" width="3954.12" height="2874.24" style="fill:none;stroke:#FFFFFF;stroke-width:5.76"/>
	<rect x="393.68" y="103.74" width="3462.46" height="2382.57" style="fill:none;stroke:#000000;stroke-width:5.76"/>
	<line x1="390.80" y1="2260.24" x2="3859.02" y2="2260.24" style="stroke:#FF0000;stroke-width:8.64"/>
	<path d=" M512.57 2291.67 L655.88 2284.25 L799.05 2274.22 L942.36 2261.35 L1085.66 2245.27 L1228.96 2225.34 L1372.14 2201.33 L1515.44 2172.75 L1658.75 2138.96 L1802.05 2099.73 L1945.23 2054.44 L2088.53 2002.96 L2231.83 1944.79 L2375.01 1879.70 L2518.31 1807.43 L2661.62 1727.98 L2804.92 1641.22 L2948.10 1547.17 L3091.40 1446.31 L3234.70 1338.77 L3378.00 1224.92" stroke-linejoin="round" style="fill:none;stroke:#606060;stroke-width:8.64"/>
	<line x1="512.57" y1="2425.95" x2="570.12" y2="2424.96" style="stroke:#A0A0A0;stroke-width:8.64"/>
	<line x1="598.95" y1="2424.59" x2="655.88" y2="2423.60" style="stroke:#A0A0A0;stroke-width:8.64"/>
	<line x1="655.88" y1="2423.60" x2="656.49" y2="2423.60" style="stroke:#A0A0A0;stroke-width:8.64"/>
	<line x1="685.33" y1="2422.48" x2="742.87" y2="2420.13" style="stroke:#A0A0A0;stroke-width:8.64"/>
	<line x1="771.58" y1="2419.02" x2="799.05" y2="2417.90" style="stroke:#A0A0A0;stroke-width:8.64"/>
	<line x1="799.05" y1="2417.90" x2="829.13" y2="2416.42" style="stroke:#A0A0A0;stroke-width:8.64"/>
	<line x1="857.84" y1="2414.93" x2="915.38" y2="2412.09" style="stroke:#A0A0A0;stroke-width:8.64"/>
	<line x1="944.09" y1="2410.60" x2="1001.63" y2="2406.52" style="stroke:#A0A0A0;stroke-width:8.64"/>
	<line x1="1030.34" y1="2404.41" x2="1085.66" y2="2400.45" style="stroke:#A0A0A0;stroke-width:8.64"/>
	<line x1="1085.66" y1="2400.45" x2="1087.76" y2="2400.33" style="stroke:#A0A0A0;stroke-width:8.64"/>
	<line x1="1116.60" y1="2398.10" x2="1173.89" y2="2393.65" style="stroke:#A0A0A0;stroke-width:8.64"/>
	<line x1="1202.60" y1="2391.54" x2="1228.96" y2="2389.56" style="stroke:#A0A0A0;stroke-width:8.64"/>
	<line x1="1228.96" y1="2389.56" x2="1260.02" y2="2386.59" style="stroke:#A0A0A0;stroke-width:8.64"/>
	<line x1="1288.73" y1="2383.99" x2="1346.03" y2="2378.55" style="stroke:#A0A0A0;stroke-width:8.64"/>
	<line x1="1374.74" y1="2375.83" x2="1432.04" y2="2370.75" style="stroke:#A0A0A0;stroke-width:8.64"/>
	<line x1="1460.75" y1="2368.28" x2="1515.44" y2="2363.45" style="stroke:#A0A0A0;stroke-width:8.64"/>
	<line x1="1515.44" y1="2363.45" x2="1518.17" y2="2363.20" style="stroke:#A0A0A0;stroke-width:8.64"/>
	<line x1="1546.75" y1="2360.11" x2="1603.92" y2="2353.80" style="stroke:#A0A0A0;stroke-width:8.64"/>
	<line x1="1632.63" y1="2350.70" x2="1658.75" y2="2347.86" style="stroke:#A0A0A0;stroke-width:8.64"/>
	<line x1="1658.75" y1="2347.86" x2="1689.81" y2="2344.15" style="stroke:#A0A0A0;stroke-width:8.64"/>
	<line x1="1718.39" y1="2340.68" x2="1775.44" y2="2333.63" style="stroke:#A0A0A0;stroke-width:8.64"/>
	<line x1="1804.15" y1="2330.16" x2="1861.32" y2="2323.48" style="stroke:#A0A0A0;stroke-width:8.64"/>
	<line x1="1889.91" y1="2320.26" x2="1945.23" y2="2313.83" style="stroke:#A0A0A0;stroke-width:8.64"/>
	<line x1="1945.23" y1="2313.83" x2="1947.21" y2="2313.70" style="stroke:#A0A0A0;stroke-width:8.64"/>
	<line x1="1975.79" y1="2310.48" x2="2032.97" y2="2304.30" style="stroke:#A0A0A0;stroke-width:8.64"/>
	<line x1="2061.68" y1="2301.20" x2="2088.53" y2="2298.36" style="stroke:#A0A0A0;stroke-width:8.64"/>
	<line x1="2088.53" y1="2298.36" x2="2118.85" y2="2294.52" style="stroke:#A0A0A0;stroke-width:8.64"/>
	<line x1="2147.43" y1="2290.93" x2="2204.61" y2="2283.88" style="stroke:#A0A0A0;stroke-width:8.64"/>
	<line x1="2233.19" y1="2280.29" x2="2290.24" y2="2272.62" style="stroke:#A0A0A0;stroke-width:8.64"/>
	<line x1="2318.83" y1="2268.78" x2="2375.01" y2="2261.11" style="stroke:#A0A0A0;stroke-width:8.64"/>
	<line x1="2375.01" y1="2261.11" x2="2376.00" y2="2260.98" style="stroke:#A0A0A0;stroke-width:8.64"/>
	<line x1="2404.59" y1="2258.14" x2="2461.88" y2="2252.20" style="stroke:#A0A0A0;stroke-width:8.64"/>
	<line x1="2490.59" y1="2249.35" x2="2518.31" y2="2246.50" style="stroke:#A0A0A0;stroke-width:8.64"/>
	<line x1="2518.31" y1="2246.50" x2="2547.77" y2="2242.92" style="stroke:#A0A0A0;stroke-width:8.64"/>
	<line x1="2576.48" y1="2239.57" x2="2633.52" y2="2232.77" style="stroke:#A0A0A0;stroke-width:8.64"/>
	<line x1="2662.23" y1="2229.43" x2="2719.53" y2="2224.10" style="stroke:#A0A0A0;stroke-width:8.64"/>
	<line x1="2748.24" y1="2221.51" x2="2804.92" y2="2216.43" style="stroke:#A0A0A0;stroke-width:8.64"/>
	<line x1="2804.92" y1="2216.43" x2="2805.54" y2="2216.31" style="stroke:#A0A0A0;stroke-width:8.64"/>
	<line x1="2834.37" y1="2214.82" x2="2891.79" y2="2211.73" style="stroke:#A0A0A0;stroke-width:8.64"/>
	<line x1="2920.50" y1="2210.24" x2="2948.10" y2="2208.76" style="stroke:#A0A0A0;stroke-width:8.64"/>
	<line x1="2948.10" y1="2208.76" x2="2977.92" y2="2206.41" style="stroke:#A0A0A0;stroke-width:8.64"/>
	<line x1="3006.75" y1="2204.18" x2="3064.17" y2="2199.85" style="stroke:#A0A0A0;stroke-width:8.64"/>
	<line x1="3092.88" y1="2197.62" x2="3150.30" y2="2192.92" style="stroke:#A0A0A0;stroke-width:8.64"/>
	<line x1="3179.01" y1="2190.57" x2="3234.70" y2="2185.99" style="stroke:#A0A0A0;stroke-width:8.64"/>
	<line x1="3234.70" y1="2185.99" x2="3236.31" y2="2185.86" style="stroke:#A0A0A0;stroke-width:8.64"/>
	<line x1="3265.14" y1="2183.64" x2="3322.44" y2="2179.06" style="stroke:#A0A0A0;stroke-width:8.64"/>
	<line x1="3351.15" y1="2176.83" x2="3378.00" y2="2174.73" style="stroke:#A0A0A0;stroke-width:8.64"/>
	<path d="" stroke-linejoin="round" style="fill:none;stroke:#A0A0A0;stroke-width:8.64"/>
	<line x1="512.57" y1="2171.01" x2="569.87" y2="2165.32" style="stroke:#A0A0A0;stroke-width:8.64"/>
	<line x1="598.58" y1="2162.60" x2="655.88" y2="2156.91" style="stroke:#A0A0A0;stroke-width:8.64"/>
	<line x1="684.46" y1="2153.56" x2="741.63" y2="2146.88" style="stroke:#A0A0A0;stroke-width:8.64"/>
	<line x1="770.34" y1="2143.42" x2="799.05" y2="2140.08" style="stroke:#A0A0A0;stroke-width:8.64"/>
	<line x1="799.05" y1="2140.08" x2="827.39" y2="2136.12" style="stroke:#A0A0A0;stroke-width:8.64"/>
	<line x1="855.98" y1="2132.16" x2="913.03" y2="2124.24" style="stroke:#A0A0A0;stroke-width:8.64"/>
	<line x1="941.49" y1="2120.28" x2="942.36" y2="2120.15" style="stroke:#A0A0A0;stroke-width:8.64"/>
	<line x1="942.36" y1="2120.15" x2="998.17" y2="2110.00" style="stroke:#A0A0A0;stroke-width:8.64"/>
	<line x1="1026.51" y1="2104.81" x2="1083.18" y2="2094.53" style="stroke:#A0A0A0;stroke-width:8.64"/>
	<line x1="1111.28" y1="2088.22" x2="1167.46" y2="2075.48" style="stroke:#A0A0A0;stroke-width:8.64"/>
	<line x1="1195.55" y1="2069.04" x2="1228.96" y2="2061.49" style="stroke:#A0A0A0;stroke-width:8.64"/>
	<line x1="1228.96" y1="2061.49" x2="1251.48" y2="2055.80" style="stroke:#A0A0A0;stroke-width:8.64"/>
	<line x1="1279.45" y1="2048.62" x2="1335.26" y2="2034.51" style="stroke:#A0A0A0;stroke-width:8.64"/>
	<line x1="1363.23" y1="2027.46" x2="1372.14" y2="2025.23" style="stroke:#A0A0A0;stroke-width:8.64"/>
	<line x1="1372.14" y1="2025.23" x2="1418.42" y2="2011.37" style="stroke:#A0A0A0;stroke-width:8.64"/>
	<line x1="1446.02" y1="2003.08" x2="1501.21" y2="1986.50" style="stroke:#A0A0A0;stroke-width:8.64"/>
	<line x1="1528.56" y1="1977.34" x2="1582.39" y2="1957.17" style="stroke:#A0A0A0;stroke-width:8.64"/>
	<line x1="1609.37" y1="1947.02" x2="1658.75" y2="1928.58" style="stroke:#A0A0A0;stroke-width:8.64"/>
	<line x1="1658.75" y1="1928.58" x2="1663.20" y2="1926.60" style="stroke:#A0A0A0;stroke-width:8.64"/>
	<line x1="1689.68" y1="1915.09" x2="1742.40" y2="1892.07" style="stroke:#A0A0A0;stroke-width:8.64"/>
	<line x1="1768.88" y1="1880.56" x2="1802.05" y2="1866.08" style="stroke:#A0A0A0;stroke-width:8.64"/>
	<line x1="1802.05" y1="1866.08" x2="1820.98" y2="1856.18" style="stroke:#A0A0A0;stroke-width:8.64"/>
	<line x1="1846.47" y1="1842.94" x2="1897.58" y2="1816.34" style="stroke:#A0A0A0;stroke-width:8.64"/>
	<line x1="1923.08" y1="1803.09" x2="1945.23" y2="1791.58" style="stroke:#A0A0A0;stroke-width:8.64"/>
	<line x1="1945.23" y1="1791.58" x2="1972.82" y2="1774.26" style="stroke:#A0A0A0;stroke-width:8.64"/>
	<line x1="1997.33" y1="1759.04" x2="2046.21" y2="1728.47" style="stroke:#A0A0A0;stroke-width:8.64"/>
	<line x1="2070.59" y1="1713.12" x2="2088.53" y2="1701.99" style="stroke:#A0A0A0;stroke-width:8.64"/>
	<line x1="2088.53" y1="1701.99" x2="2118.23" y2="1680.83" style="stroke:#A0A0A0;stroke-width:8.64"/>
	<line x1="2141.74" y1="1664.12" x2="2188.52" y2="1630.70" style="stroke:#A0A0A0;stroke-width:8.64"/>
	<line x1="2212.03" y1="1613.87" x2="2231.83" y2="1599.77" style="stroke:#A0A0A0;stroke-width:8.64"/>
	<line x1="2231.83" y1="1599.77" x2="2257.57" y2="1578.73" style="stroke:#A0A0A0;stroke-width:8.64"/>
	<line x1="2279.97" y1="1560.54" x2="2324.52" y2="1524.15" style="stroke:#A0A0A0;stroke-width:8.64"/>
	<line x1="2346.80" y1="1505.96" x2="2375.01" y2="1482.94" style="stroke:#A0A0A0;stroke-width:8.64"/>
	<line x1="2375.01" y1="1482.94" x2="2390.60" y2="1468.59" style="stroke:#A0A0A0;stroke-width:8.64"/>
	<line x1="2411.64" y1="1449.03" x2="2453.96" y2="1409.93" style="stroke:#A0A0A0;stroke-width:8.64"/>
	<line x1="2475.12" y1="1390.37" x2="2517.45" y2="1351.27" style="stroke:#A0A0A0;stroke-width:8.64"/>
	<line x1="2537.49" y1="1330.60" x2="2577.47" y2="1289.14" style="stroke:#A0A0A0;stroke-width:8.64"/>
	<line x1="2597.39" y1="1268.48" x2="2637.36" y2="1227.02" style="stroke:#A0A0A0;stroke-width:8.64"/>
	<line x1="2657.28" y1="1206.35" x2="2661.62" y2="1201.90" style="stroke:#A0A0A0;stroke-width:8.64"/>
	<line x1="2661.62" y1="1201.90" x2="2696.14" y2="1163.78" style="stroke:#A0A0A0;stroke-width:8.64"/>
	<line x1="2715.57" y1="1142.37" x2="2754.18" y2="1099.80" style="stroke:#A0A0A0;stroke-width:8.64"/>
	<line x1="2773.49" y1="1078.39" x2="2804.92" y2="1043.74" style="stroke:#A0A0A0;stroke-width:8.64"/>
	<line x1="2804.92" y1="1043.74" x2="2811.60" y2="1035.20" style="stroke:#A0A0A0;stroke-width:8.64"/>
	<line x1="2829.54" y1="1012.68" x2="2865.18" y2="967.51" style="stroke:#A0A0A0;stroke-width:8.64"/>
	<line x1="2883.13" y1="944.86" x2="2918.77" y2="899.81" style="stroke:#A0A0A0;stroke-width:8.64"/>
	<line x1="2936.71" y1="877.17" x2="2948.10" y2="862.81" style="stroke:#A0A0A0;stroke-width:8.64"/>
	<line x1="2948.10" y1="862.81" x2="2971.11" y2="831.01" style="stroke:#A0A0A0;stroke-width:8.64"/>
	<line x1="2988.07" y1="807.74" x2="3021.85" y2="761.09" style="stroke:#A0A0A0;stroke-width:8.64"/>
	<line x1="3038.81" y1="737.70" x2="3072.59" y2="691.17" style="stroke:#A0A0A0;stroke-width:8.64"/>
	<line x1="3089.42" y1="667.78" x2="3091.40" y2="665.05" style="stroke:#A0A0A0;stroke-width:8.64"/>
	<line x1="3091.40" y1="665.05" x2="3121.72" y2="620.13" style="stroke:#A0A0A0;stroke-width:8.64"/>
	<line x1="3137.93" y1="596.25" x2="3170.10" y2="548.48" style="stroke:#A0A0A0;stroke-width:8.64"/>
	<line x1="3186.19" y1="524.59" x2="3218.37" y2="476.82" style="stroke:#A0A0A0;stroke-width:8.64"/>
	<line x1="3234.58" y1="452.94" x2="3234.70" y2="452.69" style="stroke:#A0A0A0;stroke-width:8.64"/>
	<line x1="3234.70" y1="452.69" x2="3266.26" y2="404.92" style="stroke:#A0A0A0;stroke-width:8.64"/>
	<line x1="3282.22" y1="381.04" x2="3313.90" y2="333.02" style="stroke:#A0A0A0;stroke-width:8.64"/>
	<line x1="3329.87" y1="309.01" x2="3361.55" y2="261.00" style="stroke:#A0A0A0;stroke-width:8.64"/>
	<line x1="3377.51" y1="236.86" x2="3378.00" y2="236.12" style="stroke:#A0A0A0;stroke-width:8.64"/>
	<path d="" stroke-linejoin="round" style="fill:none;stroke:#A0A0A0;stroke-width:8.64"/>
	<line x1="621.23" y1="2400.95" x2="621.23" y2="2176.09" style="stroke:#808080;stroke-width:8.64"/>
	<line x1="671.34" y1="2365.31" x2="671.34" y2="2191.43" style="stroke:#808080;stroke-width:8.64"/>
	<line x1="855.11" y1="2416.91" x2="855.11" y2="2144.90" style="stroke:#808080;stroke-width:8.64"/>
	<line x1="921.94" y1="2418.65" x2="921.94" y2="2112.97" style="stroke:#808080;stroke-width:8.64"/>
	<line x1="947.06" y1="2399.71" x2="947.06" y2="2121.76" style="stroke:#808080;stroke-width:8.64"/>
	<line x1="1197.65" y1="2343.65" x2="1197.65" y2="2132.77" style="stroke:#808080;stroke-width:8.64"/>
	<line x1="3378.00" y1="2232.89" x2="3378.00" y2="1460.42" style="stroke:#808080;stroke-width:8.64"/>
	<circle cx="621.10" cy="2283.14" r="21.89" style="fill:#404040"/>
	<circle cx="621.10" cy="2283.14" r="17.57" style="fill:none;stroke:#404040;stroke-width:8.64"/>
	<circle cx="671.22" cy="2274.72" r="10.14" style="fill:#404040"/>
	<circle cx="671.22" cy="2274.72" r="5.82" style="fill:none;stroke:#404040;stroke-width:8.64"/>
	<circle cx="855.11" cy="2272.86" r="18.18" style="fill:#404040"/>
	<circle cx="855.11" cy="2272.86" r="13.86" style="fill:none;stroke:#404040;stroke-width:8.64"/>
	<circle cx="921.94" cy="2263.71" r="16.20" style="fill:#404040"/>
	<circle cx="921.94" cy="2263.71" r="11.88" style="fill:none;stroke:#404040;stroke-width:8.64"/>
	<circle cx="946.94" cy="2256.53" r="12.73" style="fill:#404040"/>
	<circle cx="946.94" cy="2256.53" r="8.41" style="fill:none;stroke:#404040;stroke-width:8.64"/>
	<circle cx="1197.53" cy="2237.59" r="15.21" style="fill:#404040"/>
	<circle cx="1197.53" cy="2237.59" r="10.89" style="fill:none;stroke:#404040;stroke-width:8.64"/>
	<circle cx="3378.00" cy="1852.47" r="18.55" style="fill:#404040"/>
	<circle cx="3378.00" cy="1852.47" r="14.23" style="fill:none;stroke:#404040;stroke-width:8.64"/>
	<line x1="390.80" y1="2489.19" x2="390.80" y2="100.86" style="stroke:#000000;stroke-width:5.76"/>
	<line x1="390.80" y1="2260.24" x2="350.83" y2="2260.24" style="stroke:#000000;stroke-width:5.76"/>
	<text x="300.72" y="2260.24" style="font-family:'Helvetica';font-size:99.99px;fill:#000000" transform="rotate(-90 300.72,2260.24)" text-anchor="middle">0</text>
	<line x1="390.80" y1="1736.14" x2="350.83" y2="1736.14" style="stroke:#000000;stroke-width:5.76"/>
	<text x="300.72" y="1736.14" style="font-family:'Helvetica';font-size:99.99px;fill:#000000" transform="rotate(-90 300.72,1736.14)" text-anchor="middle">.002</text>
	<line x1="390.80" y1="1212.17" x2="350.83" y2="1212.17" style="stroke:#000000;stroke-width:5.76"/>
	<text x="300.72" y="1212.17" style="font-family:'Helvetica';font-size:99.99px;fill:#000000" transform="rotate(-90 300.72,1212.17)" text-anchor="middle">.004</text>
	<line x1="390.80" y1="688.20" x2="350.83" y2="688.20" style="stroke:#000000;stroke-width:5.76"/>
	<text x="300.72" y="688.20" style="font-family:'Helvetica';font-size:99.99px;fill:#000000" transform="rotate(-90 300.72,688.20)" text-anchor="middle">.006</text>
	<line x1="390.80" y1="164.22" x2="350.83" y2="164.22" style="stroke:#000000;stroke-width:5.76"/>
	<text x="300.72" y="164.22" style="font-family:'Helvetica';font-size:99.99px;fill:#000000" transform="rotate(-90 300.72,164.22)" text-anchor="middle">.008</text>
	<text x="190.71" y="1294.96" style="font-family:'Helvetica';font-size:99.99px;fill:#000000" transform="rotate(-90 190.71,1294.96)" text-anchor="middle">DAME/MEM of polarization</text>
	<line x1="390.80" y1="2489.19" x2="3859.02" y2="2489.19" style="stroke:#000000;stroke-width:5.76"/>
	<line x1="454.16" y1="2489.19" x2="454.16" y2="2529.16" style="stroke:#000000;stroke-width:5.76"/>
	<text x="454.16" y="2619.14" style="font-family:'Helvetica';font-size:99.99px;fill:#000000" text-anchor="middle">0</text>
	<line x1="1289.47" y1="2489.19" x2="1289.47" y2="2529.16" style="stroke:#000000;stroke-width:5.76"/>
	<text x="1289.47" y="2619.14" style="font-family:'Helvetica';font-size:99.99px;fill:#000000" text-anchor="middle">10</text>
	<line x1="2124.91" y1="2489.19" x2="2124.91" y2="2529.16" style="stroke:#000000;stroke-width:5.76"/>
	<text x="2124.91" y="2619.14" style="font-family:'Helvetica';font-size:99.99px;fill:#000000" text-anchor="middle">20</text>
	<line x1="2960.35" y1="2489.19" x2="2960.35" y2="2529.16" style="stroke:#000000;stroke-width:5.76"/>
	<text x="2960.35" y="2619.14" style="font-family:'Helvetica';font-size:99.99px;fill:#000000" text-anchor="middle">30</text>
	<line x1="3795.66" y1="2489.19" x2="3795.66" y2="2529.16" style="stroke:#000000;stroke-width:5.76"/>
	<text x="3795.66" y="2619.14" style="font-family:'Helvetica';font-size:99.99px;fill:#000000" text-anchor="middle">40</text>
	<text x="2124.91" y="2729.16" style="font-family:'Helvetica';font-size:99.99px;fill:#000000" text-anchor="middle">Effective Electoral Threshold</text>
</svg>
