<?xml version="1.0" encoding="UTF-8" standalone="no"?>
<!-- This is a Stata 17.0 generated SVG file (http://www.stata.com) -->

<svg version="1.1" width="5.500in" height="4.000in" viewBox="0 0 3960 2880" xmlns="http://www.w3.org/2000/svg" xmlns:xlink="http://www.w3.org/1999/xlink">
	<desc>Stata Graph - Graph</desc>
	<rect x="0" y="0" width="3960" height="2880" style="fill:#FFFFFF;stroke:none"/>
	<rect x="0.00" y="0.00" width="3959.88" height="2880.00" style="fill:#FFFFFF"/>
	<rect x="2.88" y="2.88" width="3954.12" height="2874.24" style="fill:none;stroke:#FFFFFF;stroke-width:5.76"/>
	<rect x="393.68" y="103.74" width="3462.46" height="2382.57" style="fill:none;stroke:#000000;stroke-width:5.76"/>
	<line x1="390.80" y1="2281.77" x2="3859.02" y2="2281.77" style="stroke:#FF0000;stroke-width:8.64"/>
	<path d=" M454.04 2220.39 L621.10 2214.95 L788.29 2209.25 L955.35 2203.19 L1122.41 2196.75 L1289.47 2190.07 L1456.54 2183.02 L1623.60 2175.84 L1790.66 2168.54 L1957.85 2161.36 L2124.91 2154.31 L2291.97 2147.75 L2459.04 2141.81 L2626.10 2137.11 L2793.16 2134.01 L2960.22 2133.15 L3127.29 2135.25 L3294.47 2141.44 L3461.54 2152.82 L3628.60 2171.01 L3795.66 2197.87" stroke-linejoin="round" style="fill:none;stroke:#606060;stroke-width:8.64"/>
	<line x1="454.04" y1="2256.53" x2="511.58" y2="2255.41" style="stroke:#A0A0A0;stroke-width:8.64"/>
	<line x1="540.42" y1="2254.80" x2="597.96" y2="2253.68" style="stroke:#A0A0A0;stroke-width:8.64"/>
	<line x1="626.79" y1="2253.06" x2="684.46" y2="2251.83" style="stroke:#A0A0A0;stroke-width:8.64"/>
	<line x1="713.17" y1="2251.08" x2="770.84" y2="2249.85" style="stroke:#A0A0A0;stroke-width:8.64"/>
	<line x1="799.67" y1="2249.23" x2="857.22" y2="2247.87" style="stroke:#A0A0A0;stroke-width:8.64"/>
	<line x1="886.05" y1="2247.12" x2="943.59" y2="2245.89" style="stroke:#A0A0A0;stroke-width:8.64"/>
	<line x1="972.43" y1="2245.14" x2="1029.97" y2="2243.66" style="stroke:#A0A0A0;stroke-width:8.64"/>
	<line x1="1058.81" y1="2242.92" x2="1116.35" y2="2241.43" style="stroke:#A0A0A0;stroke-width:8.64"/>
	<line x1="1145.18" y1="2240.69" x2="1202.73" y2="2239.20" style="stroke:#A0A0A0;stroke-width:8.64"/>
	<line x1="1231.56" y1="2238.46" x2="1289.10" y2="2236.85" style="stroke:#A0A0A0;stroke-width:8.64"/>
	<line x1="1317.94" y1="2236.11" x2="1375.48" y2="2234.62" style="stroke:#A0A0A0;stroke-width:8.64"/>
	<line x1="1404.32" y1="2233.88" x2="1456.54" y2="2232.52" style="stroke:#A0A0A0;stroke-width:8.64"/>
	<line x1="1456.54" y1="2232.52" x2="1461.86" y2="2232.40" style="stroke:#A0A0A0;stroke-width:8.64"/>
	<line x1="1490.69" y1="2231.65" x2="1548.36" y2="2230.17" style="stroke:#A0A0A0;stroke-width:8.64"/>
	<line x1="1577.07" y1="2229.43" x2="1623.60" y2="2228.19" style="stroke:#A0A0A0;stroke-width:8.64"/>
	<line x1="1623.60" y1="2228.19" x2="1634.74" y2="2227.82" style="stroke:#A0A0A0;stroke-width:8.64"/>
	<line x1="1663.45" y1="2227.07" x2="1721.12" y2="2225.71" style="stroke:#A0A0A0;stroke-width:8.64"/>
	<line x1="1749.95" y1="2224.97" x2="1790.66" y2="2223.98" style="stroke:#A0A0A0;stroke-width:8.64"/>
	<line x1="1790.66" y1="2223.98" x2="1807.49" y2="2223.61" style="stroke:#A0A0A0;stroke-width:8.64"/>
	<line x1="1836.33" y1="2222.87" x2="1893.87" y2="2221.63" style="stroke:#A0A0A0;stroke-width:8.64"/>
	<line x1="1922.70" y1="2221.01" x2="1957.85" y2="2220.27" style="stroke:#A0A0A0;stroke-width:8.64"/>
	<line x1="1957.85" y1="2220.27" x2="1980.25" y2="2219.77" style="stroke:#A0A0A0;stroke-width:8.64"/>
	<line x1="2009.08" y1="2219.28" x2="2066.63" y2="2218.16" style="stroke:#A0A0A0;stroke-width:8.64"/>
	<line x1="2095.46" y1="2217.55" x2="2124.91" y2="2216.93" style="stroke:#A0A0A0;stroke-width:8.64"/>
	<line x1="2124.91" y1="2216.93" x2="2153.00" y2="2216.56" style="stroke:#A0A0A0;stroke-width:8.64"/>
	<line x1="2181.84" y1="2216.06" x2="2239.38" y2="2215.19" style="stroke:#A0A0A0;stroke-width:8.64"/>
	<line x1="2268.21" y1="2214.82" x2="2291.97" y2="2214.45" style="stroke:#A0A0A0;stroke-width:8.64"/>
	<line x1="2291.97" y1="2214.45" x2="2325.76" y2="2214.33" style="stroke:#A0A0A0;stroke-width:8.64"/>
	<line x1="2354.59" y1="2214.20" x2="2412.14" y2="2214.08" style="stroke:#A0A0A0;stroke-width:8.64"/>
	<line x1="2440.97" y1="2213.96" x2="2459.04" y2="2213.83" style="stroke:#A0A0A0;stroke-width:8.64"/>
	<line x1="2459.04" y1="2213.83" x2="2498.64" y2="2214.08" style="stroke:#A0A0A0;stroke-width:8.64"/>
	<line x1="2527.35" y1="2214.33" x2="2585.01" y2="2214.70" style="stroke:#A0A0A0;stroke-width:8.64"/>
	<line x1="2613.72" y1="2214.82" x2="2626.10" y2="2214.95" style="stroke:#A0A0A0;stroke-width:8.64"/>
	<line x1="2626.10" y1="2214.95" x2="2671.39" y2="2216.18" style="stroke:#A0A0A0;stroke-width:8.64"/>
	<line x1="2700.23" y1="2216.93" x2="2757.65" y2="2218.54" style="stroke:#A0A0A0;stroke-width:8.64"/>
	<line x1="2786.48" y1="2219.15" x2="2793.16" y2="2219.40" style="stroke:#A0A0A0;stroke-width:8.64"/>
	<line x1="2793.16" y1="2219.40" x2="2844.02" y2="2221.75" style="stroke:#A0A0A0;stroke-width:8.64"/>
	<line x1="2872.86" y1="2223.11" x2="2930.40" y2="2225.84" style="stroke:#A0A0A0;stroke-width:8.64"/>
	<line x1="2959.11" y1="2227.07" x2="2960.22" y2="2227.20" style="stroke:#A0A0A0;stroke-width:8.64"/>
	<line x1="2960.22" y1="2227.20" x2="3016.53" y2="2231.53" style="stroke:#A0A0A0;stroke-width:8.64"/>
	<line x1="3045.24" y1="2233.76" x2="3102.66" y2="2238.21" style="stroke:#A0A0A0;stroke-width:8.64"/>
	<line x1="3131.37" y1="2240.56" x2="3188.54" y2="2247.49" style="stroke:#A0A0A0;stroke-width:8.64"/>
	<line x1="3217.13" y1="2251.08" x2="3274.30" y2="2258.14" style="stroke:#A0A0A0;stroke-width:8.64"/>
	<line x1="3302.76" y1="2262.22" x2="3359.19" y2="2273.85" style="stroke:#A0A0A0;stroke-width:8.64"/>
	<line x1="3387.41" y1="2279.55" x2="3443.84" y2="2291.06" style="stroke:#A0A0A0;stroke-width:8.64"/>
	<line x1="3471.81" y1="2297.99" x2="3526.63" y2="2315.56" style="stroke:#A0A0A0;stroke-width:8.64"/>
	<line x1="3553.98" y1="2324.35" x2="3608.80" y2="2341.92" style="stroke:#A0A0A0;stroke-width:8.64"/>
	<line x1="3635.90" y1="2351.69" x2="3688.12" y2="2375.95" style="stroke:#A0A0A0;stroke-width:8.64"/>
	<line x1="3714.36" y1="2388.08" x2="3766.46" y2="2412.33" style="stroke:#A0A0A0;stroke-width:8.64"/>
	<line x1="3792.69" y1="2424.59" x2="3795.66" y2="2425.95" style="stroke:#A0A0A0;stroke-width:8.64"/>
	<path d="" stroke-linejoin="round" style="fill:none;stroke:#A0A0A0;stroke-width:8.64"/>
	<line x1="454.04" y1="2155.42" x2="511.58" y2="2152.82" style="stroke:#A0A0A0;stroke-width:8.64"/>
	<line x1="540.29" y1="2151.46" x2="597.84" y2="2148.86" style="stroke:#A0A0A0;stroke-width:8.64"/>
	<line x1="626.67" y1="2147.62" x2="684.21" y2="2144.90" style="stroke:#A0A0A0;stroke-width:8.64"/>
	<line x1="712.92" y1="2143.54" x2="770.47" y2="2140.94" style="stroke:#A0A0A0;stroke-width:8.64"/>
	<line x1="799.30" y1="2139.46" x2="856.72" y2="2136.49" style="stroke:#A0A0A0;stroke-width:8.64"/>
	<line x1="885.56" y1="2135.00" x2="942.98" y2="2132.03" style="stroke:#A0A0A0;stroke-width:8.64"/>
	<line x1="971.81" y1="2130.55" x2="1029.23" y2="2127.33" style="stroke:#A0A0A0;stroke-width:8.64"/>
	<line x1="1057.94" y1="2125.60" x2="1115.48" y2="2122.38" style="stroke:#A0A0A0;stroke-width:8.64"/>
	<line x1="1144.19" y1="2120.65" x2="1201.61" y2="2117.18" style="stroke:#A0A0A0;stroke-width:8.64"/>
	<line x1="1230.45" y1="2115.57" x2="1287.87" y2="2112.11" style="stroke:#A0A0A0;stroke-width:8.64"/>
	<line x1="1316.58" y1="2110.13" x2="1374.12" y2="2106.29" style="stroke:#A0A0A0;stroke-width:8.64"/>
	<line x1="1402.83" y1="2104.31" x2="1456.54" y2="2100.72" style="stroke:#A0A0A0;stroke-width:8.64"/>
	<line x1="1456.54" y1="2100.72" x2="1460.25" y2="2100.47" style="stroke:#A0A0A0;stroke-width:8.64"/>
	<line x1="1488.96" y1="2098.99" x2="1546.50" y2="2095.77" style="stroke:#A0A0A0;stroke-width:8.64"/>
	<line x1="1575.34" y1="2094.16" x2="1623.60" y2="2091.44" style="stroke:#A0A0A0;stroke-width:8.64"/>
	<line x1="1623.60" y1="2091.44" x2="1632.76" y2="2090.82" style="stroke:#A0A0A0;stroke-width:8.64"/>
	<line x1="1661.59" y1="2088.97" x2="1719.01" y2="2085.13" style="stroke:#A0A0A0;stroke-width:8.64"/>
	<line x1="1747.72" y1="2083.27" x2="1790.66" y2="2080.43" style="stroke:#A0A0A0;stroke-width:8.64"/>
	<line x1="1790.66" y1="2080.43" x2="1805.14" y2="2079.44" style="stroke:#A0A0A0;stroke-width:8.64"/>
	<line x1="1833.85" y1="2077.33" x2="1891.40" y2="2073.12" style="stroke:#A0A0A0;stroke-width:8.64"/>
	<line x1="1920.11" y1="2071.02" x2="1957.85" y2="2068.30" style="stroke:#A0A0A0;stroke-width:8.64"/>
	<line x1="1957.85" y1="2068.30" x2="1977.53" y2="2067.06" style="stroke:#A0A0A0;stroke-width:8.64"/>
	<line x1="2006.24" y1="2065.20" x2="2063.66" y2="2061.49" style="stroke:#A0A0A0;stroke-width:8.64"/>
	<line x1="2092.49" y1="2059.76" x2="2124.91" y2="2057.66" style="stroke:#A0A0A0;stroke-width:8.64"/>
	<line x1="2124.91" y1="2057.66" x2="2149.91" y2="2055.92" style="stroke:#A0A0A0;stroke-width:8.64"/>
	<line x1="2178.62" y1="2053.94" x2="2236.16" y2="2050.11" style="stroke:#A0A0A0;stroke-width:8.64"/>
	<line x1="2264.87" y1="2048.13" x2="2291.97" y2="2046.27" style="stroke:#A0A0A0;stroke-width:8.64"/>
	<line x1="2291.97" y1="2046.27" x2="2322.29" y2="2044.17" style="stroke:#A0A0A0;stroke-width:8.64"/>
	<line x1="2351.13" y1="2042.19" x2="2408.55" y2="2038.23" style="stroke:#A0A0A0;stroke-width:8.64"/>
	<line x1="2437.26" y1="2036.37" x2="2459.04" y2="2034.76" style="stroke:#A0A0A0;stroke-width:8.64"/>
	<line x1="2459.04" y1="2034.76" x2="2494.68" y2="2032.04" style="stroke:#A0A0A0;stroke-width:8.64"/>
	<line x1="2523.39" y1="2029.69" x2="2580.81" y2="2025.23" style="stroke:#A0A0A0;stroke-width:8.64"/>
	<line x1="2609.52" y1="2023.00" x2="2626.10" y2="2021.77" style="stroke:#A0A0A0;stroke-width:8.64"/>
	<line x1="2626.10" y1="2021.77" x2="2666.94" y2="2018.92" style="stroke:#A0A0A0;stroke-width:8.64"/>
	<line x1="2695.65" y1="2016.82" x2="2753.07" y2="2012.73" style="stroke:#A0A0A0;stroke-width:8.64"/>
	<line x1="2781.90" y1="2010.75" x2="2793.16" y2="2010.01" style="stroke:#A0A0A0;stroke-width:8.64"/>
	<line x1="2793.16" y1="2010.01" x2="2839.32" y2="2007.29" style="stroke:#A0A0A0;stroke-width:8.64"/>
	<line x1="2868.15" y1="2005.56" x2="2925.57" y2="2002.09" style="stroke:#A0A0A0;stroke-width:8.64"/>
	<line x1="2954.28" y1="2000.48" x2="2960.22" y2="2000.11" style="stroke:#A0A0A0;stroke-width:8.64"/>
	<line x1="2960.22" y1="2000.11" x2="3011.83" y2="1998.13" style="stroke:#A0A0A0;stroke-width:8.64"/>
	<line x1="3040.66" y1="1997.02" x2="3098.21" y2="1994.79" style="stroke:#A0A0A0;stroke-width:8.64"/>
	<line x1="3127.04" y1="1993.67" x2="3127.29" y2="1993.67" style="stroke:#A0A0A0;stroke-width:8.64"/>
	<line x1="3127.29" y1="1993.67" x2="3184.46" y2="1991.20" style="stroke:#A0A0A0;stroke-width:8.64"/>
	<line x1="3213.29" y1="1989.96" x2="3270.84" y2="1987.49" style="stroke:#A0A0A0;stroke-width:8.64"/>
	<line x1="3299.55" y1="1986.25" x2="3357.21" y2="1984.52" style="stroke:#A0A0A0;stroke-width:8.64"/>
	<line x1="3385.92" y1="1983.65" x2="3443.47" y2="1981.79" style="stroke:#A0A0A0;stroke-width:8.64"/>
	<line x1="3472.30" y1="1981.18" x2="3529.85" y2="1980.68" style="stroke:#A0A0A0;stroke-width:8.64"/>
	<line x1="3558.68" y1="1980.43" x2="3616.22" y2="1979.94" style="stroke:#A0A0A0;stroke-width:8.64"/>
	<line x1="3645.06" y1="1979.81" x2="3702.60" y2="1979.57" style="stroke:#A0A0A0;stroke-width:8.64"/>
	<line x1="3731.43" y1="1979.57" x2="3789.10" y2="1979.32" style="stroke:#A0A0A0;stroke-width:8.64"/>
	<path d="" stroke-linejoin="round" style="fill:none;stroke:#A0A0A0;stroke-width:8.64"/>
	<line x1="955.35" y1="2129.43" x2="955.35" y2="164.22" style="stroke:#808080;stroke-width:8.64"/>
	<line x1="1456.66" y1="2116.07" x2="1456.66" y2="1116.38" style="stroke:#808080;stroke-width:8.64"/>
	<line x1="3127.41" y1="2164.46" x2="3127.41" y2="1635.16" style="stroke:#808080;stroke-width:8.64"/>
	<line x1="3628.60" y1="2376.82" x2="3628.60" y2="1501.13" style="stroke:#808080;stroke-width:8.64"/>
	<circle cx="955.35" cy="1586.15" r="11.00" style="fill:#404040"/>
	<circle cx="955.35" cy="1586.15" r="6.68" style="fill:none;stroke:#404040;stroke-width:8.64"/>
	<circle cx="1456.54" cy="1820.67" r="10.14" style="fill:#404040"/>
	<circle cx="1456.54" cy="1820.67" r="5.82" style="fill:none;stroke:#404040;stroke-width:8.64"/>
	<circle cx="3127.29" cy="1937.24" r="10.38" style="fill:#404040"/>
	<circle cx="3127.29" cy="1937.24" r="6.06" style="fill:none;stroke:#404040;stroke-width:8.64"/>
	<circle cx="3628.60" cy="1978.33" r="10.51" style="fill:#404040"/>
	<circle cx="3628.60" cy="1978.33" r="6.19" style="fill:none;stroke:#404040;stroke-width:8.64"/>
	<line x1="390.80" y1="2489.19" x2="390.80" y2="100.86" style="stroke:#000000;stroke-width:5.76"/>
	<line x1="390.80" y1="2281.77" x2="350.83" y2="2281.77" style="stroke:#000000;stroke-width:5.76"/>
	<text x="300.72" y="2281.77" style="font-family:'Helvetica';font-size:99.99px;fill:#000000" transform="rotate(-90 300.72,2281.77)" text-anchor="middle">0</text>
	<line x1="390.80" y1="1590.11" x2="350.83" y2="1590.11" style="stroke:#000000;stroke-width:5.76"/>
	<text x="300.72" y="1590.11" style="font-family:'Helvetica';font-size:99.99px;fill:#000000" transform="rotate(-90 300.72,1590.11)" text-anchor="middle">.2</text>
	<line x1="390.80" y1="898.33" x2="350.83" y2="898.33" style="stroke:#000000;stroke-width:5.76"/>
	<text x="300.72" y="898.33" style="font-family:'Helvetica';font-size:99.99px;fill:#000000" transform="rotate(-90 300.72,898.33)" text-anchor="middle">.4</text>
	<line x1="390.80" y1="206.67" x2="350.83" y2="206.67" style="stroke:#000000;stroke-width:5.76"/>
	<text x="300.72" y="206.67" style="font-family:'Helvetica';font-size:99.99px;fill:#000000" transform="rotate(-90 300.72,206.67)" text-anchor="middle">.6</text>
	<text x="190.71" y="1294.96" style="font-family:'Helvetica';font-size:99.99px;fill:#000000" transform="rotate(-90 190.71,1294.96)" text-anchor="middle">DAME/MEM of ln(FDI flows)</text>
	<line x1="390.80" y1="2489.19" x2="3859.02" y2="2489.19" style="stroke:#000000;stroke-width:5.76"/>
	<line x1="454.16" y1="2489.19" x2="454.16" y2="2529.16" style="stroke:#000000;stroke-width:5.76"/>
	<text x="454.16" y="2619.14" style="font-family:'Helvetica';font-size:99.99px;fill:#000000" text-anchor="middle">-10</text>
	<line x1="1289.47" y1="2489.19" x2="1289.47" y2="2529.16" style="stroke:#000000;stroke-width:5.76"/>
	<text x="1289.47" y="2619.14" style="font-family:'Helvetica';font-size:99.99px;fill:#000000" text-anchor="middle">-5</text>
	<line x1="2124.91" y1="2489.19" x2="2124.91" y2="2529.16" style="stroke:#000000;stroke-width:5.76"/>
	<text x="2124.91" y="2619.14" style="font-family:'Helvetica';font-size:99.99px;fill:#000000" text-anchor="middle">0</text>
	<line x1="2960.35" y1="2489.19" x2="2960.35" y2="2529.16" style="stroke:#000000;stroke-width:5.76"/>
	<text x="2960.35" y="2619.14" style="font-family:'Helvetica';font-size:99.99px;fill:#000000" text-anchor="middle">5</text>
	<line x1="3795.66" y1="2489.19" x2="3795.66" y2="2529.16" style="stroke:#000000;stroke-width:5.76"/>
	<text x="3795.66" y="2619.14" style="font-family:'Helvetica';font-size:99.99px;fill:#000000" text-anchor="middle">10</text>
	<text x="2124.91" y="2729.16" style="font-family:'Helvetica';font-size:99.99px;fill:#000000" text-anchor="middle">Polity 2</text>
</svg>
